<?xml version="1.0" encoding="utf-8"?>
<!-- Generator: Adobe Illustrator 24.0.1, SVG Export Plug-In . SVG Version: 6.00 Build 0)  -->
<svg version="1.1" id="Layer_1" xmlns="http://www.w3.org/2000/svg" xmlns:xlink="http://www.w3.org/1999/xlink" x="0px" y="0px"
	 viewBox="0 0 590.54 318.47" style="enable-background:new 0 0 590.54 318.47;" xml:space="preserve">
<style type="text/css">
	.st0{opacity:0.33;}
	.st1{opacity:0.25;}
	.st2{fill:#191C21;}
	.st3{fill:#7D92A0;}
	.st4{fill:#4F5D6B;}
	.st5{fill:#273039;}
	.st6{fill:url(#SVGID_1_);}
	.st7{opacity:0.68;}
	.st8{fill:#C9B01B;}
	.st9{fill:#EDCF1F;}
	.st10{opacity:0.1;}
</style>
<g class="st0">
	<g class="st1">
		<path class="st2" d="M554.64,260.99l17.98-3.47l9.33,28.54l-17.98,3.47l5.89,18.03l-54.21,10.45l-5.89-18.03l-80.34,15.49
			l-7.86-24.04l35.55-108.66l67.7-13.05L554.64,260.99z M500.42,271.44l-16.33-49.95l-1.12,0.22l-16.82,56.34L500.42,271.44z"/>
	</g>
</g>
<polygon class="st3" points="438.41,286.47 434.92,299.16 426.87,276.08 430.56,262.43 "/>
<polygon class="st3" points="515.05,284.34 518.75,270.98 524.64,289.01 521.13,302.23 "/>
<polygon class="st3" points="485.95,195.25 489.65,181.89 509.42,242.78 505.91,256 "/>
<polygon class="st4" points="524.64,289.01 521.13,302.23 575.22,292.1 578.86,278.56 "/>
<polygon class="st4" points="590.84,257.06 587.15,270.7 569.42,274.57 572.97,260.53 "/>
<polygon class="st4" points="434.92,299.16 438.41,286.47 518.75,270.98 515.05,284.34 "/>
<g>
	<path class="st5" d="M563.64,231.99l17.98-3.47l9.33,28.54l-17.98,3.47l5.89,18.03l-54.21,10.45l-5.89-18.03l-80.34,15.49
		l-7.86-24.04l35.55-108.66l67.7-13.05L563.64,231.99z M509.42,242.44l-16.33-49.95l-1.12,0.22l-16.82,56.34L509.42,242.44z"/>
</g>
<linearGradient id="SVGID_1_" gradientUnits="userSpaceOnUse" x1="294.2178" y1="289.0552" x2="296.246" y2="154.1524">
	<stop  offset="0" style="stop-color:#191C21"/>
	<stop  offset="1" style="stop-color:#7B7878"/>
</linearGradient>
<path class="st6" d="M336.07,171.28c-1.98-1.04-3.93-2.03-5.88-2.99c-37.3-18.47-69.83-24.09-95.34-14.99
	c-10.63,3.79-20.04,10.13-28.06,19.16c-27.28,30.7-12.15,67.59,45.47,97.8c20.07,10.52,38.89,17.46,56.12,20.51
	c7.58,1.34,14.85,1.92,21.78,1.72c21.11-0.6,39.13-8.45,53.25-24.34C412.28,235.64,393.93,201.6,336.07,171.28z"/>
<g class="st7">
	<path class="st5" d="M261.01,149.02c20.34,0,43.65,6.62,69.18,19.26c1.95,0.97,3.91,1.96,5.88,2.99
		c57.86,30.32,76.22,64.36,47.34,96.86c-14.12,15.89-32.14,23.74-53.25,24.34c-0.88,0.03-1.77,0.04-2.67,0.04
		c-6.13,0-12.5-0.59-19.11-1.76c-17.24-3.04-36.05-9.99-56.12-20.51c-57.62-30.2-72.75-67.09-45.47-97.8
		c8.03-9.03,17.44-15.37,28.06-19.16C242.89,150.43,251.63,149.02,261.01,149.02 M261.01,145.02c-9.86,0-19.12,1.52-27.5,4.51
		c-11.36,4.05-21.36,10.87-29.71,20.27c-11.43,12.86-16.08,27.3-13.44,41.74c4.07,22.27,24.83,43.8,60.04,62.25
		c20.6,10.8,39.87,17.83,57.29,20.9c6.84,1.21,13.5,1.82,19.81,1.82c0.93,0,1.87-0.01,2.78-0.04c22.67-0.65,41.55-9.29,56.12-25.68
		c11.71-13.18,16.36-26.95,13.81-40.92c-3.96-21.64-24.91-42.55-62.28-62.13c-1.84-0.96-3.79-1.96-5.97-3.03
		C305.59,151.64,281.71,145.02,261.01,145.02L261.01,145.02z"/>
</g>
<polygon class="st8" points="153.16,14.5 156.71,0.46 250.52,171.29 246.98,185.33 "/>
<path class="st8" d="M297.82,243.87l3.55-14.04h72.95l-3.55,14.04C365.37,244.02,297.82,243.87,297.82,243.87z"/>
<path class="st9" d="M374.31,229.97l-20.41-48.43L277.62,0.46h-120.9l83.11,151.27l10.74,19.55h-42.72h-6.73l3.28,3.99l92.78,113.01
	c3.8,0.99,7.53,1.83,11.18,2.47c7.01,1.24,13.76,1.82,20.23,1.74l-26.66-62.53H374.31z"/>
<g>
	<path class="st8" d="M204.41,175.28l-3.28-3.99l-3.55,14.04l0.26,0.31l78.42,95.71c7.18,2.85,14.17,5.17,20.93,6.94v0
		L204.41,175.28z"/>
</g>
<g class="st10">
	<path class="st2" d="M134.14,260.99l17.98-3.47l9.33,28.54l-17.98,3.47l5.89,18.03l-54.21,10.45l-5.89-18.03L8.91,315.47
		l-7.86-24.04l35.55-108.66l67.7-13.05L134.14,260.99z M79.92,271.44L63.6,221.49l-1.12,0.22l-16.82,56.34L79.92,271.44z"/>
</g>
<polygon class="st3" points="17.91,286.47 14.42,299.16 6.37,276.08 10.06,262.43 "/>
<polygon class="st3" points="94.55,284.34 98.25,270.98 104.14,289.01 100.63,302.23 "/>
<polygon class="st3" points="65.45,195.25 69.15,181.89 88.92,242.78 85.41,256 "/>
<polygon class="st4" points="104.14,289.01 100.63,302.23 154.72,292.1 158.36,278.56 "/>
<polygon class="st4" points="170.34,257.06 166.65,270.7 148.92,274.57 152.47,260.53 "/>
<polygon class="st4" points="14.42,299.16 17.91,286.47 98.25,270.98 94.55,284.34 "/>
<g>
	<path class="st5" d="M143.14,231.99l17.98-3.47l9.33,28.54l-17.98,3.47l5.89,18.03l-54.21,10.45l-5.89-18.03l-80.34,15.49
		l-7.86-24.04l35.55-108.66l67.7-13.05L143.14,231.99z M88.92,242.44L72.6,192.49l-1.12,0.22l-16.82,56.34L88.92,242.44z"/>
</g>
</svg>
