<?xml version="1.0" encoding="utf-8"?>
<!-- Generator: Adobe Illustrator 23.1.1, SVG Export Plug-In . SVG Version: 6.00 Build 0)  -->
<svg version="1.1" id="Layer_1" xmlns="http://www.w3.org/2000/svg" xmlns:xlink="http://www.w3.org/1999/xlink" x="0px" y="0px"
	 viewBox="0 0 38 80" width="38" style="enable-background:new 0 0 38 80;" xml:space="preserve">
<style type="text/css">
	.st0{fill:#EECF1C;}
	.st1{fill:#FFFFFF;}
</style>
<g id="W_x5F_Fist_Logo_1_">
	<g>
		<g>
			<polygon class="st0" points="7,0.9 13.9,17.4 5.1,17.4 8,24.7 25.7,24.7 			"/>
			<polygon class="st0" points="30.3,61.1 27.4,53.8 23.3,53.8 14.9,33.3 11.3,33.3 19.7,53.8 9.4,53.8 28.4,77.6 21.6,61.1 			"/>
		</g>
		<g>
			<g>
				<path class="st1" d="M32.6,32c0.2,0,0.7-0.3,0.7-2.8c0-2.5-0.5-2.8-0.7-2.8H20.4l2.3,5.6H32.6z"/>
				<path class="st1" d="M25.5,38.7l8.2,0c0.2,0,0.7-0.3,0.7-2.8s-0.5-2.8-0.7-2.8l-10.5,0L25.5,38.7z"/>
				<g>
					<path class="st1" d="M32.6,46.5h-11l2.3,5.6h8.7c0.2,0,0.7-0.3,0.7-2.8C33.4,46.8,32.9,46.5,32.6,46.5z"/>
					<path class="st1" d="M33.7,39.8H18.9l2.3,5.6h12.6c0.2,0,0.7-0.3,0.7-2.8C34.4,40.1,33.9,39.8,33.7,39.8z"/>
				</g>
				<path class="st1" d="M32.6,46.5h-11l2.3,5.6h8.7c0.2,0,0.7-0.3,0.7-2.8C33.4,46.8,32.9,46.5,32.6,46.5z"/>
				<path class="st1" d="M33.7,39.8H18.9l2.3,5.6h12.6c0.2,0,0.7-0.3,0.7-2.8C34.4,40.1,33.9,39.8,33.7,39.8z"/>
				<path class="st1" d="M12.1,38.7L9.5,32h6.1l2.8,6.8l5.8-0.1l-5.1-12.3H6.5c-1,0-1.5,0-2,1.5c-0.5,1.7-0.6,5-0.6,11.4
					c0,6.4,0.1,9.7,0.6,11.4c0.4,1.5,1,1.5,2,1.5l11.1,0L12.1,38.7L12.1,38.7z"/>
			</g>
		</g>
	</g>
</g>
</svg>
