<svg height="63" viewBox="0 0 65 63" width="65" xmlns="http://www.w3.org/2000/svg"><g fill="#0093c9" fill-rule="evenodd"><path d="m0 12.5120556h18.66375v-12.30907412h-18.66375z"/><path d="m22.97125 12.5120556h18.65875v-12.30907412h-18.65875z"/><path d="m0 29.1412222h18.66375v-12.3126852h-18.66375z"/><path d="m25.1225 27.066037h14.35625v-8.1611111h-14.35625zm-2.15125 2.0751852h18.65875v-12.3126852h-18.65875z"/><path d="m0 46.3072407h18.66375v-12.3126851h-18.66375z"/><path d="m25.1225 44.2308519h14.35625v-8.1635186h-14.35625zm-2.15125 2.0763888h18.65875v-12.3126851h-18.65875z"/><path d="m45.93875 29.0629815h18.6625v-12.3090741h-18.6625z"/><path d="m45.93875 45.6897407h18.6625v-12.309074h-18.6625z"/><path d="m22.97125 62.8545556h18.65875v-12.3090741h-18.65875z"/><path d="m45.93875 62.8545556h18.6625v-12.3090741h-18.6625z"/></g></svg>