<svg height="64" viewBox="0 0 65 64" width="65" xmlns="http://www.w3.org/2000/svg"><g fill="#0093c9" fill-rule="evenodd"><path d="m28.1130417 34.2621855c0-.9215323.1473333-1.7046774.4365833-2.3504839.28925-.6447581.7810833-1.2475806 1.47225-1.7969355 1.0150833-.8292742 1.9521667-1.5516129 2.80475-2.1691129.8536667-.6112097 1.5881667-1.1867742 2.20675-1.7245967.6185833-.5378226 1.0985-1.0441936 1.4440833-1.5201613.3455834-.4770162.5156667-.9760484.5156667-1.4981452 0-1.0169355-.3726667-1.8042742-1.11475-2.3725-.7464167-.5692742-1.6824167-.8533871-2.8058333-.8533871-1.70625 0-3.0073334.3994355-3.8956667 1.1983065-.8894167.7988709-1.3888333 1.7665322-1.4960833 2.9029838l-8.3925834-.4602419c.3965-3.2562903 1.8135-5.7367742 4.2499167-7.4425 2.4320833-1.7046774 5.5585833-2.5570161 9.3719167-2.5570161 1.6705 0 3.2380833.1918548 4.7103333.5755645 1.47225.384758 2.7700833.9603226 3.89675 1.7287903 1.1266667.7674194 2.0160833 1.7193548 2.6704167 2.8568548.6510833 1.1364517.9804166 2.4416936.9804166 3.9167742 0 .8900807-.10725 1.6973387-.3293333 2.4186291-.2145.7223387-.5871667 1.4362903-1.1158333 2.1429032-.5275834.7066129-1.2176667 1.4205645-2.067 2.1429032-.8569167.7223387-1.9359167 1.5128226-3.2456667 2.3735484-.8330833.5525-1.3964167 1.0903226-1.69 1.6082258-.2903333.5262903-.4333333 1.0483871-.4333333 1.5704839v1.3366935h-8.17375zm-.9240834 8.8473387c0-.5839516.12675-1.1364516.38025-1.6585484.2545834-.5220968.60775-.9760484 1.0638334-1.3597581.45175-.3837096.988-.6835483 1.6065833-.8984677.6153333-.2107258 1.2696667-.3229032 1.9608333-.3229032.6900834 0 1.3444167.1121774 1.95975.3229032.6185834.2149194 1.1548334.5147581 1.6076667.8984677.4560833.3837097.80925.8376613 1.06275 1.3597581.2545833.5220968.3813333 1.0745968.3813333 1.6585484s-.12675 1.1364516-.3813333 1.6585484c-.2535.5231451-.6066667.9760484-1.06275 1.359758-.4528333.3837097-.9890833.6835484-1.6076667.8984678-.6153333.2149193-1.2696666.3229032-1.95975.3229032-.6911666 0-1.3455-.1079839-1.9608333-.3229032-.6185833-.2149194-1.1548333-.5147581-1.6065833-.8984678-.4560834-.3837096-.80925-.8366129-1.0638334-1.359758-.2535-.5220968-.38025-1.0745968-.38025-1.6585484z"/><path d="m10.4756167 9.04554032c-2.8329167 2.74153228-5.09058337 6.00620968-6.77300003 9.79193548-1.68241667 3.7867742-2.52416667 7.7570161-2.52416667 11.9075807 0 5.7294354 1.51558333 11.0101612 4.5435 15.8400806l-5.72216667 16.4890323 17.54674997-5.4558065c4.7655834 2.5528226 9.8843334 3.8276613 15.35625 3.8276613 4.29 0 8.3925834-.8135484 12.3045-2.4416936 3.913-1.6281451 7.2854167-3.8129838 10.1183334-6.5555645 2.834-2.7415322 5.0916666-6.0051613 6.7740833-9.7919355 1.6824167-3.7857258 2.5230833-7.7559677 2.5230833-11.9117741 0-4.1505646-.8406666-8.1208065-2.5230833-11.9075807-1.6824167-3.7857258-3.9400833-7.0504032-6.7740833-9.79193548-2.8329167-2.74153226-6.2053334-4.92637097-10.1183334-6.55451613-3.9119166-1.62814516-8.0145-2.44274193-12.3045-2.44274193-4.29325 0-8.3958333.81459677-12.3088333 2.44274193-3.9119167 1.62814516-7.2854167 3.81298387-10.1183333 6.55451613m7.9126666 43.03524198-10.18224997 3.1367742 3.32149997-9.4879033c-3.3648333-4.4776613-5.04724997-9.4732258-5.04724997-14.9845967 0-3.4439517.702-6.7505646 2.10275-9.9104033 1.404-3.1640322 3.28141667-5.8835484 5.63874997-8.1637903 2.35625-2.2812903 5.1664167-4.09814516 8.4359167-5.45685484 3.2651667-1.35556451 6.682-2.03491935 10.2450833-2.03491935 3.5598334 0 6.9755834.67935484 10.2418334 2.03491935 3.2695 1.35870968 6.0785833 3.17556454 8.4359166 5.45685484 2.3573334 2.2802419 4.2336667 4.9997581 5.63875 8.1637903 1.40075 3.1598387 2.10275 6.4664516 2.10275 9.9104033 0 3.4491935-.702 6.754758-2.10275 9.9156451-1.4050833 3.1640323-3.2814166 5.8825-5.63875 8.1637903-2.3573333 2.2812904-5.1664166 4.0970968-8.4359166 5.4568549-3.26625 1.3555645-6.682 2.0349193-10.2418334 2.0349193-5.2455 0-10.0869166-1.4090322-14.5145-4.2354838"/></g></svg>