<svg height="65" viewBox="0 0 120 65" width="120" xmlns="http://www.w3.org/2000/svg"><g fill="#0093c9" fill-rule="evenodd"><path d="m113.5099 26.1022c.706-.179 1.445-.275 2.207-.275s1.502.096 2.207.275v-26.102h-20.299v14.68h15.885z"/><path d="m12.2901 54.6833c-2.887 0-5.235 2.314-5.235 5.158 0 2.845 2.348 5.159 5.235 5.159 2.886 0 5.235-2.314 5.235-5.159 0-2.844-2.349-5.158-5.235-5.158"/><path d="m86.5143 45.3991h-41.126c-2.758 0-5.002-1.842-5.002-4.106s2.244-4.106 5.002-4.106h67.017c-.222-.704-.34-1.442-.34-2.202 0-.761.118-1.499.34-2.203h-67.017c-5.717 0-10.368 3.818-10.368 8.511s4.651 8.511 10.368 8.511h41.126c2.758 0 5.002 1.842 5.002 4.105 0 2.265-2.244 4.107-5.002 4.107h-69.845c.222.704.34 1.442.34 2.202s-.118 1.499-.34 2.203h69.845c5.717 0 10.368-3.818 10.368-8.512 0-4.692-4.651-8.51-10.368-8.51"/><path d="m109.5298 35.338c0 2.844 2.348 5.158 5.235 5.158s5.235-2.314 5.235-5.158-2.348-5.158-5.235-5.158-5.235 2.314-5.235 5.158"/><path d="m12.2901 39.0201c-4.12 0-7.459-3.291-7.459-7.35s3.339-7.35 7.459-7.35 7.459 3.291 7.459 7.35-3.339 7.35-7.459 7.35m0-19.46c-6.776 0-12.29 5.433-12.29 12.11 0 2.829.99 5.435 2.646 7.499l9.644 11.947 9.644-11.947c1.656-2.064 2.646-4.67 2.646-7.499 0-6.677-5.513-12.11-12.29-12.11"/></g></svg>