<svg height="83" viewBox="0 0 132 83" width="132" xmlns="http://www.w3.org/2000/svg"><g fill="#0093c9" fill-rule="evenodd"><path d="m39 21.116577v-2.116577h-22.481533l-4.9695547 14.6973605h-3.5489123v16.3026395h31z"/><path d="m28.7697023 0v7.576088l-2.7697023 1.442934v9.980978h6v-19z"/><path d="m42 47h14v-14h-14zm2.4198981-2.4200542h9.1602038v-9.1598916h-9.1602038z"/><path d="m58 47h14v-14h-14zm2.4198981-2.4200542h9.1602038v-9.1598916h-9.1602038z"/><path d="m58 32h14v-14h-14zm2.4198981-2.4200542h9.1602038v-9.1598916h-9.1602038z"/><path d="m74 47h14v-14h-14zm2.4198981-2.4200542h9.1602038v-9.1598916h-9.1602038z"/><path d="m74 32h14v-14h-14zm2.4198981-2.4200542h9.1602038v-9.1598916h-9.1602038z"/><path d="m90 47h14v-14h-14zm2.4198981-2.4200542h9.1602039v-9.1598916h-9.1602039z"/><path d="m90 32h14v-14h-14zm2.4198981-2.4200542h9.1602039v-9.1598916h-9.1602039z"/><path d="m106 47h14v-14h-14zm2.419898-2.4200542h9.160204v-9.1598916h-9.160204z"/><path d="m42 32h14v-14h-14zm2.4198981-2.4200542h9.1602038v-9.1598916h-9.1602038z"/><path d="m74 16h14v-14h-14zm2.4198981-2.4198981h9.1602038v-9.16020384h-9.1602038z"/><path d="m58 16h14v-14h-14zm2.4198981-2.4198981h9.1602038v-9.16020384h-9.1602038z"/><g transform="translate(0 49)"><path d="m26.9732189 5.38291579c2.2431081 0 4.0616757 1.82436842 4.0616757 4.07463158 0 2.24936843-1.8185676 4.07373683-4.0616757 4.07373683s-4.0616757-1.8243684-4.0616757-4.07373683c0-2.25026316 1.8185676-4.07463158 4.0616757-4.07463158zm12.2956216 0c2.2431081 0 4.0607838 1.82436842 4.0607838 4.07463158 0 2.24936843-1.8176757 4.07373683-4.0607838 4.07373683s-4.0616756-1.8243684-4.0616756-4.07373683c0-2.25026316 1.8185675-4.07463158 4.0616756-4.07463158zm12.2956217 0c2.2422162 0 4.0607837 1.82436842 4.0607837 4.07463158 0 2.24936843-1.8185675 4.07373683-4.0607837 4.07373683-2.2431081 0-4.0616757-1.8243684-4.0616757-4.07373683 0-2.25026316 1.8185676-4.07463158 4.0616757-4.07463158zm68.7773518 15.92989471c3.696891-12.12368418 11.191459-21.1560526 11.191459-21.1560526h-131.53354057c0 7.45047368.77416217 15.0485789 2.09505406 21.1560526z"/><path d="m2.73703784 23.9966632c1.58489189 5.9956315 3.75486486 10.0031579 6.24324324 10.0031579h109.34683792c0-3.4420527.489649-6.8080527 1.275405-10.0031579z"/></g></g></svg>