<svg height="75" viewBox="0 0 90 75" width="90" xmlns="http://www.w3.org/2000/svg"><g fill="#0093c9" fill-rule="evenodd"><path d="m85.9669481 55.6249219c0 1.3183594-1.0753247 2.3964844-2.3902598 2.3964844h-77.16272726c-1.31493507 0-2.39025974-1.078125-2.39025974-2.3964844v-49.36640627c0-1.31835938 1.07532467-2.39648438 2.39025974-2.39648438h77.16272726c1.3149351 0 2.3902598 1.078125 2.3902598 2.39648438zm-1.2412987-55.46601565v-.13242187h-79.90363641v.13242187c-2.58545455.17929688-4.51636364 2.23828125-4.82142857 4.74257813v52.65234372c0 1.0113282.26415584 1.8632813.70246753 2.6320313 1.0087013 1.7800781 2.49662337 2.6824219 4.55727273 2.6824219h28.84090912v7.2925781h-5.4794806c-1.3605194 0-2.4101298 1.0617187-2.4101298 2.4164062 0 1.359375 1.0496104 2.4222657 2.4101298 2.4222657h32.3041559c1.3546753 0 2.451039-1.0628907 2.451039-2.4222657 0-1.3546875-1.0963637-2.4164062-2.451039-2.4164062h-5.4794805v-7.2925781h28.8374026c2.0641558 0 3.564935-.9023438 4.5607792-2.6824219.4523377-.80625.7445454-1.6710938.7445454-2.6320313v-52.65234372c-.3062337-2.50429688-2.3645454-4.56328125-4.8635064-4.74257813z"/><path d="m18 52h18v-4h-18z"/><path d="m32 37h28v-4h-28z"/><path d="m42 52h10v-4h-10z"/><path d="m8 15h47v-4h-47z"/><path d="m23 23h28v-4h-28z"/><path d="m23 45h14v-4h-14z"/><path d="m52 45h29v-4h-29z"/><path d="m60 52h20v-4h-20z"/><path d="m8 23h11v-4h-11z"/><path d="m8 37h19v-4h-19z"/><path d="m8 45h10v-4h-10z"/><path d="m40 45h9v-4h-9z"/><path d="m54 23h7v-4h-7z"/><path d="m18 30h29v-4h-29z"/><path d="m51 30h23v-4h-23z"/><path d="m77 16.8917951v-1.3635794h-.6579694v-.6858653h-.6704481v-.6847008h-.6693136v-.6858653h-.6625071v-.6742207h-.6738514v-.6963454h-.6579694v-.6812075h-.6659104v-.6835363h-.6704481v-.6823719h-.6693136v-.68586531h-.6659104v-.68353637h-.6704481v-.68470082h-.6659104v11.6375851h1.3363585v-.6916876h.6659104v-.6823719h.6693136v-.6881942h.6704481v1.3705661h.6659104v1.3682372h.6579694v.6858653h1.3363585v-.6858653h.6693136v-1.3682372h-.6693136v-1.3705661h-.6625071v-.6835363z"/></g></svg>