<svg height="71" viewBox="0 0 145 71" width="145" xmlns="http://www.w3.org/2000/svg"><g fill="none" fill-rule="evenodd" transform="translate(1 1)"><path d="m40.2336 4.5848h70.512z" stroke="#0093c9" stroke-width="3.808"/><path d="m108.7995 24.5012v-19.916" stroke="#0093c9" stroke-width="3.808"/><g fill="#0093c9"><path d="m88.4608 50.394c0-.191.034-.372.105-.543.07-.171.169-.32.294-.445.126-.126.275-.224.445-.295.172-.07.353-.105.544-.105s.372.035.543.105c.171.071.319.169.446.295.125.125.223.274.294.445.07.171.105.352.105.543 0 .192-.035.372-.105.543-.071.172-.169.32-.294.446-.127.125-.275.224-.446.294s-.352.106-.543.106-.372-.036-.544-.106c-.17-.07-.319-.169-.445-.294-.125-.126-.224-.274-.294-.446-.071-.171-.105-.351-.105-.543"/><path d="m100.1552 43.7846c-.231-.281-.516-.498-.852-.649-.338-.151-.727-.226-1.17-.226s-.852.085-1.229.257c-.379.171-.705.41-.982.716-.276.307-.492.672-.648 1.094-.156.423-.234.881-.234 1.373 0 .504.078.964.234 1.381.156.418.37.78.641 1.087.272.306.59.546.958.716.367.172.762.257 1.185.257.482 0 .91-.101 1.282-.302s.679-.483.92-.845l1.963 1.464c-.453.634-1.027 1.101-1.721 1.403s-1.408.453-2.143.453c-.835 0-1.604-.131-2.308-.392-.704-.262-1.313-.636-1.826-1.125-.513-.487-.914-1.078-1.2-1.773-.286-.694-.43-1.468-.43-2.324 0-.855.144-1.629.43-2.323.286-.695.687-1.285 1.2-1.773s1.122-.863 1.826-1.125c.704-.261 1.473-.392 2.308-.392.302 0 .616.028.944.083.326.056.648.143.966.264.316.121.62.282.912.483.292.202.553.448.785.739z"/><path d="m105.3761 46.3499c0 .503.078.963.234 1.381s.379.779.671 1.086.642.546 1.049.717c.408.171.863.257 1.365.257.504 0 .959-.086 1.367-.257.407-.171.756-.41 1.048-.717s.516-.668.672-1.086.234-.878.234-1.381c0-.493-.078-.951-.234-1.373-.156-.423-.38-.787-.672-1.094s-.641-.546-1.048-.717c-.408-.171-.863-.257-1.367-.257-.502 0-.957.086-1.365.257-.407.171-.757.41-1.049.717s-.515.671-.671 1.094c-.156.422-.234.88-.234 1.373m-2.445 0c0-.855.144-1.629.43-2.324.287-.694.687-1.285 1.2-1.773.513-.487 1.122-.862 1.827-1.124.703-.261 1.472-.392 2.307-.392.836 0 1.605.131 2.309.392.705.262 1.313.637 1.827 1.124.513.488.912 1.079 1.199 1.773.287.695.431 1.469.431 2.324s-.144 1.63-.431 2.324-.686 1.285-1.199 1.773c-.514.488-1.122.863-1.827 1.124-.704.262-1.473.393-2.309.393-.835 0-1.604-.131-2.307-.393-.705-.261-1.314-.636-1.827-1.124s-.913-1.079-1.2-1.773c-.286-.694-.43-1.469-.43-2.324"/><path d="m116.0589 41.0085h3.561l2.46 6.971h.03l2.475-6.971h3.545v10.683h-2.353v-8.193h-.03l-2.807 8.193h-1.796l-2.701-8.193h-.031v8.193h-2.353z"/><path d="m19.7249 2.3592 4.689 10.994h-5.968l1.974 4.838h12.094z"/><path d="m24.4288 28.2414 3.95 9.305h-7.032l13.001 15.835-4.688-10.996h5.967l-1.997-4.839h-2.768l-3.953-9.305z"/><path d="m37.2364 23.0329c.147 0 .488-.182.488-1.864 0-1.679-.341-1.861-.488-1.861h-8.33l1.581 3.725z"/><path d="m32.3831 27.4995 5.597-.001c.148 0 .489-.182.489-1.863 0-1.68-.341-1.862-.489-1.862l-7.178.001z"/></g><path d="m37.2364 32.708h-7.527l1.581 3.724h5.946c.147 0 .488-.181.488-1.861 0-1.681-.341-1.863-.488-1.863" fill="#fefefe"/><path d="m37.98 28.2414h-10.166l1.581 3.725h8.585c.148 0 .489-.183.489-1.862 0-1.681-.341-1.863-.489-1.863" fill="#fefefe"/><g fill="#0093c9"><path d="m37.2364 32.708h-7.527l1.581 3.724h5.946c.147 0 .488-.181.488-1.861 0-1.681-.341-1.863-.488-1.863"/><path d="m37.98 28.2414h-10.166l1.581 3.725h8.585c.148 0 .489-.183.489-1.862 0-1.681-.341-1.863-.489-1.863"/><path d="m26.5933 27.498-1.896-4.468h.904l1.897 4.468 4.026.002-3.478-8.192h-8.681c-.669 0-1.036 0-1.337.97-.362 1.156-.404 3.34-.404 7.591s.042 6.435.404 7.592c.301.969.668.969 1.337.969l7.616.001-3.773-8.934z"/><path d="m79.344 64.4674h58.901v-36.235h-58.901zm3.686-44.873c1.348 0 2.448 1.089 2.448 2.459 0 1.348-1.1 2.448-2.448 2.448-1.359 0-2.459-1.1-2.459-2.448 0-1.359 1.1-2.459 2.459-2.459zm7.363 0c1.35 0 2.447 1.089 2.447 2.459 0 1.348-1.097 2.448-2.447 2.448-1.359 0-2.456-1.1-2.456-2.448 0-1.359 1.097-2.459 2.456-2.459zm47.852-3.687h-58.902c-2.709 0-4.906 2.197-4.906 4.907v43.653c0 2.71 2.197 4.918 4.906 4.918h58.902c2.709 0 4.917-2.208 4.917-4.918v-43.653c0-2.71-2.208-4.907-4.917-4.907z"/></g><path d="m54.222 27.4983c0 14.759-11.965 26.724-26.724 26.724s-26.723-11.965-26.723-26.724 11.964-26.724 26.723-26.724 26.724 11.965 26.724 26.724z" stroke="#0093c9" stroke-width="3.549"/></g></svg>