<svg height="57" viewBox="0 0 65 57" width="65" xmlns="http://www.w3.org/2000/svg"><g fill="#0093c9" fill-rule="evenodd" transform="translate(0 -1)"><path d="m15.7244848 27.2164848-10.65606056 11.0874243v18.7111364c0 .5229545.42840909.9513636.95628788.9513636h12.93598488c.5278788 0 .9562878-.4234849.9562878-.9513636v-28.7024243l-2.983106-1.0961364z"/><path d="m42.0768636 35.9143712h-12.9399242c-.5278788 0-.9503788.4234849-.9503788.9523485v20.1490151c0 .5278788.4225.9553031.9503788.9553031h12.9399242c.5278788 0 .9513637-.4274243.9513637-.9553031v-20.1490151c0-.5288636-.4234849-.9523485-.9513637-.9523485"/><path d="m60.882447 15.3868788-2.3488637-1.9618182-8.5041666 9.275303v34.3150758c0 .5229545.4284091.9513636.9503788.9513636h12.9399242c.5278788 0 .9562879-.4234848.9562879-.9513636v-41.3094697c-.0551515.0285606-.104394.0699242-.1595455.0935606-.4934091.2590152-1.0498485.3988636-1.6082576.3988636-.8105303 0-1.6023484-.2885606-2.2257575-.8115151"/><path d="m1.90765152 36.8753864c.50227272 0 1.00060606-.1989394 1.37878787-.5879546l12.17371211-12.6700757 21.3091667 7.8413636c.727803.2639394 1.5432576.0699242 2.0662121-.5022727l19.6231061-21.404697 4.5893939 3.8389394c.2245455.1831818.5377273.2176515.7967424.084697.26-.1359091.4136364-.4136364.3890152-.7081061l-.9956818-11.12189394c-.0344697-.39886363-.3890152-.69234848-.786894-.65787878l-11.1287879.99568181c-.2875757.02560606-.5318181.22454546-.6214394.50325758-.0295454.08962121-.0393939.18318182-.0295454.27871212.0137879.18909091.1043939.36340909.2540909.4875l4.5992424 3.84878788-18.635303 20.32924243-21.2796212-7.8265909c-.7130303-.26-1.5097727-.0797727-2.0366667.467803l-13.03939392 13.572197c-.73272727.7622727-.70712121 1.9667424.05416667 2.6984848.36931818.3545455.84204545.5328031 1.31969697.5328031"/></g></svg>