<svg xmlns="http://www.w3.org/2000/svg" role="img" viewBox="0 0 165 50" height="48" fill="none" aria-hidden="true" preserveAspectRatio="xMidYMid meet" focusable="false">
  <path d="M2.2 0L6.6 10.6H1L2.8 15.2H14.2L2.2 0Z" fill="rgb(255, 220, 40)"></path>
  <path d="M17.1 38.5L15.2 33.9H12.6L7.20001 20.8H4.90001L10.3 33.9H3.70001L15.9 49.1L11.5 38.5H17.1Z" fill="rgb(255, 220, 40)"></path>
  <path d="M18.6 29.2H11.5L13 32.8H18.6C18.7 32.8 19.1 32.6 19.1 31C19 29.4 18.7 29.2 18.6 29.2Z" fill="rgb(35, 35, 45)"></path>
  <path d="M19.3 24.9H9.79999L11.3 28.5H19.3C19.4 28.5 19.8 28.3 19.8 26.7C19.7 25.1 19.4 24.9 19.3 24.9Z" fill="rgb(35, 35, 45)"></path>
  <path d="M18.6 19.9C18.7 19.9 19.1 19.7 19.1 18.1C19.1 16.5 18.8 16.3 18.6 16.3H10.8L12.3 19.9H18.6Z" fill="rgb(35, 35, 45)"></path>
  <path d="M14 24.2H19.2C19.3 24.2 19.7 24 19.7 22.4C19.7 20.8 19.4 20.6 19.2 20.6H12.5L14 24.2Z" fill="rgb(35, 35, 45)"></path>
  <path d="M18.6 29.2H11.5L13 32.8H18.6C18.7 32.8 19.1 32.6 19.1 31C19 29.4 18.7 29.2 18.6 29.2Z" fill="rgb(35, 35, 45)"></path>
  <path d="M19.3 24.9H9.79999L11.3 28.5H19.3C19.4 28.5 19.8 28.3 19.8 26.7C19.7 25.1 19.4 24.9 19.3 24.9Z" fill="rgb(35, 35, 45)"></path>
  <path d="M5.4 24.2L3.7 19.9H7.6L9.4 24.2H13.1L9.8 16.3H1.7C1.1 16.3 0.7 16.3 0.4 17.2C0.0999996 18.3 0 20.4 0 24.5C0 28.6 -3.8743e-07 30.7 0.4 31.8C0.7 32.7 1 32.7 1.7 32.7H8.8L5.4 24.2Z" fill="rgb(35, 35, 45)"></path>
  <path d="M49 16.35H44.6L38.2 32.65H42.7L43.8 29.85H49.6L50.7 32.65H55.2L49 16.35ZM45 26.65L46.7 21.45L48.4 26.65H45Z" fill="rgb(35, 35, 45)"></path>
  <path d="M32.3 16.35H25.8V32.75H30.2V27.15H32.4C36.1 27.15 38.2 25.55 38.2 21.75C38.2 17.95 35.8 16.35 32.3 16.35ZM30.8 23.95H30.3V19.95H30.8C32.4 19.95 33.8 19.95 33.8 21.95C33.8 23.95 32.3 23.95 30.8 23.95Z" fill="rgb(35, 35, 45)"></path>
  <path d="M114.9 26.25L119.2 26.35V22.75H114.9V19.95H120.8V16.35H110.5V32.65H120.8V28.65H114.9V26.25Z" fill="rgb(35, 35, 45)"></path>
  <path d="M76.6 20.75H80.5L80.6 32.65H84.9V20.75H88.9V16.35H76.6V20.75Z" fill="rgb(35, 35, 45)"></path>
  <path d="M102.5 22.75H96.5V16.35H92.1V32.65H96.5V26.25H102.5V32.65H106.9V16.35H102.5V22.75Z" fill="rgb(35, 35, 45)"></path>
  <path d="M131.4 20.75C133.5 20.75 135.2 22.45 135.2 24.55C135.2 26.65 133.5 28.35 131.4 28.35C129.3 28.35 127.6 26.65 127.6 24.55C127.6 22.45 129.3 20.75 131.4 20.75ZM131.4 16.35C126.9 16.35 123.2 20.05 123.2 24.55C123.2 29.05 126.9 32.75 131.4 32.75C135.9 32.75 139.6 29.05 139.6 24.55C139.6 20.05 135.9 16.35 131.4 16.35Z" fill="rgb(35, 35, 45)"></path>
  <path d="M153.9 25.45L146.9 16.35H142.8V32.65H147.2V23.55L153.9 32.65H158.3V16.35H154L153.9 25.45Z" fill="rgb(35, 35, 45)"></path>
  <path d="M69 25.45L61.9 16.35H57.8V32.65H62.2V23.55L68.9 32.65H73.4V16.35H69V25.45Z" fill="rgb(35, 35, 45)"></path>
  <path d="M161.5 16.65H161V16.35H162.5V16.65H162V18.25H161.6V16.65H161.5ZM163.6 18.25L163.1 16.75V18.25H162.7V16.35H163.3L163.8 17.85L164.3 16.35H164.9V18.25H164.5V16.75L164 18.25H163.6Z" fill="rgb(35, 35, 45)"></path>
</svg>
