<svg viewbox="0 0 88 125" version="1.1" xmlns="http://www.w3.org/2000/svg" xmlns:xlink="http://www.w3.org/1999/xlink">
  <defs>
    <rect x="0" y="0" width="88" height="125"></rect>
  </defs>
  <g id="Page-1" stroke="none" stroke-width="1" fill="none" fill-rule="evenodd">
    <g id="user-dash-copy-22" transform="translate(-247.000000, -224.000000)">
      <g id="GUIDE-GRAPHIC" transform="translate(247.000000, 224.000000)">
        <path id="Fill-2" d="M26.5449613,117 L10.4548518,117 C4.70464591,117 2.8270615e-13,112.229406 2.8270615e-13,106.398406 L2.8270615e-13,10.601594 C2.8270615e-13,4.77078362 4.70464591,0 10.4550387,0 L26.5449613,0 C32.2951672,0 37,4.77078362 37,10.601594 L37,106.398406 C37,112.229406 32.2951672,117 26.5449613,117 Z" fill="#313945"></path>
        <polygon id="Fill-4" fill="#313945" points="11 103 88 103 88 0 11 0"></polygon>
        <g id="Group-4" transform="translate(34.157783, 40.799574)">
          <path id="Fill-1" d="M2.84221748,0.200426439 L8.84221748,12.2004264 L1.84221748,12.2004264 L3.84221748,17.2004264 L17.8422175,17.2004264 L2.84221748,0.200426439 L2.84221748,0.200426439 Z M20.8422175,44.2004264 L18.8422175,38.2004264 L15.8422175,38.2004264 L15.8422175,38.2004264 L10.8422175,28.2004264 L8.84221748,28.2004264 L12.8422175,38.2004264 L4.84221748,38.2004264 L19.8422175,56.2004264 L13.8422175,44.2004264 L20.8422175,44.2004264 L20.8422175,44.2004264 Z" fill="#A4BBC1"></path>
          <path id="Path" d="M15.8422175,27.2004264 L11.8422175,27.2004264 L9.84221748,22.2004264 L7.84221748,22.2004264 L9.84221748,27.2004264 L6.84221748,27.2004264 L10.8422175,37.2004264 L2.84221748,37.2004264 C2.10786467,37.2004264 1.71690944,37.2004264 1.84221748,36.2004264 C1.01309209,34.9025457 0.842217484,32.2954403 0.842217484,27.2004264 C0.842217484,23.1056617 1.01309209,20.4990547 1.84221748,19.2004264 C1.71690944,18.2004264 2.10786467,18.2004264 2.84221748,18.2004264 L11.8422175,18.2004264 L15.8422175,27.2004264 Z M22.8422175,33.2004264 C23.4570045,33.2004264 23.8422175,33.3960315 23.8422175,35.2004264 C23.8422175,37.0065546 23.4570045,37.2004264 22.8422175,37.2004264 L16.8422175,37.2004264 L14.8422175,33.2004264 L22.8422175,33.2004264 Z M22.8422175,22.2004264 L15.8422175,22.2004264 L13.8422175,18.2004264 L22.8422175,18.2004264 C23.4539748,18.2004264 23.8422175,18.3952405 23.8422175,20.2004264 C23.8422175,22.0038796 23.4539748,22.2004264 22.8422175,22.2004264 Z M22.8422175,28.2004264 C23.4562465,28.2004264 23.8422175,28.3953249 23.8422175,30.2004264 C23.8422175,32.0065186 23.4562465,32.2004264 22.8422175,32.2004264 L13.8422175,32.2004264 L11.8422175,28.2004264 L22.8422175,28.2004264 Z M22.8422175,23.2004264 C23.4802354,23.2004264 23.8422175,23.3935914 23.8422175,25.2004264 C23.8422175,27.004785 23.4802354,27.2004264 22.8422175,27.2004264 L17.8422175,27.2004264 L15.8422175,23.2004264 L22.8422175,23.2004264 Z" fill="#FFFFFF"></path>
        </g>
        <polygon id="Fill-6" fill="#313945" points="79 103 88 103 88 0 79 0"></polygon>
        <path id="Fill-7" d="M88,103 L8.70563356,103 C3.91761986,103 2.92821323e-14,106.472184 2.92821323e-14,110.716127 L2.92821323e-14,111.283692 C2.92821323e-14,115.527634 3.91761986,119 8.70563356,119 L88,119 L88,103 Z" fill="#6E818E"></path>
        <path id="Fill-8" d="M8.62363967,117 C4.97142472,117 2,114.436248 2,111.284882 L2,110.715118 C2,107.563752 4.97142472,105 8.62363967,105 L86,105 L86,117 L8.62363967,117 Z" fill="#EFEFEF"></path>
        <path id="Fill-9" d="M9.20598777,113 L76.7940122,113 C76.9074276,113 77,112.857555 77,112.683679 L77,112.316321 C77,112.142157 76.9074276,112 76.7942,112 L9.20598777,112 C9.09257244,112 9,112.142445 9,112.316321 L9,112.683679 C9,112.857555 9.09257244,113 9.20598777,113" fill="#C9C9C9"></path>
        <path id="Fill-9-Copy" d="M9.20598777,110 L76.7940122,110 C76.9074276,110 77,109.857555 77,109.683679 L77,109.316321 C77,109.142157 76.9074276,109 76.7942,109 L9.20598777,109 C9.09257244,109 9,109.142445 9,109.316321 L9,109.683679 C9,109.857555 9.09257244,110 9.20598777,110" fill="#C9C9C9"></path>
        <polygon id="Fill-11" fill="#A4BBC1" points="20 125 16 121 11 125 12 110 19 110"></polygon>
        <polygon id="Fill-12" fill="#6E818E" points="19 34 72 34 72 31 19 31"></polygon>
        <path id="GUIDE" d="M26.5722858,21.8448275 L31.0131574,21.8448275 L31.0131574,27.9035631 C30.2867658,28.1401906 29.5892753,28.3080286 28.9206649,28.4070819 C28.2520545,28.5061353 27.529801,28.5556613 26.7538828,28.5556613 C24.926898,28.5556613 23.5181597,28.015003 22.5276258,26.9336701 C21.5370918,25.8523372 21.0418323,24.3266627 21.0418323,22.3566008 C21.0418323,20.4140537 21.600375,18.893882 22.7174772,17.7960402 C23.8345793,16.6981985 25.3726353,16.1492858 27.3316913,16.1492858 C28.5918706,16.1492858 29.7859964,16.3914127 30.9141045,16.8756737 L30.2207342,18.518301 C29.2412062,18.0670577 28.2616929,17.8414395 27.2821649,17.8414395 C25.9944708,17.8414395 24.9764373,18.2459014 24.2280339,19.0548375 C23.4796304,19.8637735 23.1054344,20.9698532 23.1054344,22.3731096 C23.1054344,23.8479045 23.442486,24.9691171 24.1165994,25.7367809 C24.7907127,26.5044447 25.760596,26.8882708 27.0262782,26.8882708 C27.6646223,26.8882708 28.3469799,26.808479 29.0733715,26.648893 L29.0733715,23.5369811 L26.5722858,23.5369811 L26.5722858,21.8448275 Z M43.3700064,16.3226284 L43.3700064,24.1312985 C43.3700064,25.0227791 43.1787812,25.8028128 42.796325,26.4714232 C42.4138689,27.1400336 41.8608291,27.6545533 41.137189,28.0149976 C40.4135489,28.3754419 39.5482205,28.5556613 38.5411776,28.5556613 C37.0443708,28.5556613 35.8805109,28.1594537 35.049563,27.3670265 C34.2186151,26.5745994 33.8031473,25.4850284 33.8031473,24.0982809 L33.8031473,16.3226284 L35.7842053,16.3226284 L35.7842053,23.9579559 C35.7842053,24.9539928 36.0153264,25.6886278 36.4775756,26.1618829 C36.9398248,26.635138 37.6496968,26.871762 38.6072129,26.871762 C40.4672155,26.871762 41.3972029,25.8950002 41.3972029,23.9414471 L41.3972029,16.3226284 L43.3700064,16.3226284 Z M46.4571551,28.3905731 L46.4571551,16.3226284 L48.4299586,16.3226284 L48.4299586,28.3905731 L46.4571551,28.3905731 Z M61.4306515,22.241039 C61.4306515,24.2331128 60.8776117,25.7560359 59.7715154,26.809854 C58.6654192,27.863672 57.0723344,28.3905731 54.9922131,28.3905731 L51.6161602,28.3905731 L51.6161602,16.3226284 L55.3471527,16.3226284 C57.2676879,16.3226284 58.7617208,16.8398995 59.8292963,17.8744571 C60.8968718,18.9090148 61.4306515,20.3645275 61.4306515,22.241039 Z M59.3505406,22.3070743 C59.3505406,19.418017 57.9995827,17.97351 55.2976262,17.97351 L53.5889637,17.97351 L53.5889637,26.7314371 L54.9922131,26.7314371 C57.8977793,26.7314371 59.3505406,25.2566642 59.3505406,22.3070743 Z M70.8489312,28.3905731 L64.0225357,28.3905731 L64.0225357,16.3226284 L70.8489312,16.3226284 L70.8489312,17.9900188 L65.9953392,17.9900188 L65.9953392,21.2752733 L70.5435181,21.2752733 L70.5435181,22.9261549 L65.9953392,22.9261549 L65.9953392,26.7149283 L70.8489312,26.7149283 L70.8489312,28.3905731 Z" fill="#FFFFFF"></path>
      </g>
    </g>
  </g>
</svg>
