<svg xmlns="http://www.w3.org/2000/svg" viewBox="0 0 35.69 35.69"><defs><style>.cls-1{fill:#0093c9;}</style></defs><title>i-git</title><g id="Layer_2" data-name="Layer 2"><g id="Layer_1-2" data-name="Layer 1"><path class="cls-1" d="M35,16.26,19.43.67a2.3,2.3,0,0,0-3.25,0L12.95,3.91,17.05,8a2.73,2.73,0,0,1,3.46,3.48l4,4A2.73,2.73,0,1,1,22.83,17L19.14,13.3V23a2.73,2.73,0,1,1-2.25-.08v-9.8a2.7,2.7,0,0,1-.9-.6,2.73,2.73,0,0,1-.59-3l-4-4L.67,16.18a2.3,2.3,0,0,0,0,3.25L16.26,35a2.3,2.3,0,0,0,3.25,0L35,19.51A2.3,2.3,0,0,0,35,16.26Z"/></g></g></svg>