<?xml version="1.0" encoding="UTF-8"?>
<svg width="129px" height="71px" viewBox="0 0 129 71" version="1.1" xmlns="http://www.w3.org/2000/svg" xmlns:xlink="http://www.w3.org/1999/xlink">
    <!-- Generator: Sketch 41.2 (35397) - https://www.sketchapp.com -->
    <title>icon-git</title>
    <desc>Created with Sketch.</desc>
    <defs></defs>
    <g id="Updated-HOME-+-icons" stroke="none" stroke-width="1" fill="none" fill-rule="evenodd">
        <g id="Artboard" transform="translate(-124.000000, -737.000000)">
            <g id="icon-git" transform="translate(124.000000, 737.000000)">
                <path d="M7.00217521,3.03308451 C8.09982072,3.03308451 8.99667742,3.92922311 8.99667742,5.05649249 C8.99667742,6.16483888 8.09982072,7.07043898 7.00217521,7.07043898 C5.89515956,7.07043898 4.99830286,6.16483888 4.99830286,5.05649249 C4.99830286,3.93868461 5.89515956,3.03308451 7.00217521,3.03308451 Z M13.001745,3.03308451 C14.1020676,3.03308451 14.9962472,3.92922311 14.9962472,5.05649249 C14.9962472,6.16483888 14.1020676,7.07043898 13.001745,7.07043898 C11.8947293,7.07043898 11.0005498,6.16483888 11.0005498,5.05649249 C11.0005498,3.93868461 11.8947293,3.03308451 13.001745,3.03308451 Z M8.57100514,39.953184 L3.99837457,39.953184 L3.99837457,10.1400178 L51.9922553,10.1400178 L51.9922553,13.4474856 L56,13.4474856 L56,4.03600283 C56,1.80714527 54.2009322,0 51.9922553,0 L3.99837457,0 C1.78969762,0 0,1.80714527 0,4.03600283 L0,39.953184 C0,42.1833932 1.78969762,44 3.99837457,44 L8.57100514,44 L8.57100514,39.953184 Z" id="Fill-1" fill="#0093C9"></path>
                <path d="M16.0021752,16.0330845 C17.0998207,16.0330845 17.9966774,16.9292231 17.9966774,18.0564925 C17.9966774,19.1648389 17.0998207,20.070439 16.0021752,20.070439 C14.8951596,20.070439 13.9983029,19.1648389 13.9983029,18.0564925 C13.9983029,16.9386846 14.8951596,16.0330845 16.0021752,16.0330845 L16.0021752,16.0330845 Z M22.001745,16.0330845 C23.1020676,16.0330845 23.9962472,16.9292231 23.9962472,18.0564925 C23.9962472,19.1648389 23.1020676,20.070439 22.001745,20.070439 C20.8947293,20.070439 20.0005498,19.1648389 20.0005498,18.0564925 C20.0005498,16.9386846 20.8947293,16.0330845 22.001745,16.0330845 L22.001745,16.0330845 Z M17.5710051,52.953184 L12.9983746,52.953184 L12.9983746,23.1400178 L60.9922553,23.1400178 L60.9922553,26.4474856 L65,26.4474856 L65,17.0360028 C65,14.8071453 63.2009322,13 60.9922553,13 L12.9983746,13 C10.7896976,13 9,14.8071453 9,17.0360028 L9,52.953184 C9,55.1833932 10.7896976,57 12.9983746,57 L17.5710051,57 L17.5710051,52.953184 Z" id="Fill-3" fill="#0093C9"></path>
                <path d="M20.9983746,66.953184 L68.9922553,66.953184 L68.9922553,37.1400178 L20.9983746,37.1400178 L20.9983746,66.953184 Z M24.0021752,30.0330845 C25.1011593,30.0330845 25.9966774,30.9292231 25.9966774,32.0564925 C25.9966774,33.1648389 25.1011593,34.070439 24.0021752,34.070439 C22.8951596,34.070439 21.9996414,33.1648389 21.9996414,32.0564925 C21.9996414,30.9386846 22.8951596,30.0330845 24.0021752,30.0330845 L24.0021752,30.0330845 Z M30.001745,30.0330845 C31.1020676,30.0330845 31.9962472,30.9292231 31.9962472,32.0564925 C31.9962472,33.1648389 31.1020676,34.070439 30.001745,34.070439 C28.8947293,34.070439 28.0005498,33.1648389 28.0005498,32.0564925 C28.0005498,30.9386846 28.8947293,30.0330845 30.001745,30.0330845 L30.001745,30.0330845 Z M68.9922553,27 L20.9983746,27 C18.7910362,27 17,28.8071453 17,31.0373545 L17,66.953184 C17,69.1833932 18.7910362,71 20.9983746,71 L68.9922553,71 C71.2009322,71 73,69.1833932 73,66.953184 L73,31.0373545 C73,28.8071453 71.2009322,27 68.9922553,27 L68.9922553,27 Z" id="Fill-5" fill="#0093C9"></path>
                <path d="M51,52 C51,55.8661033 47.8663975,59 44.0006572,59 C40.1349169,59 37,55.8661033 37,52 C37,48.1338967 40.1349169,45 44.0006572,45 C47.8663975,45 51,48.1338967 51,52" id="Fill-7" fill="#0093C9"></path>
                <path d="M129,53 C129,56.8661033 125.866398,60 122.000657,60 C118.134917,60 115,56.8661033 115,53 C115,49.1338967 118.134917,46 122.000657,46 C125.866398,46 129,49.1338967 129,53" id="Fill-8" fill="#0093C9"></path>
                <path d="M98,11 C98,14.8661033 94.8663975,18 91.0006572,18 C87.1349169,18 84,14.8661033 84,11 C84,7.13389671 87.1349169,4 91.0006572,4 C94.8663975,4 98,7.13389671 98,11" id="Fill-9" fill="#0093C9"></path>
                <path d="M44,52 L122,52" id="Stroke-10" stroke="#0093C9" stroke-width="3"></path>
                <path d="M90,51 L90.441,13" id="Stroke-11" stroke="#0093C9" stroke-width="3"></path>
            </g>
        </g>
    </g>
</svg>