<?xml version="1.0" encoding="utf-8"?>
<!-- Generator: Adobe Illustrator 17.0.0, SVG Export Plug-In . SVG Version: 6.00 Build 0)  -->
<!DOCTYPE svg PUBLIC "-//W3C//DTD SVG 1.1//EN" "http://www.w3.org/Graphics/SVG/1.1/DTD/svg11.dtd">
<svg version="1.1" id="Layer_1" xmlns="http://www.w3.org/2000/svg" xmlns:xlink="http://www.w3.org/1999/xlink" x="0px" y="0px"
	 width="100px" height="100px" viewBox="0 0 100 100" enable-background="new 0 0 100 100" xml:space="preserve">
<path fill="#EECF1E" d="M50.187,99.369c-27.182,0-49.296-22.113-49.296-49.295S23.005,0.777,50.187,0.777
	s49.296,22.114,49.296,49.296S77.368,99.369,50.187,99.369z M50.187,5.308c-24.684,0-44.766,20.082-44.766,44.766
	S25.502,94.84,50.187,94.84c24.685,0,44.767-20.082,44.767-44.766S74.871,5.308,50.187,5.308z"/>
<rect x="21.185" y="26.589" fill="none" width="58.002" height="47.114"/>
<path fill="#FFFFFF" d="M44.193,44.539c-0.045,0-0.117,0.011-0.211,0.034l-6.949,1.72l3-8.124c0.06-0.117,0.09-0.222,0.09-0.316
	c0-0.2-0.079-0.369-0.23-0.516s-0.339-0.222-0.561-0.222h-5.756c-0.188,0-0.35,0.053-0.489,0.158
	c-0.143,0.105-0.233,0.241-0.282,0.407l-3.527,14.475c-0.056,0.279,0.019,0.508,0.23,0.685c0.151,0.128,0.331,0.192,0.542,0.192
	c0.094,0,0.166-0.008,0.211-0.019l7.126-1.773l-3.46,14.178c-0.045,0.188-0.019,0.365,0.079,0.527
	c0.102,0.166,0.248,0.275,0.448,0.335c0.117,0.023,0.2,0.034,0.245,0.034c0.343,0,0.587-0.147,0.738-0.437l9.476-20.303
	c0.128-0.282,0.087-0.538-0.124-0.772C44.614,44.625,44.415,44.539,44.193,44.539"/>
<rect x="1.367" y="1.235" fill="none" width="97.579" height="97.579"/>
<path fill="#44515D" d="M46.116,31.844h34.758v-5.149H46.116V31.844z M71.864,52.442h9.011v-5.149h-9.011V52.442z M57.704,42.141
	c-0.698,0-1.301,0.258-1.81,0.766c-0.512,0.508-0.766,1.112-0.766,1.81v10.297c0,0.698,0.254,1.301,0.766,1.81
	c0.508,0.512,1.112,0.766,1.81,0.766h10.297c0.698,0,1.301-0.254,1.81-0.766c0.508-0.508,0.766-1.112,0.766-1.81V44.717
	c0-0.698-0.258-1.301-0.766-1.81c-0.508-0.508-1.112-0.766-1.81-0.766H57.704z M31.957,21.546c-0.698,0-1.301,0.254-1.81,0.763
	c-0.508,0.512-0.766,1.115-0.766,1.81V34.42c0,0.694,0.258,1.298,0.766,1.81c0.508,0.508,1.112,0.763,1.81,0.763h10.297
	c0.698,0,1.301-0.254,1.81-0.763c0.512-0.512,0.766-1.115,0.766-1.81V24.119c0-0.694-0.254-1.298-0.766-1.81
	c-0.508-0.508-1.112-0.763-1.81-0.763H31.957z M51.265,73.037h29.61v-5.149h-29.61V73.037z M19.083,31.844h9.011v-5.149h-9.011
	V31.844z M19.083,52.442h34.758v-5.149H19.083V52.442z M37.105,62.739c-0.698,0-1.301,0.254-1.81,0.763
	c-0.508,0.512-0.763,1.115-0.763,1.81v10.301c0,0.694,0.254,1.298,0.763,1.81c0.508,0.508,1.112,0.763,1.81,0.763h10.297
	c0.698,0,1.301-0.254,1.814-0.763c0.508-0.512,0.763-1.115,0.763-1.81V65.312c0-0.694-0.254-1.298-0.763-1.81
	c-0.512-0.508-1.115-0.763-1.814-0.763H37.105z M19.083,73.037h14.16v-5.149h-14.16V73.037z"/>
<rect x="0.807" y="0.694" fill="none" width="98.344" height="98.344"/>
</svg>
