<?xml version="1.0" encoding="utf-8"?>
<!-- Generator: Adobe Illustrator 17.0.0, SVG Export Plug-In . SVG Version: 6.00 Build 0)  -->
<!DOCTYPE svg PUBLIC "-//W3C//DTD SVG 1.1//EN" "http://www.w3.org/Graphics/SVG/1.1/DTD/svg11.dtd">
<svg version="1.1" id="Layer_1" xmlns="http://www.w3.org/2000/svg" xmlns:xlink="http://www.w3.org/1999/xlink" x="0px" y="0px"
	 width="100px" height="100px" viewBox="0 0 100 100" enable-background="new 0 0 100 100" xml:space="preserve">
<path fill="#EECF1E" d="M50.187,99.369c-27.182,0-49.296-22.113-49.296-49.295S23.005,0.777,50.187,0.777
	s49.296,22.114,49.296,49.296S77.368,99.369,50.187,99.369z M50.187,5.308c-24.684,0-44.766,20.082-44.766,44.766
	S25.502,94.84,50.187,94.84c24.685,0,44.767-20.082,44.767-44.766S74.871,5.308,50.187,5.308z"/>
<rect x="1.367" y="1.235" fill="none" width="97.579" height="97.579"/>
<g>
	<polygon fill="#45525C" points="22.38,40.29 22.38,60.632 33.042,60.632 33.042,51.538 33.042,48.832 33.042,40.29 	"/>
	<polygon fill="#45525C" points="58.77,17.314 58.77,24.417 40.998,24.417 40.998,48.833 33.042,48.833 33.042,51.539 
		40.998,51.539 40.998,75.963 58.77,75.963 58.77,83.659 69.436,83.659 69.436,63.321 58.77,63.321 58.77,73.246 43.704,73.246 
		43.704,51.539 58.77,51.539 58.77,60.634 69.436,60.634 69.436,40.291 58.77,40.291 58.77,48.833 43.704,48.833 43.704,27.126 
		58.77,27.126 58.77,37.657 69.436,37.657 69.436,17.314 	"/>
	<rect x="58.77" y="17.323" fill="#45525C" width="10.665" height="20.343"/>
	<rect x="58.77" y="40.315" fill="#45525C" width="10.665" height="20.343"/>
	<rect x="58.77" y="63.318" fill="#45525C" width="10.665" height="20.343"/>
</g>
</svg>
