<?xml version="1.0" encoding="UTF-8"?>
<svg width="413px" height="242px" viewBox="0 0 413 242" version="1.1" xmlns="http://www.w3.org/2000/svg" xmlns:xlink="http://www.w3.org/1999/xlink">
    <!-- Generator: Sketch 44 (41411) - http://www.bohemiancoding.com/sketch -->
    <title>Group 18</title>
    <desc>Created with Sketch.</desc>
    <defs>
        <rect id="path-1" x="0" y="0" width="56.851728" height="55.2736842" rx="5"></rect>
        <rect id="path-2" x="0" y="0" width="56.851728" height="55.2736842" rx="5"></rect>
        <rect id="path-3" x="0" y="0" width="56.851728" height="55.2736842" rx="5"></rect>
        <rect id="path-4" x="0" y="0" width="56.851728" height="55.2736842" rx="5"></rect>
        <rect id="path-5" x="0" y="0" width="56.851728" height="55.2736842" rx="5"></rect>
        <rect id="path-6" x="0" y="0" width="56.851728" height="55.2736842" rx="5"></rect>
        <rect id="path-7" x="0" y="0" width="56.851728" height="55.2736842" rx="5"></rect>
        <rect id="path-8" x="0" y="0" width="56.851728" height="55.2736842" rx="5"></rect>
        <rect id="path-9" x="0" y="0" width="56.851728" height="55.2736842" rx="5"></rect>
        <rect id="path-10" x="0" y="0" width="56.851728" height="55.2736842" rx="5"></rect>
        <rect id="path-11" x="0" y="0" width="56.851728" height="55.2736842" rx="5"></rect>
    </defs>
    <g id="Page-1" stroke="none" stroke-width="1" fill="none" fill-rule="evenodd">
        <g id="Artboard-2" transform="translate(-1196.000000, -107.000000)">
            <g id="Group-18" transform="translate(1196.000000, 109.000000)">
                <path d="M206,74.9823205 L206,113" id="Line-Copy-26" stroke="#44525E" stroke-width="2" stroke-linecap="round"></path>
                <polygon id="Triangle-3-Copy-25" fill="#44525E" points="206 119 201 109 211 109"></polygon>
                <path d="M206,74.9823205 L143,113" id="Line-Copy-27" stroke="#44525E" stroke-width="2" stroke-linecap="round"></path>
                <polygon id="Triangle-3-Copy-26" fill="#44525E" transform="translate(141.032332, 115.032332) rotate(51.000000) translate(-141.032332, -115.032332) " points="141.032332 120.032332 136.032332 110.032332 146.032332 110.032332"></polygon>
                <path d="M269,74.9823205 L206,113" id="Line-Copy-28" stroke="#44525E" stroke-width="2" stroke-linecap="round" transform="translate(237.500000, 93.500000) scale(-1, 1) translate(-237.500000, -93.500000) "></path>
                <polygon id="Triangle-3-Copy-27" fill="#44525E" transform="translate(271.032332, 115.032332) scale(-1, 1) rotate(51.000000) translate(-271.032332, -115.032332) " points="271.032332 120.032332 266.032332 110.032332 276.032332 110.032332"></polygon>
                <g id="Group-2" transform="translate(206.000000, 74.000000)">
                    <path d="M132,0.982320538 L0,41" id="Line-Copy-29" stroke="#44525E" stroke-width="2" stroke-linecap="round" transform="translate(66.000000, 20.500000) scale(-1, 1) translate(-66.000000, -20.500000) "></path>
                    <polygon id="Triangle-3-Copy-28" fill="#44525E" transform="translate(134.355434, 42.355434) scale(-1, 1) rotate(64.000000) translate(-134.355434, -42.355434) " points="134.355434 47.3554337 129.355434 37.3554337 139.355434 37.3554337"></polygon>
                </g>
                <g id="Group-2-Copy" transform="translate(135.000000, 99.000000) scale(-1, 1) translate(-135.000000, -99.000000) translate(64.000000, 74.000000)">
                    <path d="M132,0.982320538 L0,41" id="Line-Copy-29" stroke="#44525E" stroke-width="2" stroke-linecap="round" transform="translate(66.000000, 20.500000) scale(-1, 1) translate(-66.000000, -20.500000) "></path>
                    <polygon id="Triangle-3-Copy-28" fill="#44525E" transform="translate(134.355434, 42.355434) scale(-1, 1) rotate(64.000000) translate(-134.355434, -42.355434) " points="134.355434 47.3554337 129.355434 37.3554337 139.355434 37.3554337"></polygon>
                </g>
                <path d="M206.030726,74.1847307 C185.57902,74.1847307 169,57.5767114 169,37.0923653 C169,16.6080192 185.57902,0 206.030726,0 C226.481031,0 243.06005,16.6080192 243.06005,37.0923653 C243.06005,57.5767114 226.481031,74.1847307 206.030726,74.1847307 Z" id="Fill-1-Copy-4" stroke="#EACC2F" stroke-width="3" fill="#FFFFFF"></path>
                <g id="Group-3" transform="translate(36.000000, 122.000000)">
                    <g id="Group-17" transform="translate(71.000000, 0.000000)">
                        <g id="Rectangle-10">
                            <use fill="#FFFFFF" fill-rule="evenodd" xlink:href="#path-1"></use>
                            <rect stroke="#44525E" stroke-width="4" x="2" y="2" width="52.851728" height="51.2736842" rx="5"></rect>
                        </g>
                        <path d="M0,5.7426191 C0,2.97800481 2.23446755,0.736842105 5.00841312,0.736842105 L51.9915869,0.736842105 C54.7576571,0.736842105 57,2.97554607 57,5.7426191 L57,12 L0,12 L0,5.7426191 Z" id="Rectangle-11" fill="#44525E"></path>
                        <circle id="Oval-Copy" fill="#FFFFFF" cx="6" cy="6" r="2"></circle>
                        <circle id="Oval-Copy-3" fill="#FFFFFF" cx="13" cy="6" r="2"></circle>
                        <g id="Group-12-Copy" transform="translate(22.000000, 15.000000)">
                            <path d="M4.65662976,7.19621988 L0.706712044,7.19621988 L2.01246492,10.2303791 L10.0188239,10.2303791 L1.55325379,0 L4.65662976,7.19621988 Z M12.0299519,25.7830525 L10.7226729,22.7472543 L8.88811761,22.7472543 L8.84965925,22.6565156 L6.31354409,16.7775714 L4.83717039,16.7775714 L7.41220175,22.7472543 L2.71600872,22.7472543 L11.1829523,32.9797194 L8.07866071,25.7830525 L12.0299519,25.7830525 L12.0299519,25.7830525 Z" id="Fill-1" fill="#EACC2F"></path>
                            <path d="M9.37894729,16.1800507 L7.05230683,10.7917049 L1.25551008,10.7917049 C0.812877029,10.7917049 0.568691802,10.7917049 0.368355921,11.4177732 C0.130147856,12.1647405 0.0241844921,13.7231764 0.0241844921,16.4686372 C0.0241844921,19.2141077 0.130147856,20.7722581 0.368355921,21.5190679 C0.568691802,22.1448211 0.812877029,22.1448211 1.25551008,22.1448211 L6.51187853,22.1448211 L3.93511607,16.1770181 L6.05672575,16.1770181 L4.76989939,13.1976852 L5.41251494,13.1976852 L6.69744315,16.1800507 L9.37894729,16.1800507 Z M13.1995854,19.7395891 L8.23663295,19.7395891 L9.27484169,22.1448211 L13.1995854,22.1448211 C13.2973907,22.1448211 13.5230891,22.0280573 13.5230891,20.9434309 C13.5230891,19.8569831 13.2973907,19.7395891 13.1995854,19.7395891 L13.1995854,19.7395891 Z M13.1995854,13.1976852 C13.2973907,13.1976852 13.5230891,13.0793854 13.5230891,11.9947591 C13.5230891,10.9087838 13.2973907,10.7917049 13.1995854,10.7917049 L7.69495267,10.7917049 L8.73316142,13.1976852 L13.1995854,13.1976852 L13.1995854,13.1976852 Z M13.6591301,16.7572236 L6.94824162,16.7572236 L7.98740954,19.1630463 L13.6591301,19.1630463 C13.7566427,19.1630463 13.9829469,19.0456622 13.9829469,17.9604353 C13.9829469,16.8749228 13.7566427,16.7572236 13.6591301,16.7572236 L13.6591301,16.7572236 Z M13.6591301,13.7748286 L8.98270792,13.7748286 L10.0215527,16.1800507 L13.6591301,16.1800507 C13.7566427,16.1800507 13.9829469,16.0620758 13.9829469,14.9768489 C13.9829469,13.8922127 13.7566427,13.7748286 13.6591301,13.7748286 L13.6591301,13.7748286 Z" id="Fill-2" fill="#44525E"></path>
                        </g>
                    </g>
                    <g id="Group-17">
                        <g id="Rectangle-10">
                            <use fill="#FFFFFF" fill-rule="evenodd" xlink:href="#path-2"></use>
                            <rect stroke="#44525E" stroke-width="4" x="2" y="2" width="52.851728" height="51.2736842" rx="5"></rect>
                        </g>
                        <path d="M0,5.7426191 C0,2.97800481 2.23446755,0.736842105 5.00841312,0.736842105 L51.9915869,0.736842105 C54.7576571,0.736842105 57,2.97554607 57,5.7426191 L57,12 L0,12 L0,5.7426191 Z" id="Rectangle-11" fill="#44525E"></path>
                        <circle id="Oval-Copy" fill="#FFFFFF" cx="6" cy="6" r="2"></circle>
                        <circle id="Oval-Copy-3" fill="#FFFFFF" cx="13" cy="6" r="2"></circle>
                        <g id="Group-12-Copy" transform="translate(22.000000, 15.000000)">
                            <path d="M4.65662976,7.19621988 L0.706712044,7.19621988 L2.01246492,10.2303791 L10.0188239,10.2303791 L1.55325379,0 L4.65662976,7.19621988 Z M12.0299519,25.7830525 L10.7226729,22.7472543 L8.88811761,22.7472543 L8.84965925,22.6565156 L6.31354409,16.7775714 L4.83717039,16.7775714 L7.41220175,22.7472543 L2.71600872,22.7472543 L11.1829523,32.9797194 L8.07866071,25.7830525 L12.0299519,25.7830525 L12.0299519,25.7830525 Z" id="Fill-1" fill="#EACC2F"></path>
                            <path d="M9.37894729,16.1800507 L7.05230683,10.7917049 L1.25551008,10.7917049 C0.812877029,10.7917049 0.568691802,10.7917049 0.368355921,11.4177732 C0.130147856,12.1647405 0.0241844921,13.7231764 0.0241844921,16.4686372 C0.0241844921,19.2141077 0.130147856,20.7722581 0.368355921,21.5190679 C0.568691802,22.1448211 0.812877029,22.1448211 1.25551008,22.1448211 L6.51187853,22.1448211 L3.93511607,16.1770181 L6.05672575,16.1770181 L4.76989939,13.1976852 L5.41251494,13.1976852 L6.69744315,16.1800507 L9.37894729,16.1800507 Z M13.1995854,19.7395891 L8.23663295,19.7395891 L9.27484169,22.1448211 L13.1995854,22.1448211 C13.2973907,22.1448211 13.5230891,22.0280573 13.5230891,20.9434309 C13.5230891,19.8569831 13.2973907,19.7395891 13.1995854,19.7395891 L13.1995854,19.7395891 Z M13.1995854,13.1976852 C13.2973907,13.1976852 13.5230891,13.0793854 13.5230891,11.9947591 C13.5230891,10.9087838 13.2973907,10.7917049 13.1995854,10.7917049 L7.69495267,10.7917049 L8.73316142,13.1976852 L13.1995854,13.1976852 L13.1995854,13.1976852 Z M13.6591301,16.7572236 L6.94824162,16.7572236 L7.98740954,19.1630463 L13.6591301,19.1630463 C13.7566427,19.1630463 13.9829469,19.0456622 13.9829469,17.9604353 C13.9829469,16.8749228 13.7566427,16.7572236 13.6591301,16.7572236 L13.6591301,16.7572236 Z M13.6591301,13.7748286 L8.98270792,13.7748286 L10.0215527,16.1800507 L13.6591301,16.1800507 C13.7566427,16.1800507 13.9829469,16.0620758 13.9829469,14.9768489 C13.9829469,13.8922127 13.7566427,13.7748286 13.6591301,13.7748286 L13.6591301,13.7748286 Z" id="Fill-2" fill="#44525E"></path>
                        </g>
                    </g>
                    <g id="Group-17" transform="translate(142.000000, 0.000000)">
                        <g id="Rectangle-10">
                            <use fill="#FFFFFF" fill-rule="evenodd" xlink:href="#path-3"></use>
                            <rect stroke="#44525E" stroke-width="4" x="2" y="2" width="52.851728" height="51.2736842" rx="5"></rect>
                        </g>
                        <path d="M0,5.7426191 C0,2.97800481 2.23446755,0.736842105 5.00841312,0.736842105 L51.9915869,0.736842105 C54.7576571,0.736842105 57,2.97554607 57,5.7426191 L57,12 L0,12 L0,5.7426191 Z" id="Rectangle-11" fill="#44525E"></path>
                        <circle id="Oval-Copy" fill="#FFFFFF" cx="6" cy="6" r="2"></circle>
                        <circle id="Oval-Copy-3" fill="#FFFFFF" cx="13" cy="6" r="2"></circle>
                        <g id="Group-12-Copy" transform="translate(22.000000, 15.000000)">
                            <path d="M4.65662976,7.19621988 L0.706712044,7.19621988 L2.01246492,10.2303791 L10.0188239,10.2303791 L1.55325379,0 L4.65662976,7.19621988 Z M12.0299519,25.7830525 L10.7226729,22.7472543 L8.88811761,22.7472543 L8.84965925,22.6565156 L6.31354409,16.7775714 L4.83717039,16.7775714 L7.41220175,22.7472543 L2.71600872,22.7472543 L11.1829523,32.9797194 L8.07866071,25.7830525 L12.0299519,25.7830525 L12.0299519,25.7830525 Z" id="Fill-1" fill="#EACC2F"></path>
                            <path d="M9.37894729,16.1800507 L7.05230683,10.7917049 L1.25551008,10.7917049 C0.812877029,10.7917049 0.568691802,10.7917049 0.368355921,11.4177732 C0.130147856,12.1647405 0.0241844921,13.7231764 0.0241844921,16.4686372 C0.0241844921,19.2141077 0.130147856,20.7722581 0.368355921,21.5190679 C0.568691802,22.1448211 0.812877029,22.1448211 1.25551008,22.1448211 L6.51187853,22.1448211 L3.93511607,16.1770181 L6.05672575,16.1770181 L4.76989939,13.1976852 L5.41251494,13.1976852 L6.69744315,16.1800507 L9.37894729,16.1800507 Z M13.1995854,19.7395891 L8.23663295,19.7395891 L9.27484169,22.1448211 L13.1995854,22.1448211 C13.2973907,22.1448211 13.5230891,22.0280573 13.5230891,20.9434309 C13.5230891,19.8569831 13.2973907,19.7395891 13.1995854,19.7395891 L13.1995854,19.7395891 Z M13.1995854,13.1976852 C13.2973907,13.1976852 13.5230891,13.0793854 13.5230891,11.9947591 C13.5230891,10.9087838 13.2973907,10.7917049 13.1995854,10.7917049 L7.69495267,10.7917049 L8.73316142,13.1976852 L13.1995854,13.1976852 L13.1995854,13.1976852 Z M13.6591301,16.7572236 L6.94824162,16.7572236 L7.98740954,19.1630463 L13.6591301,19.1630463 C13.7566427,19.1630463 13.9829469,19.0456622 13.9829469,17.9604353 C13.9829469,16.8749228 13.7566427,16.7572236 13.6591301,16.7572236 L13.6591301,16.7572236 Z M13.6591301,13.7748286 L8.98270792,13.7748286 L10.0215527,16.1800507 L13.6591301,16.1800507 C13.7566427,16.1800507 13.9829469,16.0620758 13.9829469,14.9768489 C13.9829469,13.8922127 13.7566427,13.7748286 13.6591301,13.7748286 L13.6591301,13.7748286 Z" id="Fill-2" fill="#44525E"></path>
                        </g>
                    </g>
                    <g id="Group-17" transform="translate(214.000000, 0.000000)">
                        <g id="Rectangle-10">
                            <use fill="#FFFFFF" fill-rule="evenodd" xlink:href="#path-4"></use>
                            <rect stroke="#44525E" stroke-width="4" x="2" y="2" width="52.851728" height="51.2736842" rx="5"></rect>
                        </g>
                        <path d="M0,5.7426191 C0,2.97800481 2.23446755,0.736842105 5.00841312,0.736842105 L51.9915869,0.736842105 C54.7576571,0.736842105 57,2.97554607 57,5.7426191 L57,12 L0,12 L0,5.7426191 Z" id="Rectangle-11" fill="#44525E"></path>
                        <circle id="Oval-Copy" fill="#FFFFFF" cx="6" cy="6" r="2"></circle>
                        <circle id="Oval-Copy-3" fill="#FFFFFF" cx="13" cy="6" r="2"></circle>
                        <g id="Group-12-Copy" transform="translate(22.000000, 15.000000)">
                            <path d="M4.65662976,7.19621988 L0.706712044,7.19621988 L2.01246492,10.2303791 L10.0188239,10.2303791 L1.55325379,0 L4.65662976,7.19621988 Z M12.0299519,25.7830525 L10.7226729,22.7472543 L8.88811761,22.7472543 L8.84965925,22.6565156 L6.31354409,16.7775714 L4.83717039,16.7775714 L7.41220175,22.7472543 L2.71600872,22.7472543 L11.1829523,32.9797194 L8.07866071,25.7830525 L12.0299519,25.7830525 L12.0299519,25.7830525 Z" id="Fill-1" fill="#EACC2F"></path>
                            <path d="M9.37894729,16.1800507 L7.05230683,10.7917049 L1.25551008,10.7917049 C0.812877029,10.7917049 0.568691802,10.7917049 0.368355921,11.4177732 C0.130147856,12.1647405 0.0241844921,13.7231764 0.0241844921,16.4686372 C0.0241844921,19.2141077 0.130147856,20.7722581 0.368355921,21.5190679 C0.568691802,22.1448211 0.812877029,22.1448211 1.25551008,22.1448211 L6.51187853,22.1448211 L3.93511607,16.1770181 L6.05672575,16.1770181 L4.76989939,13.1976852 L5.41251494,13.1976852 L6.69744315,16.1800507 L9.37894729,16.1800507 Z M13.1995854,19.7395891 L8.23663295,19.7395891 L9.27484169,22.1448211 L13.1995854,22.1448211 C13.2973907,22.1448211 13.5230891,22.0280573 13.5230891,20.9434309 C13.5230891,19.8569831 13.2973907,19.7395891 13.1995854,19.7395891 L13.1995854,19.7395891 Z M13.1995854,13.1976852 C13.2973907,13.1976852 13.5230891,13.0793854 13.5230891,11.9947591 C13.5230891,10.9087838 13.2973907,10.7917049 13.1995854,10.7917049 L7.69495267,10.7917049 L8.73316142,13.1976852 L13.1995854,13.1976852 L13.1995854,13.1976852 Z M13.6591301,16.7572236 L6.94824162,16.7572236 L7.98740954,19.1630463 L13.6591301,19.1630463 C13.7566427,19.1630463 13.9829469,19.0456622 13.9829469,17.9604353 C13.9829469,16.8749228 13.7566427,16.7572236 13.6591301,16.7572236 L13.6591301,16.7572236 Z M13.6591301,13.7748286 L8.98270792,13.7748286 L10.0215527,16.1800507 L13.6591301,16.1800507 C13.7566427,16.1800507 13.9829469,16.0620758 13.9829469,14.9768489 C13.9829469,13.8922127 13.7566427,13.7748286 13.6591301,13.7748286 L13.6591301,13.7748286 Z" id="Fill-2" fill="#44525E"></path>
                        </g>
                    </g>
                    <g id="Group-17" transform="translate(285.000000, 0.000000)">
                        <g id="Rectangle-10">
                            <use fill="#FFFFFF" fill-rule="evenodd" xlink:href="#path-5"></use>
                            <rect stroke="#44525E" stroke-width="4" x="2" y="2" width="52.851728" height="51.2736842" rx="5"></rect>
                        </g>
                        <path d="M0,5.7426191 C0,2.97800481 2.23446755,0.736842105 5.00841312,0.736842105 L51.9915869,0.736842105 C54.7576571,0.736842105 57,2.97554607 57,5.7426191 L57,12 L0,12 L0,5.7426191 Z" id="Rectangle-11" fill="#44525E"></path>
                        <circle id="Oval-Copy" fill="#FFFFFF" cx="6" cy="6" r="2"></circle>
                        <circle id="Oval-Copy-3" fill="#FFFFFF" cx="13" cy="6" r="2"></circle>
                        <g id="Group-12-Copy" transform="translate(22.000000, 15.000000)">
                            <path d="M4.65662976,7.19621988 L0.706712044,7.19621988 L2.01246492,10.2303791 L10.0188239,10.2303791 L1.55325379,0 L4.65662976,7.19621988 Z M12.0299519,25.7830525 L10.7226729,22.7472543 L8.88811761,22.7472543 L8.84965925,22.6565156 L6.31354409,16.7775714 L4.83717039,16.7775714 L7.41220175,22.7472543 L2.71600872,22.7472543 L11.1829523,32.9797194 L8.07866071,25.7830525 L12.0299519,25.7830525 L12.0299519,25.7830525 Z" id="Fill-1" fill="#EACC2F"></path>
                            <path d="M9.37894729,16.1800507 L7.05230683,10.7917049 L1.25551008,10.7917049 C0.812877029,10.7917049 0.568691802,10.7917049 0.368355921,11.4177732 C0.130147856,12.1647405 0.0241844921,13.7231764 0.0241844921,16.4686372 C0.0241844921,19.2141077 0.130147856,20.7722581 0.368355921,21.5190679 C0.568691802,22.1448211 0.812877029,22.1448211 1.25551008,22.1448211 L6.51187853,22.1448211 L3.93511607,16.1770181 L6.05672575,16.1770181 L4.76989939,13.1976852 L5.41251494,13.1976852 L6.69744315,16.1800507 L9.37894729,16.1800507 Z M13.1995854,19.7395891 L8.23663295,19.7395891 L9.27484169,22.1448211 L13.1995854,22.1448211 C13.2973907,22.1448211 13.5230891,22.0280573 13.5230891,20.9434309 C13.5230891,19.8569831 13.2973907,19.7395891 13.1995854,19.7395891 L13.1995854,19.7395891 Z M13.1995854,13.1976852 C13.2973907,13.1976852 13.5230891,13.0793854 13.5230891,11.9947591 C13.5230891,10.9087838 13.2973907,10.7917049 13.1995854,10.7917049 L7.69495267,10.7917049 L8.73316142,13.1976852 L13.1995854,13.1976852 L13.1995854,13.1976852 Z M13.6591301,16.7572236 L6.94824162,16.7572236 L7.98740954,19.1630463 L13.6591301,19.1630463 C13.7566427,19.1630463 13.9829469,19.0456622 13.9829469,17.9604353 C13.9829469,16.8749228 13.7566427,16.7572236 13.6591301,16.7572236 L13.6591301,16.7572236 Z M13.6591301,13.7748286 L8.98270792,13.7748286 L10.0215527,16.1800507 L13.6591301,16.1800507 C13.7566427,16.1800507 13.9829469,16.0620758 13.9829469,14.9768489 C13.9829469,13.8922127 13.7566427,13.7748286 13.6591301,13.7748286 L13.6591301,13.7748286 Z" id="Fill-2" fill="#44525E"></path>
                        </g>
                    </g>
                </g>
                <g id="Group-3-Copy" transform="translate(0.000000, 184.000000)">
                    <g id="Group-17" transform="translate(142.000000, 0.000000)">
                        <g id="Rectangle-10">
                            <use fill="#FFFFFF" fill-rule="evenodd" xlink:href="#path-6"></use>
                            <rect stroke="#44525E" stroke-width="4" x="2" y="2" width="52.851728" height="51.2736842" rx="5"></rect>
                        </g>
                        <path d="M0,5.7426191 C0,2.97800481 2.23446755,0.736842105 5.00841312,0.736842105 L51.9915869,0.736842105 C54.7576571,0.736842105 57,2.97554607 57,5.7426191 L57,12 L0,12 L0,5.7426191 Z" id="Rectangle-11" fill="#44525E"></path>
                        <circle id="Oval-Copy" fill="#FFFFFF" cx="6" cy="6" r="2"></circle>
                        <circle id="Oval-Copy-3" fill="#FFFFFF" cx="13" cy="6" r="2"></circle>
                        <g id="Group-12-Copy" transform="translate(22.000000, 15.000000)">
                            <path d="M4.65662976,7.19621988 L0.706712044,7.19621988 L2.01246492,10.2303791 L10.0188239,10.2303791 L1.55325379,0 L4.65662976,7.19621988 Z M12.0299519,25.7830525 L10.7226729,22.7472543 L8.88811761,22.7472543 L8.84965925,22.6565156 L6.31354409,16.7775714 L4.83717039,16.7775714 L7.41220175,22.7472543 L2.71600872,22.7472543 L11.1829523,32.9797194 L8.07866071,25.7830525 L12.0299519,25.7830525 L12.0299519,25.7830525 Z" id="Fill-1" fill="#EACC2F"></path>
                            <path d="M9.37894729,16.1800507 L7.05230683,10.7917049 L1.25551008,10.7917049 C0.812877029,10.7917049 0.568691802,10.7917049 0.368355921,11.4177732 C0.130147856,12.1647405 0.0241844921,13.7231764 0.0241844921,16.4686372 C0.0241844921,19.2141077 0.130147856,20.7722581 0.368355921,21.5190679 C0.568691802,22.1448211 0.812877029,22.1448211 1.25551008,22.1448211 L6.51187853,22.1448211 L3.93511607,16.1770181 L6.05672575,16.1770181 L4.76989939,13.1976852 L5.41251494,13.1976852 L6.69744315,16.1800507 L9.37894729,16.1800507 Z M13.1995854,19.7395891 L8.23663295,19.7395891 L9.27484169,22.1448211 L13.1995854,22.1448211 C13.2973907,22.1448211 13.5230891,22.0280573 13.5230891,20.9434309 C13.5230891,19.8569831 13.2973907,19.7395891 13.1995854,19.7395891 L13.1995854,19.7395891 Z M13.1995854,13.1976852 C13.2973907,13.1976852 13.5230891,13.0793854 13.5230891,11.9947591 C13.5230891,10.9087838 13.2973907,10.7917049 13.1995854,10.7917049 L7.69495267,10.7917049 L8.73316142,13.1976852 L13.1995854,13.1976852 L13.1995854,13.1976852 Z M13.6591301,16.7572236 L6.94824162,16.7572236 L7.98740954,19.1630463 L13.6591301,19.1630463 C13.7566427,19.1630463 13.9829469,19.0456622 13.9829469,17.9604353 C13.9829469,16.8749228 13.7566427,16.7572236 13.6591301,16.7572236 L13.6591301,16.7572236 Z M13.6591301,13.7748286 L8.98270792,13.7748286 L10.0215527,16.1800507 L13.6591301,16.1800507 C13.7566427,16.1800507 13.9829469,16.0620758 13.9829469,14.9768489 C13.9829469,13.8922127 13.7566427,13.7748286 13.6591301,13.7748286 L13.6591301,13.7748286 Z" id="Fill-2" fill="#44525E"></path>
                        </g>
                    </g>
                    <g id="Group-17" transform="translate(71.000000, 0.000000)">
                        <g id="Rectangle-10">
                            <use fill="#FFFFFF" fill-rule="evenodd" xlink:href="#path-7"></use>
                            <rect stroke="#44525E" stroke-width="4" x="2" y="2" width="52.851728" height="51.2736842" rx="5"></rect>
                        </g>
                        <path d="M0,5.7426191 C0,2.97800481 2.23446755,0.736842105 5.00841312,0.736842105 L51.9915869,0.736842105 C54.7576571,0.736842105 57,2.97554607 57,5.7426191 L57,12 L0,12 L0,5.7426191 Z" id="Rectangle-11" fill="#44525E"></path>
                        <circle id="Oval-Copy" fill="#FFFFFF" cx="6" cy="6" r="2"></circle>
                        <circle id="Oval-Copy-3" fill="#FFFFFF" cx="13" cy="6" r="2"></circle>
                        <g id="Group-12-Copy" transform="translate(22.000000, 15.000000)">
                            <path d="M4.65662976,7.19621988 L0.706712044,7.19621988 L2.01246492,10.2303791 L10.0188239,10.2303791 L1.55325379,0 L4.65662976,7.19621988 Z M12.0299519,25.7830525 L10.7226729,22.7472543 L8.88811761,22.7472543 L8.84965925,22.6565156 L6.31354409,16.7775714 L4.83717039,16.7775714 L7.41220175,22.7472543 L2.71600872,22.7472543 L11.1829523,32.9797194 L8.07866071,25.7830525 L12.0299519,25.7830525 L12.0299519,25.7830525 Z" id="Fill-1" fill="#EACC2F"></path>
                            <path d="M9.37894729,16.1800507 L7.05230683,10.7917049 L1.25551008,10.7917049 C0.812877029,10.7917049 0.568691802,10.7917049 0.368355921,11.4177732 C0.130147856,12.1647405 0.0241844921,13.7231764 0.0241844921,16.4686372 C0.0241844921,19.2141077 0.130147856,20.7722581 0.368355921,21.5190679 C0.568691802,22.1448211 0.812877029,22.1448211 1.25551008,22.1448211 L6.51187853,22.1448211 L3.93511607,16.1770181 L6.05672575,16.1770181 L4.76989939,13.1976852 L5.41251494,13.1976852 L6.69744315,16.1800507 L9.37894729,16.1800507 Z M13.1995854,19.7395891 L8.23663295,19.7395891 L9.27484169,22.1448211 L13.1995854,22.1448211 C13.2973907,22.1448211 13.5230891,22.0280573 13.5230891,20.9434309 C13.5230891,19.8569831 13.2973907,19.7395891 13.1995854,19.7395891 L13.1995854,19.7395891 Z M13.1995854,13.1976852 C13.2973907,13.1976852 13.5230891,13.0793854 13.5230891,11.9947591 C13.5230891,10.9087838 13.2973907,10.7917049 13.1995854,10.7917049 L7.69495267,10.7917049 L8.73316142,13.1976852 L13.1995854,13.1976852 L13.1995854,13.1976852 Z M13.6591301,16.7572236 L6.94824162,16.7572236 L7.98740954,19.1630463 L13.6591301,19.1630463 C13.7566427,19.1630463 13.9829469,19.0456622 13.9829469,17.9604353 C13.9829469,16.8749228 13.7566427,16.7572236 13.6591301,16.7572236 L13.6591301,16.7572236 Z M13.6591301,13.7748286 L8.98270792,13.7748286 L10.0215527,16.1800507 L13.6591301,16.1800507 C13.7566427,16.1800507 13.9829469,16.0620758 13.9829469,14.9768489 C13.9829469,13.8922127 13.7566427,13.7748286 13.6591301,13.7748286 L13.6591301,13.7748286 Z" id="Fill-2" fill="#44525E"></path>
                        </g>
                    </g>
                    <g id="Group-17-Copy">
                        <g id="Rectangle-10">
                            <use fill="#FFFFFF" fill-rule="evenodd" xlink:href="#path-8"></use>
                            <rect stroke="#44525E" stroke-width="4" x="2" y="2" width="52.851728" height="51.2736842" rx="5"></rect>
                        </g>
                        <path d="M0,5.7426191 C0,2.97800481 2.23446755,0.736842105 5.00841312,0.736842105 L51.9915869,0.736842105 C54.7576571,0.736842105 57,2.97554607 57,5.7426191 L57,12 L0,12 L0,5.7426191 Z" id="Rectangle-11" fill="#44525E"></path>
                        <circle id="Oval-Copy" fill="#FFFFFF" cx="6" cy="6" r="2"></circle>
                        <circle id="Oval-Copy-3" fill="#FFFFFF" cx="13" cy="6" r="2"></circle>
                        <g id="Group-12-Copy" transform="translate(22.000000, 15.000000)">
                            <path d="M4.65662976,7.19621988 L0.706712044,7.19621988 L2.01246492,10.2303791 L10.0188239,10.2303791 L1.55325379,0 L4.65662976,7.19621988 Z M12.0299519,25.7830525 L10.7226729,22.7472543 L8.88811761,22.7472543 L8.84965925,22.6565156 L6.31354409,16.7775714 L4.83717039,16.7775714 L7.41220175,22.7472543 L2.71600872,22.7472543 L11.1829523,32.9797194 L8.07866071,25.7830525 L12.0299519,25.7830525 L12.0299519,25.7830525 Z" id="Fill-1" fill="#EACC2F"></path>
                            <path d="M9.37894729,16.1800507 L7.05230683,10.7917049 L1.25551008,10.7917049 C0.812877029,10.7917049 0.568691802,10.7917049 0.368355921,11.4177732 C0.130147856,12.1647405 0.0241844921,13.7231764 0.0241844921,16.4686372 C0.0241844921,19.2141077 0.130147856,20.7722581 0.368355921,21.5190679 C0.568691802,22.1448211 0.812877029,22.1448211 1.25551008,22.1448211 L6.51187853,22.1448211 L3.93511607,16.1770181 L6.05672575,16.1770181 L4.76989939,13.1976852 L5.41251494,13.1976852 L6.69744315,16.1800507 L9.37894729,16.1800507 Z M13.1995854,19.7395891 L8.23663295,19.7395891 L9.27484169,22.1448211 L13.1995854,22.1448211 C13.2973907,22.1448211 13.5230891,22.0280573 13.5230891,20.9434309 C13.5230891,19.8569831 13.2973907,19.7395891 13.1995854,19.7395891 L13.1995854,19.7395891 Z M13.1995854,13.1976852 C13.2973907,13.1976852 13.5230891,13.0793854 13.5230891,11.9947591 C13.5230891,10.9087838 13.2973907,10.7917049 13.1995854,10.7917049 L7.69495267,10.7917049 L8.73316142,13.1976852 L13.1995854,13.1976852 L13.1995854,13.1976852 Z M13.6591301,16.7572236 L6.94824162,16.7572236 L7.98740954,19.1630463 L13.6591301,19.1630463 C13.7566427,19.1630463 13.9829469,19.0456622 13.9829469,17.9604353 C13.9829469,16.8749228 13.7566427,16.7572236 13.6591301,16.7572236 L13.6591301,16.7572236 Z M13.6591301,13.7748286 L8.98270792,13.7748286 L10.0215527,16.1800507 L13.6591301,16.1800507 C13.7566427,16.1800507 13.9829469,16.0620758 13.9829469,14.9768489 C13.9829469,13.8922127 13.7566427,13.7748286 13.6591301,13.7748286 L13.6591301,13.7748286 Z" id="Fill-2" fill="#44525E"></path>
                        </g>
                    </g>
                    <g id="Group-17" transform="translate(213.000000, 0.000000)">
                        <g id="Rectangle-10">
                            <use fill="#FFFFFF" fill-rule="evenodd" xlink:href="#path-9"></use>
                            <rect stroke="#44525E" stroke-width="4" x="2" y="2" width="52.851728" height="51.2736842" rx="5"></rect>
                        </g>
                        <path d="M0,5.7426191 C0,2.97800481 2.23446755,0.736842105 5.00841312,0.736842105 L51.9915869,0.736842105 C54.7576571,0.736842105 57,2.97554607 57,5.7426191 L57,12 L0,12 L0,5.7426191 Z" id="Rectangle-11" fill="#44525E"></path>
                        <circle id="Oval-Copy" fill="#FFFFFF" cx="6" cy="6" r="2"></circle>
                        <circle id="Oval-Copy-3" fill="#FFFFFF" cx="13" cy="6" r="2"></circle>
                        <g id="Group-12-Copy" transform="translate(22.000000, 15.000000)">
                            <path d="M4.65662976,7.19621988 L0.706712044,7.19621988 L2.01246492,10.2303791 L10.0188239,10.2303791 L1.55325379,0 L4.65662976,7.19621988 Z M12.0299519,25.7830525 L10.7226729,22.7472543 L8.88811761,22.7472543 L8.84965925,22.6565156 L6.31354409,16.7775714 L4.83717039,16.7775714 L7.41220175,22.7472543 L2.71600872,22.7472543 L11.1829523,32.9797194 L8.07866071,25.7830525 L12.0299519,25.7830525 L12.0299519,25.7830525 Z" id="Fill-1" fill="#EACC2F"></path>
                            <path d="M9.37894729,16.1800507 L7.05230683,10.7917049 L1.25551008,10.7917049 C0.812877029,10.7917049 0.568691802,10.7917049 0.368355921,11.4177732 C0.130147856,12.1647405 0.0241844921,13.7231764 0.0241844921,16.4686372 C0.0241844921,19.2141077 0.130147856,20.7722581 0.368355921,21.5190679 C0.568691802,22.1448211 0.812877029,22.1448211 1.25551008,22.1448211 L6.51187853,22.1448211 L3.93511607,16.1770181 L6.05672575,16.1770181 L4.76989939,13.1976852 L5.41251494,13.1976852 L6.69744315,16.1800507 L9.37894729,16.1800507 Z M13.1995854,19.7395891 L8.23663295,19.7395891 L9.27484169,22.1448211 L13.1995854,22.1448211 C13.2973907,22.1448211 13.5230891,22.0280573 13.5230891,20.9434309 C13.5230891,19.8569831 13.2973907,19.7395891 13.1995854,19.7395891 L13.1995854,19.7395891 Z M13.1995854,13.1976852 C13.2973907,13.1976852 13.5230891,13.0793854 13.5230891,11.9947591 C13.5230891,10.9087838 13.2973907,10.7917049 13.1995854,10.7917049 L7.69495267,10.7917049 L8.73316142,13.1976852 L13.1995854,13.1976852 L13.1995854,13.1976852 Z M13.6591301,16.7572236 L6.94824162,16.7572236 L7.98740954,19.1630463 L13.6591301,19.1630463 C13.7566427,19.1630463 13.9829469,19.0456622 13.9829469,17.9604353 C13.9829469,16.8749228 13.7566427,16.7572236 13.6591301,16.7572236 L13.6591301,16.7572236 Z M13.6591301,13.7748286 L8.98270792,13.7748286 L10.0215527,16.1800507 L13.6591301,16.1800507 C13.7566427,16.1800507 13.9829469,16.0620758 13.9829469,14.9768489 C13.9829469,13.8922127 13.7566427,13.7748286 13.6591301,13.7748286 L13.6591301,13.7748286 Z" id="Fill-2" fill="#44525E"></path>
                        </g>
                    </g>
                    <g id="Group-17" transform="translate(285.000000, 0.000000)">
                        <g id="Rectangle-10">
                            <use fill="#FFFFFF" fill-rule="evenodd" xlink:href="#path-10"></use>
                            <rect stroke="#44525E" stroke-width="4" x="2" y="2" width="52.851728" height="51.2736842" rx="5"></rect>
                        </g>
                        <path d="M0,5.7426191 C0,2.97800481 2.23446755,0.736842105 5.00841312,0.736842105 L51.9915869,0.736842105 C54.7576571,0.736842105 57,2.97554607 57,5.7426191 L57,12 L0,12 L0,5.7426191 Z" id="Rectangle-11" fill="#44525E"></path>
                        <circle id="Oval-Copy" fill="#FFFFFF" cx="6" cy="6" r="2"></circle>
                        <circle id="Oval-Copy-3" fill="#FFFFFF" cx="13" cy="6" r="2"></circle>
                        <g id="Group-12-Copy" transform="translate(22.000000, 15.000000)">
                            <path d="M4.65662976,7.19621988 L0.706712044,7.19621988 L2.01246492,10.2303791 L10.0188239,10.2303791 L1.55325379,0 L4.65662976,7.19621988 Z M12.0299519,25.7830525 L10.7226729,22.7472543 L8.88811761,22.7472543 L8.84965925,22.6565156 L6.31354409,16.7775714 L4.83717039,16.7775714 L7.41220175,22.7472543 L2.71600872,22.7472543 L11.1829523,32.9797194 L8.07866071,25.7830525 L12.0299519,25.7830525 L12.0299519,25.7830525 Z" id="Fill-1" fill="#EACC2F"></path>
                            <path d="M9.37894729,16.1800507 L7.05230683,10.7917049 L1.25551008,10.7917049 C0.812877029,10.7917049 0.568691802,10.7917049 0.368355921,11.4177732 C0.130147856,12.1647405 0.0241844921,13.7231764 0.0241844921,16.4686372 C0.0241844921,19.2141077 0.130147856,20.7722581 0.368355921,21.5190679 C0.568691802,22.1448211 0.812877029,22.1448211 1.25551008,22.1448211 L6.51187853,22.1448211 L3.93511607,16.1770181 L6.05672575,16.1770181 L4.76989939,13.1976852 L5.41251494,13.1976852 L6.69744315,16.1800507 L9.37894729,16.1800507 Z M13.1995854,19.7395891 L8.23663295,19.7395891 L9.27484169,22.1448211 L13.1995854,22.1448211 C13.2973907,22.1448211 13.5230891,22.0280573 13.5230891,20.9434309 C13.5230891,19.8569831 13.2973907,19.7395891 13.1995854,19.7395891 L13.1995854,19.7395891 Z M13.1995854,13.1976852 C13.2973907,13.1976852 13.5230891,13.0793854 13.5230891,11.9947591 C13.5230891,10.9087838 13.2973907,10.7917049 13.1995854,10.7917049 L7.69495267,10.7917049 L8.73316142,13.1976852 L13.1995854,13.1976852 L13.1995854,13.1976852 Z M13.6591301,16.7572236 L6.94824162,16.7572236 L7.98740954,19.1630463 L13.6591301,19.1630463 C13.7566427,19.1630463 13.9829469,19.0456622 13.9829469,17.9604353 C13.9829469,16.8749228 13.7566427,16.7572236 13.6591301,16.7572236 L13.6591301,16.7572236 Z M13.6591301,13.7748286 L8.98270792,13.7748286 L10.0215527,16.1800507 L13.6591301,16.1800507 C13.7566427,16.1800507 13.9829469,16.0620758 13.9829469,14.9768489 C13.9829469,13.8922127 13.7566427,13.7748286 13.6591301,13.7748286 L13.6591301,13.7748286 Z" id="Fill-2" fill="#44525E"></path>
                        </g>
                    </g>
                    <g id="Group-17" transform="translate(356.000000, 0.000000)">
                        <g id="Rectangle-10">
                            <use fill="#FFFFFF" fill-rule="evenodd" xlink:href="#path-11"></use>
                            <rect stroke="#44525E" stroke-width="4" x="2" y="2" width="52.851728" height="51.2736842" rx="5"></rect>
                        </g>
                        <path d="M0,5.7426191 C0,2.97800481 2.23446755,0.736842105 5.00841312,0.736842105 L51.9915869,0.736842105 C54.7576571,0.736842105 57,2.97554607 57,5.7426191 L57,12 L0,12 L0,5.7426191 Z" id="Rectangle-11" fill="#44525E"></path>
                        <circle id="Oval-Copy" fill="#FFFFFF" cx="6" cy="6" r="2"></circle>
                        <circle id="Oval-Copy-3" fill="#FFFFFF" cx="13" cy="6" r="2"></circle>
                        <g id="Group-12-Copy" transform="translate(22.000000, 15.000000)">
                            <path d="M4.65662976,7.19621988 L0.706712044,7.19621988 L2.01246492,10.2303791 L10.0188239,10.2303791 L1.55325379,0 L4.65662976,7.19621988 Z M12.0299519,25.7830525 L10.7226729,22.7472543 L8.88811761,22.7472543 L8.84965925,22.6565156 L6.31354409,16.7775714 L4.83717039,16.7775714 L7.41220175,22.7472543 L2.71600872,22.7472543 L11.1829523,32.9797194 L8.07866071,25.7830525 L12.0299519,25.7830525 L12.0299519,25.7830525 Z" id="Fill-1" fill="#EACC2F"></path>
                            <path d="M9.37894729,16.1800507 L7.05230683,10.7917049 L1.25551008,10.7917049 C0.812877029,10.7917049 0.568691802,10.7917049 0.368355921,11.4177732 C0.130147856,12.1647405 0.0241844921,13.7231764 0.0241844921,16.4686372 C0.0241844921,19.2141077 0.130147856,20.7722581 0.368355921,21.5190679 C0.568691802,22.1448211 0.812877029,22.1448211 1.25551008,22.1448211 L6.51187853,22.1448211 L3.93511607,16.1770181 L6.05672575,16.1770181 L4.76989939,13.1976852 L5.41251494,13.1976852 L6.69744315,16.1800507 L9.37894729,16.1800507 Z M13.1995854,19.7395891 L8.23663295,19.7395891 L9.27484169,22.1448211 L13.1995854,22.1448211 C13.2973907,22.1448211 13.5230891,22.0280573 13.5230891,20.9434309 C13.5230891,19.8569831 13.2973907,19.7395891 13.1995854,19.7395891 L13.1995854,19.7395891 Z M13.1995854,13.1976852 C13.2973907,13.1976852 13.5230891,13.0793854 13.5230891,11.9947591 C13.5230891,10.9087838 13.2973907,10.7917049 13.1995854,10.7917049 L7.69495267,10.7917049 L8.73316142,13.1976852 L13.1995854,13.1976852 L13.1995854,13.1976852 Z M13.6591301,16.7572236 L6.94824162,16.7572236 L7.98740954,19.1630463 L13.6591301,19.1630463 C13.7566427,19.1630463 13.9829469,19.0456622 13.9829469,17.9604353 C13.9829469,16.8749228 13.7566427,16.7572236 13.6591301,16.7572236 L13.6591301,16.7572236 Z M13.6591301,13.7748286 L8.98270792,13.7748286 L10.0215527,16.1800507 L13.6591301,16.1800507 C13.7566427,16.1800507 13.9829469,16.0620758 13.9829469,14.9768489 C13.9829469,13.8922127 13.7566427,13.7748286 13.6591301,13.7748286 L13.6591301,13.7748286 Z" id="Fill-2" fill="#44525E"></path>
                        </g>
                    </g>
                </g>
                <rect id="Rectangle-10-Copy-25" stroke="#44525E" stroke-width="4" x="185" y="17" width="41.8803419" height="40.4163534" rx="5"></rect>
                <path d="M183,20.5253759 C183,18.0260798 185.035917,16 187.515468,16 L224.484532,16 C226.978356,16 229,18.0311654 229,20.5253759 L229,25.0507519 L183,25.0507519 L183,20.5253759 Z" id="Rectangle-11-Copy-2" fill="#44525E"></path>
                <path d="M218.969999,40.8415332 L210.608152,45.3389943 L210.608152,43.4553576 L216.603216,40.3118377 L210.608152,37.3359251 L210.608152,35.4565315 L218.969999,39.7835566 L218.969999,40.8415332 L218.969999,40.8415332 Z M201.548848,48.9728858 L208.705069,32 L210.595227,32 L203.460291,48.9728858 L201.548848,48.9728858 L201.548848,48.9728858 Z M193,40.8415332 L201.361847,45.3389943 L201.361847,43.4553576 L195.366783,40.3118377 L201.361847,37.3359251 L201.361847,35.4565315 L193,39.7835566 L193,40.8415332 L193,40.8415332 Z" id="Fill-747-Copy-4" fill="#44525E"></path>
                <g id="Group-15-Copy-3" transform="translate(212.000000, 11.000000)">
                    <circle id="Oval-6" fill="#FFFFFF" cx="11.5" cy="11.5" r="11.5"></circle>
                    <path d="M17.2549396,12.5945144 C17.2549396,12.8278683 17.063332,13.0197985 16.8289918,13.0197985 L12.9995971,13.0197985 L12.9995971,16.9094909 C12.9995971,17.1442256 12.8079896,17.3361557 12.5736493,17.3361557 L10.0207195,17.3361557 C9.78637934,17.3361557 9.59477176,17.1442256 9.59477176,16.9094909 L9.59477176,13.0197985 L5.76675553,13.0197985 C5.53241532,13.0197985 5.34080774,12.8278683 5.34080774,12.5945144 L5.34080774,10.0359059 C5.34080774,9.80255202 5.53241532,9.61062186 5.76675553,9.61062186 L9.59477176,9.61062186 L9.59477176,5.77616116 C9.59477176,5.54004565 9.78637934,5.3481155 10.0207195,5.3481155 L12.5736493,5.3481155 C12.8079896,5.3481155 12.9995971,5.54004565 12.9995971,5.77616116 L12.9995971,9.61062186 L16.8289918,9.61062186 C17.063332,9.61062186 17.2549396,9.80255202 17.2549396,10.0359059 L17.2549396,12.5945144 Z M11.2985629,1 C5.61098822,1 1,5.61737003 1,11.3159006 C1,17.0130503 5.61098822,21.6304203 11.2985629,21.6304203 C16.9847591,21.6304203 21.5957474,17.0130503 21.5957474,11.3159006 C21.5957474,5.61737003 16.9847591,1 11.2985629,1 L11.2985629,1 Z" id="Fill-13" fill="#44525E"></path>
                </g>
            </g>
        </g>
    </g>
</svg>