<?xml version="1.0" encoding="utf-8"?>
<!-- Generator: Adobe Illustrator 17.0.0, SVG Export Plug-In . SVG Version: 6.00 Build 0)  -->
<!DOCTYPE svg PUBLIC "-//W3C//DTD SVG 1.1//EN" "http://www.w3.org/Graphics/SVG/1.1/DTD/svg11.dtd">
<svg version="1.1" id="Layer_1" xmlns="http://www.w3.org/2000/svg" xmlns:xlink="http://www.w3.org/1999/xlink" x="0px" y="0px"
	 width="100px" height="100px" viewBox="0 0 100 100" enable-background="new 0 0 100 100" xml:space="preserve">
<path fill="#EECF1E" d="M50.187,99.369c-27.182,0-49.296-22.113-49.296-49.295S23.005,0.777,50.187,0.777
	s49.296,22.114,49.296,49.296S77.368,99.369,50.187,99.369z M50.187,5.308c-24.684,0-44.766,20.082-44.766,44.766
	S25.502,94.84,50.187,94.84c24.685,0,44.767-20.082,44.767-44.766S74.871,5.308,50.187,5.308z"/>
<path fill="#44515D" d="M70.51,27.165c-0.77,0-1.393-0.649-1.393-1.446c0-0.8,0.623-1.446,1.393-1.446
	c0.766,0,1.389,0.645,1.389,1.446C71.899,26.516,71.277,27.165,70.51,27.165 M71.435,50.439h-3.329V35.775
	c0-0.702-0.547-1.276-1.227-1.276H41.235v-4.484h30.2V50.439z M64.403,39.372c-0.762,0-1.389-0.645-1.389-1.446
	c0-0.8,0.627-1.446,1.389-1.446c0.77,0,1.397,0.645,1.397,1.446C65.8,38.727,65.173,39.372,64.403,39.372 M58.987,37.927
	c0-0.8,0.623-1.446,1.389-1.446c0.77,0,1.393,0.645,1.393,1.446c0,0.8-0.623,1.446-1.393,1.446
	C59.609,39.372,58.987,38.727,58.987,37.927 M54.88,37.927c0-0.8,0.627-1.446,1.389-1.446c0.77,0,1.393,0.645,1.393,1.446
	c0,0.8-0.623,1.446-1.393,1.446C55.507,39.372,54.88,38.727,54.88,37.927 M65.332,62.646h-3.329V47.982
	c0-0.702-0.551-1.276-1.227-1.276H35.128v-4.484h30.204V62.646z M58.303,51.579c-0.766,0-1.389-0.649-1.389-1.446
	c0-0.8,0.623-1.446,1.389-1.446c0.77,0,1.393,0.645,1.393,1.446C59.696,50.93,59.073,51.579,58.303,51.579 M52.883,50.134
	c0-0.8,0.623-1.446,1.393-1.446c0.762,0,1.389,0.645,1.389,1.446c0,0.796-0.627,1.446-1.389,1.446
	C53.506,51.579,52.883,50.93,52.883,50.134 M48.78,50.134c0-0.8,0.623-1.446,1.389-1.446c0.766,0,1.393,0.645,1.393,1.446
	c0,0.796-0.627,1.446-1.393,1.446C49.403,51.579,48.78,50.93,48.78,50.134 M59.228,74.853h-30.2V54.429h30.2V74.853z M62.376,24.274
	c0.766,0,1.389,0.645,1.389,1.446c0,0.796-0.623,1.446-1.389,1.446c-0.77,0-1.393-0.649-1.393-1.446
	C60.983,24.92,61.606,24.274,62.376,24.274 M66.479,24.274c0.77,0,1.393,0.645,1.393,1.446c0,0.796-0.623,1.446-1.393,1.446
	c-0.766,0-1.389-0.649-1.389-1.446C65.09,24.92,65.713,24.274,66.479,24.274 M72.983,22.292H39.597c-0.37,0-0.698,0.174-0.921,0.442
	c-0.189,0.223-0.31,0.513-0.31,0.834v10.927h-4.873c-0.37,0-0.695,0.177-0.917,0.442v0.004c-0.193,0.219-0.31,0.513-0.31,0.834
	v10.927H27.39c-0.366,0-0.695,0.177-0.921,0.442c-0.185,0.223-0.306,0.513-0.306,0.838v28.596c0,0.702,0.547,1.276,1.227,1.276
	h33.386c0.676,0,1.231-0.574,1.231-1.276V65.647h4.877c0.676,0,1.223-0.57,1.223-1.28V53.44h4.877c0.679,0,1.227-0.574,1.227-1.276
	V23.568C74.209,22.862,73.658,22.292,72.983,22.292"/>
</svg>
