<?xml version="1.0" encoding="utf-8"?>
<!-- Generator: Adobe Illustrator 17.0.0, SVG Export Plug-In . SVG Version: 6.00 Build 0)  -->
<!DOCTYPE svg PUBLIC "-//W3C//DTD SVG 1.1//EN" "http://www.w3.org/Graphics/SVG/1.1/DTD/svg11.dtd">
<svg version="1.1" id="Layer_1" xmlns="http://www.w3.org/2000/svg" xmlns:xlink="http://www.w3.org/1999/xlink" x="0px" y="0px"
	 width="200px" height="200px" viewBox="0 0 200 200" enable-background="new 0 0 200 200" xml:space="preserve">
<path fill="#181D21" d="M100.25,1C45.712,1,1.5,45.212,1.5,99.75c0,54.538,44.212,98.75,98.75,98.75
	c54.538,0,98.75-44.212,98.75-98.75C199,45.212,154.788,1,100.25,1z M163.145,125.807c-0.473-0.071-0.947-0.106-1.421-0.106
	c-5.36,0-9.72,4.36-9.72,9.72c0,0.531,0.045,1.062,0.134,1.588c-6.515-0.737-13.09,1.993-17.165,7.105
	c-3.454-1.432-7.665-0.522-10.224,2.153c-1.722-2.021-4.221-3.193-6.933-3.193c-5.038,0-9.137,4.099-9.137,9.137
	c0,0.018,0,0.037,0,0.054c-3.16-0.023-5.827,1.97-6.819,4.758c-1.398-1.449-3.354-2.33-5.457-2.33c-1.419,0-2.787,0.393-3.973,1.124
	c-1.547-3.152-4.809-5.247-8.397-5.247c-0.919,0-1.819,0.132-2.687,0.394c-1.698-4.099-5.766-6.874-10.271-6.874
	c-3.134,0-6.137,1.347-8.231,3.648c-3.797-2.712-8.239-4.169-12.932-4.234c0.119-0.809,0.179-1.624,0.179-2.437
	c0-9.214-7.495-16.709-16.708-16.709c-1.592,0-3.158,0.224-4.675,0.666c-1.076-10.261-6.996-19.026-15.372-24.068
	c-0.005-0.402-0.015-0.803-0.015-1.206c0-48.009,38.919-86.928,86.929-86.928s86.928,38.919,86.928,86.928
	c0,0.506-0.01,1.01-0.019,1.514C174.644,102.986,164.602,113.067,163.145,125.807z"/>
<path fill="#181D21" d="M101.663,105.658l-1.13-0.001c0,0-21.039,0.586,0.484,42.419l0.152,0.001
	C122.705,106.251,101.663,105.658,101.663,105.658z M101.357,132.449h-0.079c-11.289-24.218-0.252-24.559-0.252-24.559l0.593,0.001
	C101.618,107.892,112.654,108.235,101.357,132.449z"/>
<path fill="#181D21" d="M118.423,52.085c-0.804-18.966-16.972-35.204-18.128-36.34l0.001-0.071c0,0-0.017,0.019-0.034,0.036
	c-0.019-0.017-0.037-0.033-0.037-0.033l0.001,0.068c-1.156,1.136-17.328,17.37-18.139,36.334c-0.043,1.057-0.058,2.137-0.055,3.231
	l36.447,0.006C118.481,54.224,118.468,53.141,118.423,52.085z M100.114,45.936c-3.329,0.002-6.029-2.698-6.028-6.028
	c0.001-3.33,2.7-6.028,6.028-6.026c3.332-0.001,6.026,2.698,6.028,6.027C106.14,43.239,103.442,45.938,100.114,45.936z"/>
<path fill="#181D21" d="M116.38,76.557c0.981-5.754,1.775-11.979,2.021-17.893l-36.291-0.003c0.242,5.911,1.033,12.137,2.015,17.889
	c-20.522,9.286-5.668,36.359-5.668,36.359l3.346-0.166c-2.732-18.698,5.084-22.49,5.084-22.49l-0.078-0.449
	c1.314,5.653,2.388,9.354,2.388,9.354l11.015,0.002h0.074l11.019,0.002c0,0,1.074-3.7,2.39-9.355l-0.079,0.449
	c0,0,7.814,3.796,5.076,22.493l3.347,0.168C122.038,112.916,136.9,85.847,116.38,76.557z"/>
</svg>
