<svg height="65" viewBox="0 0 65 65" width="65" xmlns="http://www.w3.org/2000/svg"><path d="m63.774 29.6049-28.38-28.379c-1.633-1.635-4.284-1.635-5.92 0l-5.892 5.894 7.475 7.475c1.738-.586 3.729-.193 5.114 1.192 1.392 1.393 1.783 3.402 1.181 5.146l7.205 7.205c1.743-.601 3.754-.213 5.146 1.182 1.946 1.945 1.946 5.097 0 7.043-1.946 1.947-5.098 1.947-7.045 0-1.464-1.464-1.825-3.614-1.084-5.417l-6.72-6.719v17.682c.474.235.922.548 1.317.942 1.946 1.945 1.946 5.097 0 7.045-1.946 1.945-5.1 1.945-7.043 0-1.946-1.948-1.946-5.1 0-7.045.481-.48 1.037-.843 1.63-1.087v-17.846c-.593-.243-1.149-.604-1.63-1.087-1.474-1.473-1.829-3.636-1.073-5.445l-7.369-7.371-19.46 19.459c-1.635 1.636-1.635 4.287 0 5.921l28.38 28.379c1.634 1.635 4.284 1.635 5.92 0l28.248-28.247c1.635-1.636 1.635-4.287 0-5.922" fill="#1794c7" fill-rule="evenodd"/></svg>