<svg height="71" viewBox="0 0 129 71" width="129" xmlns="http://www.w3.org/2000/svg"><g fill="none" fill-rule="evenodd"><g fill="#0093c9"><path d="m7.00217521 3.03308451c1.09764551 0 1.99450221.8961386 1.99450221 2.02340798 0 1.10834639-.8968567 2.01394649-1.99450221 2.01394649-1.10701565 0-2.00387235-.9056001-2.00387235-2.01394649 0-1.11780788.8968567-2.02340798 2.00387235-2.02340798zm5.99956979 0c1.1003226 0 1.9945022.8961386 1.9945022 2.02340798 0 1.10834639-.8941796 2.01394649-1.9945022 2.01394649-1.1070157 0-2.0011952-.9056001-2.0011952-2.01394649 0-1.11780788.8941795-2.02340798 2.0011952-2.02340798zm-4.43073986 36.92009949h-4.57263057v-29.8131662h47.99388073v3.3074678h4.0077447v-9.41148277c0-2.22885756-1.7990678-4.03600283-4.0077447-4.03600283h-47.99388073c-2.20867695 0-3.99837457 1.80714527-3.99837457 4.03600283v35.91718117c0 2.2302092 1.78969762 4.046816 3.99837457 4.046816h4.57263057z"/><path d="m16.0021752 16.0330845c1.0976455 0 1.9945022.8961386 1.9945022 2.023408 0 1.1083464-.8968567 2.0139465-1.9945022 2.0139465-1.1070156 0-2.0038723-.9056001-2.0038723-2.0139465 0-1.1178079.8968567-2.023408 2.0038723-2.023408zm5.9995698 0c1.1003226 0 1.9945022.8961386 1.9945022 2.023408 0 1.1083464-.8941796 2.0139465-1.9945022 2.0139465-1.1070157 0-2.0011952-.9056001-2.0011952-2.0139465 0-1.1178079.8941795-2.023408 2.0011952-2.023408zm-4.4307399 36.9200995h-4.5726305v-29.8131662h47.9938807v3.3074678h4.0077447v-9.4114828c0-2.2288575-1.7990678-4.0360028-4.0077447-4.0360028h-47.9938807c-2.208677 0-3.9983746 1.8071453-3.9983746 4.0360028v35.9171812c0 2.2302092 1.7896976 4.046816 3.9983746 4.046816h4.5726305z"/><path d="m20.9983746 66.953184h47.9938807v-29.8131662h-47.9938807zm3.0038006-36.9200995c1.0989841 0 1.9945022.8961386 1.9945022 2.023408 0 1.1083464-.8955181 2.0139465-1.9945022 2.0139465-1.1070156 0-2.0025338-.9056001-2.0025338-2.0139465 0-1.1178079.8955182-2.023408 2.0025338-2.023408zm5.9995698 0c1.1003226 0 1.9945022.8961386 1.9945022 2.023408 0 1.1083464-.8941796 2.0139465-1.9945022 2.0139465-1.1070157 0-2.0011952-.9056001-2.0011952-2.0139465 0-1.1178079.8941795-2.023408 2.0011952-2.023408zm38.9905103-3.0330845h-47.9938807c-2.2073384 0-3.9983746 1.8071453-3.9983746 4.0373545v35.9158295c0 2.2302092 1.7910362 4.046816 3.9983746 4.046816h47.9938807c2.2086769 0 4.0077447-1.8166068 4.0077447-4.046816v-35.9158295c0-2.2302092-1.7990678-4.0373545-4.0077447-4.0373545z"/><path d="m51 52c0 3.8661033-3.1336025 7-6.9993428 7s-7.0006572-3.1338967-7.0006572-7 3.1349169-7 7.0006572-7 6.9993428 3.1338967 6.9993428 7"/><path d="m129 53c0 3.8661033-3.133602 7-6.999343 7-3.86574 0-7.000657-3.1338967-7.000657-7s3.134917-7 7.000657-7c3.865741 0 6.999343 3.1338967 6.999343 7"/><path d="m98 11c0 3.8661033-3.1336025 7-6.9993428 7s-7.0006572-3.1338967-7.0006572-7c0-3.86610329 3.1349169-7 7.0006572-7s6.9993428 3.13389671 6.9993428 7"/></g><g stroke="#0093c9" stroke-width="3"><path d="m44 52h78"/><path d="m90 51 .441-38"/></g></g></svg>