<svg height="65" viewBox="0 0 120 65" width="120" xmlns="http://www.w3.org/2000/svg"><g fill="#0093c9" fill-rule="evenodd"><path d="m56.0778783 43.4874113-.5373913-.3658871s-10.1989566-6.546129-13.4671305 20.4383064l.0709565.0482259c23.7547827-13.0094355 13.9335653-20.1206452 13.9335653-20.1206452m-8.7944348 12.7095968-.0386087-.0262097c2.4469565-15.2393549 7.8073043-11.8226613 7.8073043-11.8226613l.2838261.1929032s5.1401739 3.742742-8.0525217 11.6559678"/><path d="m81.3517565 23.3110968c5.7391305-9.3285484 3.2911305-22.33693551 3.1085218-23.25427422l.024-.03564516s-.0166957.00629032-.0302609.00524193c-.0041739-.01153225-.0073044-.02620967-.0073044-.02620967l-.0187826.03459677c-.9193043.16669355-13.8563478 2.6817742-20.3634782 11.48612905-.3610435.4906451-.7189565 1.0001613-1.0706087 1.5275l17.3405217 11.8268548c.3526957-.5220968.6970435-1.0452419 1.0173913-1.5641935m-6.7252174-8.8787903c-1.5860869-1.0808871-1.9993043-3.2479033-.9245217-4.83725811 1.0758261-1.59354839 3.2316522-2.00870968 4.8156522-.92467742 1.5850434 1.08088709 1.9972174 3.24266133.9213913 4.83620963-1.0737392 1.5893549-3.2295652 2.0045162-4.8125218.9257259"/><path d="m72.477287 34.3485161c2.323826-2.432258 4.7113043-5.1507258 6.741913-7.8995967l-17.2726957-11.7754839c-1.7937391 2.906129-3.4257391 6.1393548-4.8166956 9.2079839-12.7627826-2.2194355-14.4354783 15.5444354-14.4354783 15.5444354l1.6455653 1.0054033c4.7373913-9.8254839 9.6793043-9.1031452 9.6793043-9.1031452l.1095652-.2379839c-1.2020869 3.1273387-1.8855652 5.2440323-1.8855652 5.2440323l5.2445217 3.575.0323479.0220161 5.2424347 3.5791936s1.7071305-1.4237097 4.1582609-3.6997581l-.1826087.1876613s2.4939131 4.3529032-4.8448695 12.4034677l1.5370434 1.1658065s15.8128696-8.1197581 9.0469566-19.2190323"/><path d="m30.5939478 53.8494597c.3433044-.7265323.5332174-1.500242.5332174-2.3054032 0-4.1547581-4.9481739-7.5232259-11.0535652-7.5232259-5.3864348 0-9.8671304 2.6230646-10.84904348 6.0942742-.06886956-.0010483-.13565217-.0062903-.20452174-.0062903-4.98156521 0-9.01982608 2.5622581-9.01982608 5.7231452s4.03826087 5.7231451 9.01982608 5.7231451c2.44382612 0 4.65600002-.6185483 6.28069562-1.619758 1.3909566 2.1166935 5.9645218 3.6725 11.4052174 3.6725 6.5446957 0 11.8497392-2.247742 11.8497392-5.0207258 0-2.1942742-3.3297392-4.0551613-7.9617392-4.7376613"/><path d="m109.897357 56.2279355c.413217-.6437097.641739-1.3283065.641739-2.0401613 0-3.6777419-5.952-6.6583065-13.2939134-6.6583065-6.477913 0-11.8664348 2.3221775-13.0466087 5.3939517-.0834782-.0010484-.1638261-.0062904-.2462609-.0062904-5.9916521 0-10.848 2.2676613-10.848 5.0647581 0 2.7981452 4.8563479 5.0658064 10.848 5.0658064 2.9384348 0 5.5993044-.5483064 7.5526957-1.4341935 1.6737391 1.8734677 7.1728696 3.25 13.7165213 3.25 7.870957 0 14.250783-1.9887903 14.250783-4.4420161 0-1.9426613-4.00487-3.5896774-9.574956-4.1935484"/><path d="m101.518017 17.5904677 2.405218-1.2706451-.460174 2.6912097 1.946087 1.9049193-2.689044.3920968-1.202087 2.4479839-1.202087-2.4479839-2.689043-.3920968 1.9460869-1.9049193-.4601739-2.6912097z"/><path d="m32.3655652 5.69179839 2.2236522-1.17419355-.4246957 2.48677419 1.7979131 1.76233871-2.4855652.36274194-1.1113044 2.26241932-1.1113043-2.26241932-2.4855652-.36274194 1.797913-1.76233871-.4246957-2.48677419z"/><path d="m25.584 27.2924516 1.7029565-.8995161-.3255652 1.9049193 1.3773913 1.3492742-1.9033043.2778226-.8514783 1.7329839-.8514783-1.7329839-1.9033043-.2778226 1.3773913-1.3492742-.3255652-1.9049193z"/><path d="m113.190887 32.3871935 1.702956-.8995161-.325565 1.9049194 1.377392 1.3492742-1.903305.2778225-.851478 1.7329839-.851478-1.7329839-1.903305-.2778225 1.377392-1.3492742-.325566-1.9049194z"/></g></svg>