<svg height="63" viewBox="0 0 63 63" width="63" xmlns="http://www.w3.org/2000/svg"><path d="m29.5703833 95.1672656c-.9923333.9323438-2.6043333.9323438-3.5988333 0-.9923333-.9303125-.9923333-2.4435937 0-3.371875.9945-.9323437 2.6065-.9323437 3.5988333 0 .9923334.9282813.9923334 2.4415625 0 3.371875m52.4745-4.5134375-21.4565-20.1134375c-.2015-.1909375-.4138333-.3595312-.637-.5159375l3.8025-3.7496875c.1928334-.1828125.3748334-.3778125.546-.5728125 5.044 1.7834375 10.9611667.7820313 15.0171667-3.0204687 2.9575-2.7726563 4.4525-6.6076563 4.0885-10.5279688-.0368333-.43875-.3531667-.820625-.7973333-.975-.4463334-.1523437-.9468334-.0467187-1.2826667.268125l-6.8726667 6.4451563-6.9636666-1.6473438-1.9716667-6.7315625 6.8726667-6.443125c.3358333-.316875.4463333-.7860937.286-1.2025-.1625-.4204687-.572-.7109375-1.0443334-.7495312-4.1751666-.3371875-8.2658333 1.0603125-11.2233333 3.8309375-4.0516667 3.7984375-5.1263333 9.3478125-3.2261667 14.0745312-.2036666.1645313-.4138333.3371875-.6131666.5240625l-5.59 5.0354688-10.2721667-9.628125c-.1321667-.1178125-.2665-.2254688-.4095-.3270313.1256667-.1970312.2426667-.4001562.3466667-.6114062 2.1731666.39 6.136-3.5689063 9.5051666-6.7234375l-9.8106666-9.1995313c-4.3853334 4.11125-7.592 6.87375-7.176 8.9090625-1.0031667.4590625-1.898 1.0176563-2.5328334 1.6148438l-1.3823333 1.2939062c-.8948333.8429688-1.4386667 1.8910938-1.6293333 2.9839063-.1343334.1421875-.2708334.2945312-.4051667.455l-.5178333.609375c-.013.01625-.0585.073125-.0693334.0873437l-.4658333.6114063c-.2925.3696875-.546.7617187-.7973333 1.145625-.0888334.1421875-.1841667.2864062-.2773334.430625-.0151666.0223437-.0281666.0426562-.0411666.0710937l-.208.365625c-.2535.43875-.5113334.8978125-.7345 1.4015625l-.0368334.0792188c-.26.5809375-.5351666 1.1882812-.7215 1.8301562l-.0953333.27625c-.0736667.2275-.1516667.4590625-.221.73125l-.1928333.8835938c-.1365.5545312-.1863334 1.0989062-.2275 1.5803125l-.0281667.3189062c-.0693333.5017188-.0498333.975-.0325 1.3934375.0086667.138125.013.2742188.0195.463125.0043333.0771875.0043333.1503125.0086667.2254688.0043333.1848437.0086666.398125.0455.6215625l.1213333.715c.026.1421875.0455.27625.065.40625.0498333.2904687.0953333.593125.1906667.8775l.5005 1.633125c.156.495625.6565.8246875 1.2046666.7901562.2946667-.0203125.5568334-.138125.7475-.3229687.1755-.1604688.2968334-.37375.3358334-.6195313l.2578333-1.6575c.0173333-.1340625.0801667-.325.1408333-.5301562.0455-.1401563.091-.2864063.1235-.4082813l.182-.6215625c.026-.0832812.0671667-.1645312.1083334-.2478125.0346666-.0771875.0715-.1564062.1061666-.2376562.0606667-.13.1191667-.2640625.1755-.398125.1148334-.2640625.2231667-.511875.3878334-.7576563.0693333-.1157812.1386666-.2254687.2036666-.34125.1711667-.2864062.3336667-.5585937.5286667-.7840625.013-.0121875.0216667-.0264062.0346667-.0426562l.4376666-.5667188c.0888334-.1035937.1928334-.2071875.2881667-.3046875.0715-.073125.1408333-.1442187.2253333-.2376562.2578334-.2925.559-.544375.8558334-.7942188l.1538333-.1340625c.2166667-.186875.4636667-.3635937.7301667-.5504687.1061666-.0771875.2123333-.1503125.3206666-.2214063.1278334-.0853125.26-.1645312.3856667-.2457812.2383333-.1503125.442-.2803125.6781667-.3940625l.52-.27625.5221666-.2417188c.182-.0873437.364-.1564062.5308334-.2173437.0975-.0426563.195-.0771875.286-.1157813.091-.0304687.1798333-.0609375.2621666-.0914062.1126667-.0365625.2123334-.073125.3423334-.1076563l.1386666-.0264062c.156.2335937.3358334.455.5503334.6601562l10.1616666 9.5225-21.684 19.5284375c-.0108333.0060938-.0173333.01625-.026.0223438-2.6996666 2.5309375-3.1416666 6.2339062-.442 8.7648437 2.6996667 2.5309379 6.4003334 1.8829688 9.1-.6479687.0108334-.0121875.0195-.0182813.0325-.0304688l19.1316667-18.8865625c.1126667.121875.2231667.2478125.3466667.3635938l21.4543333 20.1175c2.4028333 2.2506251 6.3006667 2.2506251 8.7078333 0 2.4006667-2.2567188 2.4006667-5.9109375 0-8.1635938" fill="#0093c9" fill-rule="evenodd" transform="translate(-21 -38)"/></svg>