<?xml version="1.0" encoding="utf-8"?>
<!-- Generator: Adobe Illustrator 24.0.1, SVG Export Plug-In . SVG Version: 6.00 Build 0)  -->
<svg version="1.1" id="Layer_1" xmlns="http://www.w3.org/2000/svg" xmlns:xlink="http://www.w3.org/1999/xlink" x="0px" y="0px"
	 viewBox="0 0 590.54 318.47" style="enable-background:new 0 0 590.54 318.47;" xml:space="preserve">
<style type="text/css">
	.st0{opacity:0.25;}
	.st1{fill:#191C21;}
	.st2{fill:#7F8080;}
	.st3{fill:#3A3B3A;}
	.st4{fill:#FFFFFF;}
	.st5{fill:url(#SVGID_1_);}
	.st6{opacity:0.5;}
	.st7{fill:#424B52;}
	.st8{fill:#C9B12D;}
	.st9{fill:#EDCF23;}
</style>
<g>
	<g class="st0">
		<path class="st1" d="M554.23,260.53l17.98-3.47l9.33,28.54l-17.98,3.47l5.89,18.03l-54.21,10.45l-5.89-18.03l-80.34,15.49
			l-7.86-24.04l35.55-108.66l67.7-13.05L554.23,260.53z M500.02,270.98l-16.33-49.95l-1.12,0.22l-16.82,56.34L500.02,270.98z"/>
	</g>
	<g class="st0">
		<path class="st1" d="M133.23,260.53l17.98-3.47l9.33,28.54l-17.98,3.47l5.89,18.03l-54.21,10.45l-5.89-18.03L8.01,315.01
			l-7.86-24.04L35.7,182.32l67.7-13.05L133.23,260.53z M79.02,270.98l-16.33-49.95l-1.12,0.22l-16.82,56.34L79.02,270.98z"/>
	</g>
</g>
<polygon class="st2" points="438.01,286.01 434.52,298.7 426.46,275.61 430.15,261.97 "/>
<polygon class="st2" points="514.65,283.88 518.35,270.52 524.24,288.55 520.72,301.77 "/>
<polygon class="st2" points="485.55,194.79 489.25,181.43 509.02,242.32 505.5,255.54 "/>
<polygon class="st3" points="524.24,288.55 520.72,301.77 574.82,291.64 578.45,278.1 "/>
<polygon class="st3" points="590.44,256.6 586.75,270.24 569.01,274.11 572.56,260.07 "/>
<polygon class="st3" points="434.52,298.7 438.01,286.01 518.35,270.52 514.65,283.88 "/>
<g>
	<path class="st4" d="M563.23,231.53l17.98-3.47l9.33,28.54l-17.98,3.47l5.89,18.03l-54.21,10.45l-5.89-18.03l-80.34,15.49
		l-7.86-24.04l35.55-108.66l67.7-13.05L563.23,231.53z M509.02,241.98l-16.33-49.95l-1.12,0.22l-16.82,56.34L509.02,241.98z"/>
</g>
<polygon class="st2" points="16.97,286.01 13.48,298.7 5.42,275.61 9.11,261.97 "/>
<polygon class="st2" points="93.61,283.88 97.31,270.52 103.2,288.55 99.68,301.77 "/>
<polygon class="st2" points="65.06,194.79 68.76,181.43 88.53,242.32 85.02,255.54 "/>
<polygon class="st3" points="103.2,288.55 99.68,301.77 154.33,291.64 157.97,278.1 "/>
<polygon class="st3" points="170.06,256.6 166.37,270.24 148.53,274.11 152.08,260.07 "/>
<polygon class="st3" points="13.48,298.7 16.97,286.01 97.31,270.52 93.61,283.88 "/>
<g>
	<path class="st4" d="M142.75,231.53l17.98-3.47l9.33,28.54l-17.98,3.47l5.89,18.03l-54.21,10.45l-5.89-18.03l-80.34,15.49
		l-7.86-24.04l35.55-108.66l67.7-13.05L142.75,231.53z M88.53,241.98l-16.33-49.95l-1.12,0.22l-16.82,56.34L88.53,241.98z"/>
</g>
<linearGradient id="SVGID_1_" gradientUnits="userSpaceOnUse" x1="293.8132" y1="288.5952" x2="295.8414" y2="153.6924">
	<stop  offset="0" style="stop-color:#191C21"/>
	<stop  offset="1" style="stop-color:#7C7979"/>
</linearGradient>
<path class="st5" d="M335.66,170.82c-1.98-1.04-3.93-2.03-5.88-2.99c-37.3-18.47-69.83-24.09-95.34-14.99
	c-10.63,3.79-20.04,10.13-28.06,19.16c-27.28,30.7-12.15,67.59,45.47,97.8c20.07,10.52,38.89,17.46,56.12,20.51
	c7.58,1.34,14.85,1.92,21.78,1.72c21.11-0.6,39.13-8.45,53.25-24.34C411.88,235.18,393.52,201.14,335.66,170.82z"/>
<g>
	<path class="st4" d="M142.23,231.53l17.98-3.47l9.33,28.54l-17.98,3.47l5.89,18.03l-54.21,10.45l-5.89-18.03l-80.34,15.49
		l-7.86-24.04L44.7,153.32l67.7-13.05L142.23,231.53z M88.02,241.98l-16.33-49.95l-1.12,0.22l-16.82,56.34L88.02,241.98z"/>
</g>
<g class="st6">
	<path class="st7" d="M260.6,148.56c20.34,0,43.65,6.62,69.18,19.26c1.95,0.97,3.91,1.96,5.88,2.99
		c57.86,30.32,76.22,64.36,47.34,96.86c-14.12,15.89-32.14,23.74-53.25,24.34c-0.88,0.03-1.77,0.04-2.67,0.04
		c-6.13,0-12.5-0.59-19.11-1.76c-17.24-3.04-36.05-9.99-56.12-20.51c-57.62-30.2-72.75-67.09-45.47-97.8
		c8.03-9.03,17.44-15.37,28.06-19.16C242.49,149.97,251.23,148.56,260.6,148.56 M260.6,144.56c-9.86,0-19.12,1.52-27.5,4.51
		c-11.36,4.05-21.36,10.87-29.71,20.27c-11.43,12.86-16.08,27.3-13.44,41.74c4.07,22.27,24.83,43.8,60.04,62.25
		c20.6,10.8,39.87,17.83,57.29,20.9c6.84,1.21,13.5,1.82,19.81,1.82c0.93,0,1.87-0.01,2.78-0.04c22.67-0.65,41.55-9.29,56.12-25.68
		c11.71-13.18,16.36-26.95,13.81-40.92c-3.96-21.64-24.91-42.55-62.28-62.13c-1.84-0.96-3.79-1.96-5.97-3.03
		C305.18,151.18,281.31,144.56,260.6,144.56L260.6,144.56z"/>
</g>
<polygon class="st8" points="152.76,14.04 156.31,0 250.12,170.83 246.57,184.87 "/>
<path class="st8" d="M297.41,243.41l3.55-14.04h72.95l-3.55,14.04C364.97,243.56,297.41,243.41,297.41,243.41z"/>
<path class="st9" d="M373.91,229.51l-20.41-48.43L277.21,0h-120.9l83.11,151.27l10.74,19.55h-42.72h-6.73l3.28,3.99l92.78,113.01
	c3.8,0.99,7.53,1.83,11.18,2.47c7.01,1.24,13.76,1.82,20.23,1.74l-26.66-62.53H373.91z"/>
<g>
	<path class="st8" d="M204,174.82l-3.28-3.99l-3.55,14.04l0.26,0.31l78.42,95.71c7.18,2.85,14.17,5.17,20.93,6.94v0L204,174.82z"/>
</g>
</svg>
