<?xml version="1.0" encoding="UTF-8"?>
<svg width="261px" height="331px" viewBox="0 0 261 331" version="1.1" xmlns="http://www.w3.org/2000/svg" xmlns:xlink="http://www.w3.org/1999/xlink">
    <!-- Generator: Sketch 46.2 (44496) - http://www.bohemiancoding.com/sketch -->
    <title>B</title>
    <desc>Created with Sketch.</desc>
    <defs></defs>
    <g id="Behat" stroke="none" stroke-width="1" fill="none" fill-rule="evenodd">
        <g id="behat" fill="#4A4A4A">
            <path d="M33,116.5 C33,68.7273668 71.7273668,30 119.5,30 C142.467227,30 163.34381,38.951107 178.8315,53.5550717 C187.645986,61.2539129 194.510116,70.9923557 198.996993,82.3487464 C203.503753,92.8256443 206,104.371307 206,116.5 C206,129.542236 201.907341,141.910307 196.738525,153 C194.394426,157.617537 192.523511,160.510923 188.836594,164.567429 C216.136004,178.900033 236,211.828161 236,246.381216 C236,266.179508 230.969955,284.447485 220.570053,299.134857 L195.291462,299.134848 C207.189921,284.976265 214.353663,266.727205 214.353663,246.809743 C214.353663,205.46128 184.125717,175.313889 143.465354,166.006294 L130.516819,162.790587 C130.516819,162.790587 108.503221,157.2724 108.257862,157.211466 C85.1297456,151.46771 71.0604554,128.116007 76.8332209,105.053976 C82.6059863,81.9919442 106.034778,67.9527101 129.162894,73.6964667 C152.291011,79.4402233 166.360301,102.791926 160.587535,125.853957 C159.021287,132.111072 156.155331,137.703994 152.348369,142.417769 L143.417308,135.714261 L150.931119,163.246727 L166.32659,163.034564 L179.572848,162.852018 L171.736828,156.970429 C177.443972,149.734854 181.745571,141.208165 184.125717,131.699552 C193.14322,95.6748857 171.165907,59.1977314 135.038012,50.2255421 C98.9101159,41.2533527 62.3125429,63.1837156 53.2950395,99.2083814 C45.2813267,131.222933 61.7460676,163.594841 90.8671895,176.702255 C66.9076189,190.914992 50.8531323,216.99286 50.8531323,246.809743 C50.8531323,259.56545 53.7913303,271.636865 59.0296307,282.387686 L46.4623942,289.326359 L83.7842493,295.076437 L98.6661793,260.503393 L84.335166,268.415891 C81.3619315,261.821806 79.7077967,254.508394 79.7077967,246.809743 C79.7077967,217.67978 103.389962,194.065283 132.603398,194.065283 C161.816833,194.065283 185.498999,217.67978 185.498999,246.809743 C185.498999,273.675817 165.354801,295.850402 139.305477,299.134848 L33,299.134857 L33,116.5 Z" id="B"></path>
        </g>
    </g>
</svg>