<?xml version="1.0" encoding="UTF-8" standalone="no"?>
<!DOCTYPE svg PUBLIC "-//W3C//DTD SVG 1.1//EN" "http://www.w3.org/Graphics/SVG/1.1/DTD/svg11.dtd">
<svg version="1.1" xmlns="http://www.w3.org/2000/svg" xmlns:xlink="http://www.w3.org/1999/xlink" preserveAspectRatio="xMidYMid meet" viewBox="0 0 640 640" width="640" height="640.32"><defs><path d="M387.31 404.17L419.6 215.62L217.93 215.62L253.51 404.17L253.51 404.17L387.31 404.17Z" id="i1teenWcKZ"></path><path d="M619.32 22.36L619.4 22.35L619.49 22.35L619.58 22.35L619.67 22.36L619.76 22.36L619.85 22.36L619.94 22.36L620.03 22.36L620.12 22.36L620.21 22.37L620.3 22.37L620.38 22.37L620.47 22.38L620.56 22.38L620.65 22.39L620.74 22.39L620.83 22.4L620.92 22.4L621.01 22.41L621.09 22.42L621.18 22.42L621.27 22.43L621.36 22.44L621.45 22.45L621.54 22.46L621.63 22.47L621.72 22.48L621.8 22.49L621.89 22.5L621.98 22.51L622.07 22.52L622.16 22.53L622.25 22.54L622.33 22.55L622.42 22.57L622.51 22.58L622.6 22.59L622.69 22.61L622.77 22.62L623.61 22.77L624.42 22.96L625.23 23.17L626.01 23.42L626.79 23.69L627.54 24L628.28 24.33L629 24.69L629.71 25.08L630.39 25.49L631.06 25.93L631.71 26.39L632.34 26.87L632.94 27.38L633.53 27.91L634.09 28.46L634.64 29.04L635.16 29.63L635.65 30.24L636.13 30.87L636.57 31.52L637 32.18L637.39 32.86L637.77 33.56L638.11 34.27L638.43 34.99L638.72 35.73L638.98 36.47L639.22 37.23L639.42 38.01L639.59 38.79L639.74 39.58L639.85 40.38L639.93 41.18L639.98 42L640 42.82L639.98 43.64L639.93 44.47L639.85 45.31L639.73 46.14L552.69 580.52L552.55 581.27L552.39 582L552.2 582.73L551.99 583.44L551.76 584.14L551.49 584.83L551.21 585.51L550.9 586.17L550.58 586.82L550.23 587.46L549.85 588.08L549.46 588.69L549.05 589.28L548.61 589.85L548.16 590.41L547.69 590.95L547.2 591.48L546.7 591.98L546.17 592.47L545.63 592.94L545.08 593.39L544.51 593.82L543.92 594.24L543.32 594.63L542.7 595L542.08 595.34L541.44 595.67L540.78 595.98L540.12 596.26L539.44 596.52L538.75 596.75L538.06 596.97L537.35 597.15L536.64 597.32L535.91 597.45L535.18 597.56L534.44 597.65L533.69 597.71L532.94 597.74L532.18 597.74L114.58 597.74L113.57 597.72L112.57 597.66L111.58 597.56L110.59 597.43L109.62 597.26L108.65 597.06L107.7 596.83L106.76 596.56L105.84 596.27L104.93 595.94L104.03 595.58L103.15 595.19L102.28 594.77L101.43 594.33L100.6 593.85L99.78 593.35L98.98 592.82L98.21 592.26L97.45 591.68L96.71 591.07L95.99 590.44L95.3 589.78L94.63 589.1L93.98 588.4L93.36 587.67L92.75 586.92L92.18 586.15L91.63 585.36L91.11 584.55L90.61 583.72L90.15 582.87L89.71 582.01L89.3 581.12L88.92 580.22L88.57 579.3L88.25 578.36L87.97 577.41L87.72 576.45L87.5 575.46L87.31 574.47L0.26 46.04L0.25 45.95L0.24 45.86L0.22 45.78L0.21 45.69L0.2 45.6L0.19 45.51L0.17 45.42L0.16 45.34L0.15 45.25L0.14 45.16L0.13 45.07L0.12 44.98L0.11 44.89L0.1 44.8L0.09 44.72L0.09 44.63L0.08 44.54L0.07 44.45L0.06 44.36L0.06 44.27L0.05 44.18L0.04 44.09L0.04 44.01L0.03 43.92L0.03 43.83L0.02 43.74L0.02 43.65L0.02 43.56L0.01 43.47L0.01 43.38L0.01 43.29L0 43.21L0 43.12L0 43.03L0 42.94L0 42.85L0 42.76L0 42.67L0 42.58L0 42.49L0.03 41.65L0.09 40.81L0.19 39.99L0.31 39.17L0.47 38.37L0.66 37.57L0.88 36.79L1.13 36.03L1.41 35.27L1.72 34.53L2.05 33.81L2.41 33.1L2.8 32.41L3.21 31.73L3.65 31.07L4.11 30.43L4.6 29.81L5.11 29.21L5.64 28.63L6.19 28.07L6.77 27.53L7.36 27.02L7.98 26.52L8.61 26.05L9.26 25.61L9.93 25.19L10.62 24.79L11.32 24.42L12.04 24.08L12.77 23.76L13.52 23.47L14.28 23.22L15.05 22.99L15.83 22.79L16.63 22.62L17.44 22.48L18.26 22.37L19.09 22.3L19.92 22.26L20.77 22.25L619.23 22.36L619.32 22.36ZM254.02 404.17L387.31 404.17L419.6 215.62L217.93 215.62L254.02 404.17Z" id="b12T5dN64i"></path><path d="M612.05 215.62L419.6 215.62L387.31 404.17L254.02 404.17C159.59 516.26 107.13 578.52 96.64 590.98C101.63 595.29 107.99 597.69 114.58 597.74C156.35 597.74 490.51 597.74 532.28 597.74C542.44 597.88 551.16 590.55 552.79 580.52C560.69 531.87 580.44 410.23 612.05 215.62Z" id="aMQzmG4Mu"></path><linearGradient id="gradientaptcuV5Po" gradientUnits="userSpaceOnUse" x1="656.55" y1="268.42" x2="338.5" y2="516.64"><stop style="stop-color: #0052cc;stop-opacity: 1" offset="18%"></stop><stop style="stop-color: #2684ff;stop-opacity: 1" offset="100%"></stop></linearGradient></defs><g><g><g><g><use xlink:href="#i1teenWcKZ" opacity="1" fill="#000000" fill-opacity="0"></use><g><use xlink:href="#i1teenWcKZ" opacity="1" fill-opacity="0" stroke="#000000" stroke-width="1" stroke-opacity="0"></use></g></g><g><use xlink:href="#b12T5dN64i" opacity="1" fill="#2684ff" fill-opacity="1"></use><g><use xlink:href="#b12T5dN64i" opacity="1" fill-opacity="0" stroke="#000000" stroke-width="1" stroke-opacity="0"></use></g></g><g><use xlink:href="#aMQzmG4Mu" opacity="1" fill="url(#gradientaptcuV5Po)"></use><g><use xlink:href="#aMQzmG4Mu" opacity="1" fill-opacity="0" stroke="#000000" stroke-width="1" stroke-opacity="0"></use></g></g></g></g></g></svg>