<svg enable-background="new 0 0 200 200" viewBox="0 0 200 200" xmlns="http://www.w3.org/2000/svg"><path d="m74.7 100c0-13.2 10.7-23.8 23.8-23.8s23.8 10.7 23.8 23.8-10.7 23.8-23.8 23.8-23.8-10.7-23.8-23.8zm23.8-100c-46.7 0-85.8 32-96.9 75.2-.1.3-.1.6-.1 1 0 2.6 2.1 4.8 4.8 4.8h40.3c1.9 0 3.6-1.1 4.3-2.8 8.3-18 26.5-30.6 47.6-30.6 28.9 0 52.4 23.5 52.4 52.4s-23.5 52.4-52.4 52.4c-21.1 0-39.3-12.5-47.6-30.6-.8-1.6-2.4-2.8-4.3-2.8h-40.3c-2.6 0-4.8 2.1-4.8 4.8 0 .3.1.6.1 1 11 43.2 50.2 75.2 96.9 75.2 55.2 0 100-44.8 100-100s-44.8-100-100-100z" fill="#064c64"/></svg>