<svg height="288" viewBox="0 0 201 288" width="201" xmlns="http://www.w3.org/2000/svg"><g fill="none" fill-rule="evenodd"><path d="m100 184.982321v38.017679" stroke="#44525e" stroke-linecap="round" stroke-width="2"/><path d="m100 229-5-10h10z" fill="#44525e"/><path d="m100 184.982321-63 38.017679" stroke="#44525e" stroke-linecap="round" stroke-width="2"/><path d="m35.0323318 230.032332-5-10h10z" fill="#44525e" transform="matrix(.62932039 .77714596 -.77714596 .62932039 187.868739 56.189661)"/><path d="m163 184.982321-63 38.017679" stroke="#44525e" stroke-linecap="round" stroke-width="2" transform="matrix(-1 0 0 1 263 0)"/><path d="m165.032332 230.032332-5-10h10z" fill="#44525e" transform="matrix(-.62932039 .77714596 .77714596 .62932039 94.007576 -44.839313)"/><path d="m100.030726 184.184731c-20.4517064 0-37.030726-16.60802-37.030726-37.092366s16.5790196-37.092365 37.030726-37.092365c20.450305 0 37.029324 16.608019 37.029324 37.092365s-16.579019 37.092366-37.029324 37.092366z" fill="#fff" stroke="#eacc2f" stroke-width="3"/><g transform="translate(65)"><circle cx="24.5" cy="24.5" fill="#fff" fill-rule="evenodd" r="24.5"/><circle cx="24.5" cy="24.5" r="23" stroke="#44525e" stroke-width="3"/><path d="m24.5 10c-6.8627528 0-12.5 1.8433819-12.5 4.1783126 0 .6144606 1.470548 9.3397231 2.0833008 12.7806634.2451401 1.5975584 4.2892693 3.8095775 10.4166992 3.8095775 6.1275276 0 10.0490866-2.2120191 10.4166992-3.8095775.6127528-3.4409403 2.0833008-12.1662028 2.0833008-12.7806634-.1224724-2.3349307-5.6372472-4.1783126-12.5-4.1783126zm0 17.9420738c-2.2058709 0-3.9215591-1.7204702-3.9215591-3.9324892 0-2.2120191 1.7156882-3.9324892 3.9215591-3.9324892s3.9215591 1.7204701 3.9215591 3.9324892c0 2.0891073-1.7156882 3.9324892-3.9215591 3.9324892zm0-12.5348399c-4.4117417 0-7.9656882-.7374703-7.9656882-1.7204702 0-.9831957 3.5539465-1.7204701 7.9656882-1.7204701s7.9656882.7372744 7.9656882 1.7204701c0 .9830978-3.5539465 1.7204702-7.9656882 1.7204702zm9.0445979 14.8697706c.2451402 0 .3677103.2457255.2451402.491549v.1229117c-.4901827 2.5806562-.8578929 4.4240381-.8578929 4.6698615-.3676126 1.8433819-4.0441292 3.3181265-8.4558709 3.3181265s-8.0882583-1.4747446-8.4558709-3.3181265c0-.2458234-.3676125-2.0892053-.8578929-4.6698615v-.1228138c0-.3687351.2450425-.4916469.4901827-.4916469.1225701 0 .3677102.1229118.3677102.1229118s3.0636662 2.4578424 8.578441 2.4578424c5.5146772 0 8.5784409-2.4578424 8.5784409-2.4578424s.1224725-.1229118.3676126-.1229118zm-9.0445979-4.4240381c-1.0829356 0-1.9608284-.8803396-1.9608284-1.9662935 0-1.085954.8778928-1.9662936 1.9608284-1.9662936s1.9608284.8803396 1.9608284 1.9662936c0 1.0859539-.8778928 1.9662935-1.9608284 1.9662935z" fill="#44525e" fill-rule="nonzero"/><circle cx="58.5" cy="42.5" fill="#fff" fill-rule="evenodd" r="24.5"/><circle cx="58.5" cy="42.5" r="23" stroke="#44525e" stroke-width="3"/><path d="m44 42.3800802c0 6.7949931 4.2975536 12.5589826 10.2581417 14.5926654.7504835.1416214 1.0239725-.3332823 1.0239725-.7411518 0-.364439-.0128917-1.332185-.0202584-2.6152745-4.1723196.9290361-5.0526413-2.0620071-5.0526413-2.0620071-.6823414-1.776876-1.665797-2.2498914-1.665797-2.2498914-1.3619202-.9535839.103134-.934701.103134-.934701 1.505571.1085764 2.2974922 1.5852151 2.2974922 1.5852151 1.3379785 2.3499705 3.5111575 1.6711321 4.3656957 1.2774247.1362841-.9932378.5239572-1.6711321.9521471-2.055398-3.3306731-.3880426-6.8326223-1.7079537-6.8326223-7.6012907 0-1.6786853.5847325-3.0524125 1.5442463-4.1268466-.1547008-.3889867-.6694496-1.9534307.1473342-4.070198 0 0 1.2587864-.4135344 4.124436 1.5767178 1.1961693-.3417795 2.4798183-.5117252 3.7551797-.5183342 1.2744406.006609 2.5571687.1765547 3.7551797.5183342 2.863808-1.9902522 4.1207527-1.5767178 4.1207527-1.5767178.8186255 2.1167673.3038767 3.6812113.1500967 4.070198.9613554 1.0744341 1.5414837 2.4481613 1.5414837 4.1268466 0 5.9084433-3.5074741 7.2085274-6.8482765 7.5890168.5377698.4749037 1.0175267 1.4133812 1.0175267 2.8484777 0 2.0553981-.0184168 3.7142564-.0184168 4.2184284 0 .4116461.2707265.8903263 1.0313392.7402077 5.9559839-2.0384035 10.2498542-7.7986165 10.2498542-14.5917213 0-8.4944494-6.7165966-15.3800802-15.0013813-15.3800802-8.2820221 0-14.9986187 6.8856308-14.9986187 15.3800802z" fill="#44525e"/></g><g transform="translate(0 232)"><rect fill="#fff" fill-rule="evenodd" height="55.273684" rx="5" width="56.851728"/><rect height="51.273684" rx="5" stroke="#44525e" stroke-width="4" width="52.851728" x="2" y="2"/><path d="m0 5.7426191c0-2.76461429 2.23446755-5.00577699 5.00841312-5.00577699h46.98317378c2.7660702 0 5.0084131 2.23870396 5.0084131 5.00577699v6.2573809h-57z" fill="#44525e"/><circle cx="6" cy="6" fill="#fff" r="2"/><circle cx="13" cy="6" fill="#fff" r="2"/><g transform="translate(22 15)"><path d="m4.65662976 7.19621988h-3.94991772l1.30575288 3.03415922h8.00635898l-8.46557011-10.2303791zm7.37332214 18.58683262-1.307279-3.0357982h-1.83455529l-.03845836-.0907387-2.53611516-5.8789442h-1.4763737l2.57503136 5.9696829h-4.69619303l8.46694358 10.2324651-3.10429159-7.1966669z" fill="#eacc2f"/><path d="m9.37894729 16.1800507-2.32664046-5.3883458h-5.79679675c-.44263305 0-.68681828 0-.88715416.6260683-.23820806.7469673-.34417143 2.3054032-.34417143 5.050864 0 2.7454705.10596337 4.3036209.34417143 5.0504307.20033588.6257532.44452111.6257532.88715416.6257532h5.25636845l-2.57676246-5.967803h2.12160968l-1.28682636-2.9793329h.64261555l1.28492821 2.9823655zm3.82063811 3.5595384h-4.96295245l1.03820874 2.405232h3.92474371c.0978053 0 .3235037-.1167638.3235037-1.2013902 0-1.0864478-.2256984-1.2038418-.3235037-1.2038418zm0-6.5419039c.0978053 0 .3235037-.1182998.3235037-1.2029261 0-1.0859753-.2256984-1.2030542-.3235037-1.2030542h-5.50463273l1.03820875 2.4059803zm.4595447 3.5595384h-6.71088848l1.03916792 2.4058227h5.67172056c.0975126 0 .3238168-.1173841.3238168-1.202611 0-1.0855125-.2263042-1.2032117-.3238168-1.2032117zm0-2.982395h-4.67642218l1.03884478 2.4052221h3.6375774c.0975126 0 .3238168-.1179749.3238168-1.2032018 0-1.0846362-.2263042-1.2020203-.3238168-1.2020203z" fill="#44525e"/></g></g><g transform="translate(71 232)"><rect fill="#fff" fill-rule="evenodd" height="55.273684" rx="5" width="56.851728"/><rect height="51.273684" rx="5" stroke="#44525e" stroke-width="4" width="52.851728" x="2" y="2"/><path d="m0 5.7426191c0-2.76461429 2.23446755-5.00577699 5.00841312-5.00577699h46.98317378c2.7660702 0 5.0084131 2.23870396 5.0084131 5.00577699v6.2573809h-57z" fill="#44525e"/><circle cx="6" cy="6" fill="#fff" r="2"/><circle cx="13" cy="6" fill="#fff" r="2"/><g transform="translate(22 15)"><path d="m4.65662976 7.19621988h-3.94991772l1.30575288 3.03415922h8.00635898l-8.46557011-10.2303791zm7.37332214 18.58683262-1.307279-3.0357982h-1.83455529l-.03845836-.0907387-2.53611516-5.8789442h-1.4763737l2.57503136 5.9696829h-4.69619303l8.46694358 10.2324651-3.10429159-7.1966669z" fill="#eacc2f"/><path d="m9.37894729 16.1800507-2.32664046-5.3883458h-5.79679675c-.44263305 0-.68681828 0-.88715416.6260683-.23820806.7469673-.34417143 2.3054032-.34417143 5.050864 0 2.7454705.10596337 4.3036209.34417143 5.0504307.20033588.6257532.44452111.6257532.88715416.6257532h5.25636845l-2.57676246-5.967803h2.12160968l-1.28682636-2.9793329h.64261555l1.28492821 2.9823655zm3.82063811 3.5595384h-4.96295245l1.03820874 2.405232h3.92474371c.0978053 0 .3235037-.1167638.3235037-1.2013902 0-1.0864478-.2256984-1.2038418-.3235037-1.2038418zm0-6.5419039c.0978053 0 .3235037-.1182998.3235037-1.2029261 0-1.0859753-.2256984-1.2030542-.3235037-1.2030542h-5.50463273l1.03820875 2.4059803zm.4595447 3.5595384h-6.71088848l1.03916792 2.4058227h5.67172056c.0975126 0 .3238168-.1173841.3238168-1.202611 0-1.0855125-.2263042-1.2032117-.3238168-1.2032117zm0-2.982395h-4.67642218l1.03884478 2.4052221h3.6375774c.0975126 0 .3238168-.1179749.3238168-1.2032018 0-1.0846362-.2263042-1.2020203-.3238168-1.2020203z" fill="#44525e"/></g></g><g transform="translate(144 232)"><rect fill="#fff" fill-rule="evenodd" height="55.273684" rx="5" width="56.851728"/><rect height="51.273684" rx="5" stroke="#44525e" stroke-width="4" width="52.851728" x="2" y="2"/><path d="m0 5.7426191c0-2.76461429 2.23446755-5.00577699 5.00841312-5.00577699h46.98317378c2.7660702 0 5.0084131 2.23870396 5.0084131 5.00577699v6.2573809h-57z" fill="#44525e"/><circle cx="6" cy="6" fill="#fff" r="2"/><circle cx="13" cy="6" fill="#fff" r="2"/><g transform="translate(22 15)"><path d="m4.65662976 7.19621988h-3.94991772l1.30575288 3.03415922h8.00635898l-8.46557011-10.2303791zm7.37332214 18.58683262-1.307279-3.0357982h-1.83455529l-.03845836-.0907387-2.53611516-5.8789442h-1.4763737l2.57503136 5.9696829h-4.69619303l8.46694358 10.2324651-3.10429159-7.1966669z" fill="#eacc2f"/><path d="m9.37894729 16.1800507-2.32664046-5.3883458h-5.79679675c-.44263305 0-.68681828 0-.88715416.6260683-.23820806.7469673-.34417143 2.3054032-.34417143 5.050864 0 2.7454705.10596337 4.3036209.34417143 5.0504307.20033588.6257532.44452111.6257532.88715416.6257532h5.25636845l-2.57676246-5.967803h2.12160968l-1.28682636-2.9793329h.64261555l1.28492821 2.9823655zm3.82063811 3.5595384h-4.96295245l1.03820874 2.405232h3.92474371c.0978053 0 .3235037-.1167638.3235037-1.2013902 0-1.0864478-.2256984-1.2038418-.3235037-1.2038418zm0-6.5419039c.0978053 0 .3235037-.1182998.3235037-1.2029261 0-1.0859753-.2256984-1.2030542-.3235037-1.2030542h-5.50463273l1.03820875 2.4059803zm.4595447 3.5595384h-6.71088848l1.03916792 2.4058227h5.67172056c.0975126 0 .3238168-.1173841.3238168-1.202611 0-1.0855125-.2263042-1.2032117-.3238168-1.2032117zm0-2.982395h-4.67642218l1.03884478 2.4052221h3.6375774c.0975126 0 .3238168-.1179749.3238168-1.2032018 0-1.0846362-.2263042-1.2020203-.3238168-1.2020203z" fill="#44525e"/></g></g><path d="m100 61v40.013511" stroke="#44525e" stroke-linecap="round" stroke-width="2"/><path d="m100 108-5-10h10z" fill="#44525e"/><rect height="40.416353" rx="5" stroke="#44525e" stroke-width="4" width="41.880342" x="79" y="127"/><path d="m77 130.525376c0-2.499296 2.0359166-4.525376 4.515468-4.525376h36.969064c2.493824 0 4.515468 2.031165 4.515468 4.525376v4.525376h-46z" fill="#44525e"/><path d="m82.6140351 131.214286c-.891407 0-1.6140351-.719543-1.6140351-1.607143 0-.887601.7226281-1.607143 1.6140351-1.607143s1.6140351.719542 1.6140351 1.607143c0 .8876-.7226281 1.607143-1.6140351 1.607143zm5.4117647 0c-.891407 0-1.6140351-.719543-1.6140351-1.607143 0-.887601.7226281-1.607143 1.6140351-1.607143s1.6140351.719542 1.6140351 1.607143c0 .8876-.7226281 1.607143-1.6140351 1.607143z" fill="#fff"/><path d="m112.969999 150.841533-8.361847 4.497461v-1.883636l5.995064-3.14352-5.995064-2.975913v-1.879393l8.361847 4.327025zm-17.4211505 8.131353 7.1562205-16.972886h1.890158l-7.1349363 16.972886zm-8.5488485-8.131353 8.3618472 4.497461v-1.883636l-5.9950644-3.14352 5.9950644-2.975913v-1.879393l-8.3618472 4.327025z" fill="#44525e"/><g transform="translate(106 121)"><circle cx="11.5" cy="11.5" fill="#fff" r="11.5"/><path d="m17.2549396 12.5945144c0 .2333539-.1916076.4252841-.4259478.4252841h-3.8293947v3.8896924c0 .2347347-.1916075.4266648-.4259478.4266648h-2.5529298c-.23434016 0-.42594774-.1919301-.42594774-.4266648v-3.8896924h-3.82801623c-.23434021 0-.42594779-.1919302-.42594779-.4252841v-2.5586085c0-.23335388.19160758-.42528404.42594779-.42528404h3.82801623v-3.8344607c0-.23611551.19160758-.42804566.42594774-.42804566h2.5529298c.2343403 0 .4259478.19193015.4259478.42804566v3.8344607h3.8293947c.2343402 0 .4259478.19193016.4259478.42528404zm-5.9563767-11.5945144c-5.68757468 0-10.2985629 4.61737003-10.2985629 10.3159006 0 5.6971497 4.61098822 10.3145197 10.2985629 10.3145197 5.6861962 0 10.2971845-4.61737 10.2971845-10.3145197 0-5.69853057-4.6109883-10.3159006-10.2971845-10.3159006z" fill="#44525e"/></g></g></svg>