<?xml version="1.0" encoding="UTF-8"?>
<svg width="201px" height="288px" viewBox="0 0 201 288" version="1.1" xmlns="http://www.w3.org/2000/svg" xmlns:xlink="http://www.w3.org/1999/xlink">
    <!-- Generator: Sketch 43.2 (39069) - https://www.sketchapp.com -->
    <title>empty state illustration</title>
    <desc>Created with Sketch.</desc>
    <defs>
        <circle id="path-1" cx="24.5" cy="24.5" r="24.5"></circle>
        <circle id="path-2" cx="58.5" cy="42.5" r="24.5"></circle>
        <rect id="path-3" x="0" y="0" width="56.851728" height="55.2736842" rx="5"></rect>
        <rect id="path-4" x="0" y="0" width="56.851728" height="55.2736842" rx="5"></rect>
        <rect id="path-5" x="0" y="0" width="56.851728" height="55.2736842" rx="5"></rect>
    </defs>
    <g id="Page-1" stroke="none" stroke-width="1" fill="none" fill-rule="evenodd">
        <g id="empty-state-illustration">
            <g id="Group-16">
                <path d="M100,184.982321 L100,223" id="Line-Copy-22" stroke="#44525E" stroke-width="2" stroke-linecap="round"></path>
                <polygon id="Triangle-3-Copy-21" fill="#44525E" points="100 229 95 219 105 219"></polygon>
                <path d="M100,184.982321 L37,223" id="Line-Copy-23" stroke="#44525E" stroke-width="2" stroke-linecap="round"></path>
                <polygon id="Triangle-3-Copy-22" fill="#44525E" transform="translate(35.032332, 225.032332) rotate(51.000000) translate(-35.032332, -225.032332) " points="35.0323318 230.032332 30.0323318 220.032332 40.0323318 220.032332"></polygon>
                <path d="M163,184.982321 L100,223" id="Line-Copy-24" stroke="#44525E" stroke-width="2" stroke-linecap="round" transform="translate(131.500000, 203.500000) scale(-1, 1) translate(-131.500000, -203.500000) "></path>
                <polygon id="Triangle-3-Copy-23" fill="#44525E" transform="translate(165.032332, 225.032332) scale(-1, 1) rotate(51.000000) translate(-165.032332, -225.032332) " points="165.032332 230.032332 160.032332 220.032332 170.032332 220.032332"></polygon>
                <path d="M100.030726,184.184731 C79.5790196,184.184731 63,167.576711 63,147.092365 C63,126.608019 79.5790196,110 100.030726,110 C120.481031,110 137.06005,126.608019 137.06005,147.092365 C137.06005,167.576711 120.481031,184.184731 100.030726,184.184731 Z" id="Fill-1-Copy-3" stroke="#EACC2F" stroke-width="3" fill="#FFFFFF"></path>
                <g id="Group-9" transform="translate(65.000000, 0.000000)">
                    <g id="Oval-5-Copy">
                        <use fill="#FFFFFF" fill-rule="evenodd" xlink:href="#path-1"></use>
                        <circle stroke="#44525E" stroke-width="3" cx="24.5" cy="24.5" r="23"></circle>
                    </g>
                    <path d="M24.5,10 C17.6372472,10 12,11.8433819 12,14.1783126 C12,14.7927732 13.470548,23.5180357 14.0833008,26.958976 C14.3284409,28.5565344 18.3725701,30.7685535 24.5,30.7685535 C30.6275276,30.7685535 34.5490866,28.5565344 34.9166992,26.958976 C35.529452,23.5180357 37,14.7927732 37,14.1783126 C36.8775276,11.8433819 31.3627528,10 24.5,10 Z M24.5,27.9420738 C22.2941291,27.9420738 20.5784409,26.2216036 20.5784409,24.0095846 C20.5784409,21.7975655 22.2941291,20.0770954 24.5,20.0770954 C26.7058709,20.0770954 28.4215591,21.7975655 28.4215591,24.0095846 C28.4215591,26.0986919 26.7058709,27.9420738 24.5,27.9420738 Z M24.5,15.4072339 C20.0882583,15.4072339 16.5343118,14.6697636 16.5343118,13.6867637 C16.5343118,12.703568 20.0882583,11.9662936 24.5,11.9662936 C28.9117417,11.9662936 32.4656882,12.703568 32.4656882,13.6867637 C32.4656882,14.6698615 28.9117417,15.4072339 24.5,15.4072339 Z M33.5445979,30.2770045 L33.5445979,30.2770045 C33.7897381,30.2770045 33.9123082,30.52273 33.7897381,30.7685535 L33.7897381,30.8914652 C33.2995554,33.4721214 32.9318452,35.3155033 32.9318452,35.5613267 C32.5642326,37.4047086 28.887716,38.8794532 24.4759743,38.8794532 C20.0642326,38.8794532 16.387716,37.4047086 16.0201034,35.5613267 C16.0201034,35.3155033 15.6524909,33.4721214 15.1622105,30.8914652 L15.1622105,30.7686514 C15.1622105,30.3999163 15.407253,30.2770045 15.6523932,30.2770045 C15.7749633,30.2770045 16.0201034,30.3999163 16.0201034,30.3999163 C16.0201034,30.3999163 19.0837696,32.8577587 24.5985444,32.8577587 C30.1132216,32.8577587 33.1769853,30.3999163 33.1769853,30.3999163 C33.1769853,30.3999163 33.2994578,30.2770045 33.5445979,30.2770045 Z M24.5,25.8529664 C23.4170644,25.8529664 22.5391716,24.9726268 22.5391716,23.8866729 C22.5391716,22.8007189 23.4170644,21.9203793 24.5,21.9203793 C25.5829356,21.9203793 26.4608284,22.8007189 26.4608284,23.8866729 C26.4608284,24.9726268 25.5829356,25.8529664 24.5,25.8529664 Z" id="Combined-Shape" fill="#44525E" fill-rule="nonzero"></path>
                    <g id="Oval-5">
                        <use fill="#FFFFFF" fill-rule="evenodd" xlink:href="#path-2"></use>
                        <circle stroke="#44525E" stroke-width="3" cx="58.5" cy="42.5" r="23"></circle>
                    </g>
                    <path d="M44,42.3800802 C44,49.1750733 48.2975536,54.9390628 54.2581417,56.9727456 C55.0086252,57.114367 55.2821142,56.6394633 55.2821142,56.2315938 C55.2821142,55.8671548 55.2692225,54.8994088 55.2618558,53.6163193 C51.0895362,54.5453554 50.2092145,51.5543122 50.2092145,51.5543122 C49.5268731,49.7774362 48.5434175,49.3044208 48.5434175,49.3044208 C47.1814973,48.3508369 48.6465515,48.3697198 48.6465515,48.3697198 C50.1521225,48.4782962 50.9440437,49.9549349 50.9440437,49.9549349 C52.2820222,52.3049054 54.4552012,51.626067 55.3097394,51.2323596 C55.4460235,50.2391218 55.8336966,49.5612275 56.2618865,49.1769616 C52.9312134,48.788919 49.4292642,47.4690079 49.4292642,41.5756709 C49.4292642,39.8969856 50.0139967,38.5232584 50.9735105,37.4488243 C50.8188097,37.0598376 50.3040609,35.4953936 51.1208447,33.3786263 C51.1208447,33.3786263 52.3796311,32.9650919 55.2452807,34.9553441 C56.44145,34.6135646 57.725099,34.4436189 59.0004604,34.4370099 C60.274901,34.4436189 61.5576291,34.6135646 62.7556401,34.9553441 C65.6194481,32.9650919 66.8763928,33.3786263 66.8763928,33.3786263 C67.6950183,35.4953936 67.1802695,37.0598376 67.0264895,37.4488243 C67.9878449,38.5232584 68.5679732,39.8969856 68.5679732,41.5756709 C68.5679732,47.4841142 65.0604991,48.7841983 61.7196967,49.1646877 C62.2574665,49.6395914 62.7372234,50.5780689 62.7372234,52.0131654 C62.7372234,54.0685635 62.7188066,55.7274218 62.7188066,56.2315938 C62.7188066,56.6432399 62.9895331,57.1219201 63.7501458,56.9718015 C69.7061297,54.933398 74,49.173185 74,42.3800802 C74,33.8856308 67.2834034,27 58.9986187,27 C50.7165966,27 44,33.8856308 44,42.3800802 Z" id="Fill-3" fill="#44525E"></path>
                </g>
                <g id="Group-8" transform="translate(0.000000, 232.000000)">
                    <g id="Group-11">
                        <g id="pantheon-site-2">
                            <g id="Group-17">
                                <g id="Rectangle-10">
                                    <use fill="#FFFFFF" fill-rule="evenodd" xlink:href="#path-3"></use>
                                    <rect stroke="#44525E" stroke-width="4" x="2" y="2" width="52.851728" height="51.2736842" rx="5"></rect>
                                </g>
                                <path d="M0,5.7426191 C0,2.97800481 2.23446755,0.736842105 5.00841312,0.736842105 L51.9915869,0.736842105 C54.7576571,0.736842105 57,2.97554607 57,5.7426191 L57,12 L0,12 L0,5.7426191 Z" id="Rectangle-11" fill="#44525E"></path>
                                <circle id="Oval-Copy" fill="#FFFFFF" cx="6" cy="6" r="2"></circle>
                                <circle id="Oval-Copy-3" fill="#FFFFFF" cx="13" cy="6" r="2"></circle>
                                <g id="Group-12-Copy" transform="translate(22.000000, 15.000000)">
                                    <path d="M4.65662976,7.19621988 L0.706712044,7.19621988 L2.01246492,10.2303791 L10.0188239,10.2303791 L1.55325379,0 L4.65662976,7.19621988 Z M12.0299519,25.7830525 L10.7226729,22.7472543 L8.88811761,22.7472543 L8.84965925,22.6565156 L6.31354409,16.7775714 L4.83717039,16.7775714 L7.41220175,22.7472543 L2.71600872,22.7472543 L11.1829523,32.9797194 L8.07866071,25.7830525 L12.0299519,25.7830525 L12.0299519,25.7830525 Z" id="Fill-1" fill="#EACC2F"></path>
                                    <path d="M9.37894729,16.1800507 L7.05230683,10.7917049 L1.25551008,10.7917049 C0.812877029,10.7917049 0.568691802,10.7917049 0.368355921,11.4177732 C0.130147856,12.1647405 0.0241844921,13.7231764 0.0241844921,16.4686372 C0.0241844921,19.2141077 0.130147856,20.7722581 0.368355921,21.5190679 C0.568691802,22.1448211 0.812877029,22.1448211 1.25551008,22.1448211 L6.51187853,22.1448211 L3.93511607,16.1770181 L6.05672575,16.1770181 L4.76989939,13.1976852 L5.41251494,13.1976852 L6.69744315,16.1800507 L9.37894729,16.1800507 Z M13.1995854,19.7395891 L8.23663295,19.7395891 L9.27484169,22.1448211 L13.1995854,22.1448211 C13.2973907,22.1448211 13.5230891,22.0280573 13.5230891,20.9434309 C13.5230891,19.8569831 13.2973907,19.7395891 13.1995854,19.7395891 L13.1995854,19.7395891 Z M13.1995854,13.1976852 C13.2973907,13.1976852 13.5230891,13.0793854 13.5230891,11.9947591 C13.5230891,10.9087838 13.2973907,10.7917049 13.1995854,10.7917049 L7.69495267,10.7917049 L8.73316142,13.1976852 L13.1995854,13.1976852 L13.1995854,13.1976852 Z M13.6591301,16.7572236 L6.94824162,16.7572236 L7.98740954,19.1630463 L13.6591301,19.1630463 C13.7566427,19.1630463 13.9829469,19.0456622 13.9829469,17.9604353 C13.9829469,16.8749228 13.7566427,16.7572236 13.6591301,16.7572236 L13.6591301,16.7572236 Z M13.6591301,13.7748286 L8.98270792,13.7748286 L10.0215527,16.1800507 L13.6591301,16.1800507 C13.7566427,16.1800507 13.9829469,16.0620758 13.9829469,14.9768489 C13.9829469,13.8922127 13.7566427,13.7748286 13.6591301,13.7748286 L13.6591301,13.7748286 Z" id="Fill-2" fill="#44525E"></path>
                                </g>
                            </g>
                        </g>
                    </g>
                    <g id="Group-11" transform="translate(71.000000, 0.000000)">
                        <g id="pantheon-site-2">
                            <g id="Group-17">
                                <g id="Rectangle-10">
                                    <use fill="#FFFFFF" fill-rule="evenodd" xlink:href="#path-4"></use>
                                    <rect stroke="#44525E" stroke-width="4" x="2" y="2" width="52.851728" height="51.2736842" rx="5"></rect>
                                </g>
                                <path d="M0,5.7426191 C0,2.97800481 2.23446755,0.736842105 5.00841312,0.736842105 L51.9915869,0.736842105 C54.7576571,0.736842105 57,2.97554607 57,5.7426191 L57,12 L0,12 L0,5.7426191 Z" id="Rectangle-11" fill="#44525E"></path>
                                <circle id="Oval-Copy" fill="#FFFFFF" cx="6" cy="6" r="2"></circle>
                                <circle id="Oval-Copy-3" fill="#FFFFFF" cx="13" cy="6" r="2"></circle>
                                <g id="Group-12-Copy" transform="translate(22.000000, 15.000000)">
                                    <path d="M4.65662976,7.19621988 L0.706712044,7.19621988 L2.01246492,10.2303791 L10.0188239,10.2303791 L1.55325379,0 L4.65662976,7.19621988 Z M12.0299519,25.7830525 L10.7226729,22.7472543 L8.88811761,22.7472543 L8.84965925,22.6565156 L6.31354409,16.7775714 L4.83717039,16.7775714 L7.41220175,22.7472543 L2.71600872,22.7472543 L11.1829523,32.9797194 L8.07866071,25.7830525 L12.0299519,25.7830525 L12.0299519,25.7830525 Z" id="Fill-1" fill="#EACC2F"></path>
                                    <path d="M9.37894729,16.1800507 L7.05230683,10.7917049 L1.25551008,10.7917049 C0.812877029,10.7917049 0.568691802,10.7917049 0.368355921,11.4177732 C0.130147856,12.1647405 0.0241844921,13.7231764 0.0241844921,16.4686372 C0.0241844921,19.2141077 0.130147856,20.7722581 0.368355921,21.5190679 C0.568691802,22.1448211 0.812877029,22.1448211 1.25551008,22.1448211 L6.51187853,22.1448211 L3.93511607,16.1770181 L6.05672575,16.1770181 L4.76989939,13.1976852 L5.41251494,13.1976852 L6.69744315,16.1800507 L9.37894729,16.1800507 Z M13.1995854,19.7395891 L8.23663295,19.7395891 L9.27484169,22.1448211 L13.1995854,22.1448211 C13.2973907,22.1448211 13.5230891,22.0280573 13.5230891,20.9434309 C13.5230891,19.8569831 13.2973907,19.7395891 13.1995854,19.7395891 L13.1995854,19.7395891 Z M13.1995854,13.1976852 C13.2973907,13.1976852 13.5230891,13.0793854 13.5230891,11.9947591 C13.5230891,10.9087838 13.2973907,10.7917049 13.1995854,10.7917049 L7.69495267,10.7917049 L8.73316142,13.1976852 L13.1995854,13.1976852 L13.1995854,13.1976852 Z M13.6591301,16.7572236 L6.94824162,16.7572236 L7.98740954,19.1630463 L13.6591301,19.1630463 C13.7566427,19.1630463 13.9829469,19.0456622 13.9829469,17.9604353 C13.9829469,16.8749228 13.7566427,16.7572236 13.6591301,16.7572236 L13.6591301,16.7572236 Z M13.6591301,13.7748286 L8.98270792,13.7748286 L10.0215527,16.1800507 L13.6591301,16.1800507 C13.7566427,16.1800507 13.9829469,16.0620758 13.9829469,14.9768489 C13.9829469,13.8922127 13.7566427,13.7748286 13.6591301,13.7748286 L13.6591301,13.7748286 Z" id="Fill-2" fill="#44525E"></path>
                                </g>
                            </g>
                        </g>
                    </g>
                    <g id="Group-11" transform="translate(144.000000, 0.000000)">
                        <g id="pantheon-site-2">
                            <g id="Group-17">
                                <g id="Rectangle-10">
                                    <use fill="#FFFFFF" fill-rule="evenodd" xlink:href="#path-5"></use>
                                    <rect stroke="#44525E" stroke-width="4" x="2" y="2" width="52.851728" height="51.2736842" rx="5"></rect>
                                </g>
                                <path d="M0,5.7426191 C0,2.97800481 2.23446755,0.736842105 5.00841312,0.736842105 L51.9915869,0.736842105 C54.7576571,0.736842105 57,2.97554607 57,5.7426191 L57,12 L0,12 L0,5.7426191 Z" id="Rectangle-11" fill="#44525E"></path>
                                <circle id="Oval-Copy" fill="#FFFFFF" cx="6" cy="6" r="2"></circle>
                                <circle id="Oval-Copy-3" fill="#FFFFFF" cx="13" cy="6" r="2"></circle>
                                <g id="Group-12-Copy" transform="translate(22.000000, 15.000000)">
                                    <path d="M4.65662976,7.19621988 L0.706712044,7.19621988 L2.01246492,10.2303791 L10.0188239,10.2303791 L1.55325379,0 L4.65662976,7.19621988 Z M12.0299519,25.7830525 L10.7226729,22.7472543 L8.88811761,22.7472543 L8.84965925,22.6565156 L6.31354409,16.7775714 L4.83717039,16.7775714 L7.41220175,22.7472543 L2.71600872,22.7472543 L11.1829523,32.9797194 L8.07866071,25.7830525 L12.0299519,25.7830525 L12.0299519,25.7830525 Z" id="Fill-1" fill="#EACC2F"></path>
                                    <path d="M9.37894729,16.1800507 L7.05230683,10.7917049 L1.25551008,10.7917049 C0.812877029,10.7917049 0.568691802,10.7917049 0.368355921,11.4177732 C0.130147856,12.1647405 0.0241844921,13.7231764 0.0241844921,16.4686372 C0.0241844921,19.2141077 0.130147856,20.7722581 0.368355921,21.5190679 C0.568691802,22.1448211 0.812877029,22.1448211 1.25551008,22.1448211 L6.51187853,22.1448211 L3.93511607,16.1770181 L6.05672575,16.1770181 L4.76989939,13.1976852 L5.41251494,13.1976852 L6.69744315,16.1800507 L9.37894729,16.1800507 Z M13.1995854,19.7395891 L8.23663295,19.7395891 L9.27484169,22.1448211 L13.1995854,22.1448211 C13.2973907,22.1448211 13.5230891,22.0280573 13.5230891,20.9434309 C13.5230891,19.8569831 13.2973907,19.7395891 13.1995854,19.7395891 L13.1995854,19.7395891 Z M13.1995854,13.1976852 C13.2973907,13.1976852 13.5230891,13.0793854 13.5230891,11.9947591 C13.5230891,10.9087838 13.2973907,10.7917049 13.1995854,10.7917049 L7.69495267,10.7917049 L8.73316142,13.1976852 L13.1995854,13.1976852 L13.1995854,13.1976852 Z M13.6591301,16.7572236 L6.94824162,16.7572236 L7.98740954,19.1630463 L13.6591301,19.1630463 C13.7566427,19.1630463 13.9829469,19.0456622 13.9829469,17.9604353 C13.9829469,16.8749228 13.7566427,16.7572236 13.6591301,16.7572236 L13.6591301,16.7572236 Z M13.6591301,13.7748286 L8.98270792,13.7748286 L10.0215527,16.1800507 L13.6591301,16.1800507 C13.7566427,16.1800507 13.9829469,16.0620758 13.9829469,14.9768489 C13.9829469,13.8922127 13.7566427,13.7748286 13.6591301,13.7748286 L13.6591301,13.7748286 Z" id="Fill-2" fill="#44525E"></path>
                                </g>
                            </g>
                        </g>
                    </g>
                </g>
                <path d="M100,61 L100,101.013511" id="Line-Copy-25" stroke="#44525E" stroke-width="2" stroke-linecap="round"></path>
                <polygon id="Triangle-3-Copy-24" fill="#44525E" points="100 108 95 98 105 98"></polygon>
                <rect id="Rectangle-10-Copy-24" stroke="#44525E" stroke-width="4" x="79" y="127" width="41.8803419" height="40.4163534" rx="5"></rect>
                <path d="M77,130.525376 C77,128.02608 79.0359166,126 81.515468,126 L118.484532,126 C120.978356,126 123,128.031165 123,130.525376 L123,135.050752 L77,135.050752 L77,130.525376 Z" id="Rectangle-11-Copy" fill="#44525E"></path>
                <path d="M82.6140351,131.214286 C81.7226281,131.214286 81,130.494743 81,129.607143 C81,128.719542 81.7226281,128 82.6140351,128 C83.5054421,128 84.2280702,128.719542 84.2280702,129.607143 C84.2280702,130.494743 83.5054421,131.214286 82.6140351,131.214286 Z M88.0257998,131.214286 C87.1343928,131.214286 86.4117647,130.494743 86.4117647,129.607143 C86.4117647,128.719542 87.1343928,128 88.0257998,128 C88.9172068,128 89.6398349,128.719542 89.6398349,129.607143 C89.6398349,130.494743 88.9172068,131.214286 88.0257998,131.214286 Z" id="Combined-Shape" fill="#FFFFFF"></path>
                <path d="M112.969999,150.841533 L104.608152,155.338994 L104.608152,153.455358 L110.603216,150.311838 L104.608152,147.335925 L104.608152,145.456532 L112.969999,149.783557 L112.969999,150.841533 L112.969999,150.841533 Z M95.5488485,158.972886 L102.705069,142 L104.595227,142 L97.4602907,158.972886 L95.5488485,158.972886 L95.5488485,158.972886 Z M87,150.841533 L95.3618472,155.338994 L95.3618472,153.455358 L89.3667828,150.311838 L95.3618472,147.335925 L95.3618472,145.456532 L87,149.783557 L87,150.841533 L87,150.841533 Z" id="Fill-747-Copy-2" fill="#44525E"></path>
                <g id="Group-15" transform="translate(106.000000, 121.000000)">
                    <circle id="Oval-6" fill="#FFFFFF" cx="11.5" cy="11.5" r="11.5"></circle>
                    <path d="M17.2549396,12.5945144 C17.2549396,12.8278683 17.063332,13.0197985 16.8289918,13.0197985 L12.9995971,13.0197985 L12.9995971,16.9094909 C12.9995971,17.1442256 12.8079896,17.3361557 12.5736493,17.3361557 L10.0207195,17.3361557 C9.78637934,17.3361557 9.59477176,17.1442256 9.59477176,16.9094909 L9.59477176,13.0197985 L5.76675553,13.0197985 C5.53241532,13.0197985 5.34080774,12.8278683 5.34080774,12.5945144 L5.34080774,10.0359059 C5.34080774,9.80255202 5.53241532,9.61062186 5.76675553,9.61062186 L9.59477176,9.61062186 L9.59477176,5.77616116 C9.59477176,5.54004565 9.78637934,5.3481155 10.0207195,5.3481155 L12.5736493,5.3481155 C12.8079896,5.3481155 12.9995971,5.54004565 12.9995971,5.77616116 L12.9995971,9.61062186 L16.8289918,9.61062186 C17.063332,9.61062186 17.2549396,9.80255202 17.2549396,10.0359059 L17.2549396,12.5945144 Z M11.2985629,1 C5.61098822,1 1,5.61737003 1,11.3159006 C1,17.0130503 5.61098822,21.6304203 11.2985629,21.6304203 C16.9847591,21.6304203 21.5957474,17.0130503 21.5957474,11.3159006 C21.5957474,5.61737003 16.9847591,1 11.2985629,1 L11.2985629,1 Z" id="Fill-13" fill="#44525E"></path>
                </g>
            </g>
        </g>
    </g>
</svg>