<svg xmlns="http://www.w3.org/2000/svg" width="16" height="16" viewBox="0 0 16 16">
  <path fill="#000000" fill-rule="evenodd" d="M15.5715,1.74491 L14.6732,5.11944 C14.2816,6.59062 13.3453,7.85791 12.0542,8.66455 L4.81869,13.1849 L2.90789,11.2741 L7.42828,4.03863 C8.23492,2.74748 9.50221,1.81125 10.9734,1.41962 L14.3479,0.521322 C14.8816,0.379251 15.4294,0.696729 15.5715,1.23043 C15.6164,1.39899 15.6164,1.57635 15.5715,1.74491 Z M13.1949,2.8979 L11.4879,3.35232 C10.5071,3.6134 9.66223,4.23756 9.12446,5.09832 L6.01104,10.0818 L10.9945,6.96837 C11.8553,6.4306 12.4794,5.58574 12.7405,4.60496 L13.1949,2.8979 Z M6,14 L11,11 L11,12 C11,14.2091 9.20914,16 7,16 L6,16 L6,14 Z M2,10 L0,10 L0,9 C0,6.79086 1.79086,5 4,5 L5,5 L2,10 Z"/>
</svg>
