<?xml version="1.0" encoding="utf-8"?>
<!-- Generator: Adobe Illustrator 17.0.0, SVG Export Plug-In . SVG Version: 6.00 Build 0)  -->
<!DOCTYPE svg PUBLIC "-//W3C//DTD SVG 1.1//EN" "http://www.w3.org/Graphics/SVG/1.1/DTD/svg11.dtd">
<svg version="1.1" id="Layer_1" xmlns="http://www.w3.org/2000/svg" xmlns:xlink="http://www.w3.org/1999/xlink" x="0px" y="0px"
	 width="100px" height="100px" viewBox="0 0 100 100" enable-background="new 0 0 100 100" xml:space="preserve">
<path fill="#EECF1E" d="M50.187,99.369c-27.182,0-49.296-22.113-49.296-49.295S23.005,0.777,50.187,0.777
	s49.296,22.114,49.296,49.296S77.368,99.369,50.187,99.369z M50.187,5.308c-24.684,0-44.766,20.082-44.766,44.766
	S25.502,94.84,50.187,94.84c24.685,0,44.767-20.082,44.767-44.766S74.871,5.308,50.187,5.308z"/>
<rect x="1.367" y="1.235" fill="none" width="97.579" height="97.579"/>
<path fill="#44515D" d="M72.175,36.066H59.389V23.28c0-1.616-1.31-2.927-2.926-2.927h-28.68c-1.616,0-2.926,1.31-2.926,2.927v37.459
	c0,1.616,1.31,2.926,2.926,2.926h12.786v12.786c0,1.616,1.31,2.926,2.926,2.926h28.68c1.616,0,2.926-1.31,2.926-2.926V38.992
	C75.101,37.376,73.791,36.066,72.175,36.066z M40.569,38.992v21.161h-12.2V23.865h16.495l11.013,11.013v1.187H43.495
	C41.879,36.066,40.569,37.376,40.569,38.992z M71.589,75.866H44.081V39.578h16.495l11.013,11.013V75.866z"/>
</svg>
