<svg enable-background="new 0 0 200 200" height="200" viewBox="0 0 200 200" width="200" xmlns="http://www.w3.org/2000/svg"><g fill="#181d21"><path d="m100.25 1c-54.538 0-98.75 44.212-98.75 98.75s44.212 98.75 98.75 98.75 98.75-44.212 98.75-98.75-44.212-98.75-98.75-98.75zm62.895 124.807c-.473-.071-.947-.106-1.421-.106-5.36 0-9.72 4.36-9.72 9.72 0 .531.045 1.062.134 1.588-6.515-.737-13.09 1.993-17.165 7.105-3.454-1.432-7.665-.522-10.224 2.153-1.722-2.021-4.221-3.193-6.933-3.193-5.038 0-9.137 4.099-9.137 9.137v.054c-3.16-.023-5.827 1.97-6.819 4.758-1.398-1.449-3.354-2.33-5.457-2.33-1.419 0-2.787.393-3.973 1.124-1.547-3.152-4.809-5.247-8.397-5.247-.919 0-1.819.132-2.687.394-1.698-4.099-5.766-6.874-10.271-6.874-3.134 0-6.137 1.347-8.231 3.648-3.797-2.712-8.239-4.169-12.932-4.234.119-.809.179-1.624.179-2.437 0-9.214-7.495-16.709-16.708-16.709-1.592 0-3.158.224-4.675.666-1.076-10.261-6.996-19.026-15.372-24.068-.005-.402-.015-.803-.015-1.206 0-48.009 38.919-86.928 86.929-86.928s86.928 38.919 86.928 86.928c0 .506-.01 1.01-.019 1.514-12.515 1.722-22.557 11.803-24.014 24.543z"/><path d="m101.663 105.658-1.13-.001s-21.039.586.484 42.419l.152.001c21.536-41.826.494-42.419.494-42.419zm-.306 26.791h-.079c-11.289-24.218-.252-24.559-.252-24.559l.593.001c-.001.001 11.035.344-.262 24.558z"/><path d="m118.423 52.085c-.804-18.966-16.972-35.204-18.128-36.34l.001-.071s-.017.019-.034.036c-.019-.017-.037-.033-.037-.033l.001.068c-1.156 1.136-17.328 17.37-18.139 36.334-.043 1.057-.058 2.137-.055 3.231l36.447.006c.002-1.092-.011-2.175-.056-3.231zm-18.309-6.149c-3.329.002-6.029-2.698-6.028-6.028s2.7-6.028 6.028-6.026c3.332-.001 6.026 2.698 6.028 6.027-.002 3.33-2.7 6.029-6.028 6.027z"/><path d="m116.38 76.557c.981-5.754 1.775-11.979 2.021-17.893l-36.291-.003c.242 5.911 1.033 12.137 2.015 17.889-20.522 9.286-5.668 36.359-5.668 36.359l3.346-.166c-2.732-18.698 5.084-22.49 5.084-22.49l-.078-.449c1.314 5.653 2.388 9.354 2.388 9.354l11.015.002h.074l11.019.002s1.074-3.7 2.39-9.355l-.079.449s7.814 3.796 5.076 22.493l3.347.168c-.001-.001 14.861-27.07-5.659-36.36z"/></g></svg>