<svg enable-background="new 0 0 100 100" height="100" viewBox="0 0 100 100" width="100" xmlns="http://www.w3.org/2000/svg"><path d="m50.187 99.369c-27.182 0-49.296-22.113-49.296-49.295s22.114-49.297 49.296-49.297 49.296 22.114 49.296 49.296-22.115 49.296-49.296 49.296zm0-94.061c-24.684 0-44.766 20.082-44.766 44.766s20.081 44.766 44.766 44.766 44.767-20.082 44.767-44.766-20.083-44.766-44.767-44.766z" fill="#eecf1e"/><path d="m21.185 26.589h58.002v47.114h-58.002z" fill="none"/><path d="m44.193 44.539c-.045 0-.117.011-.211.034l-6.949 1.72 3-8.124c.06-.117.09-.222.09-.316 0-.2-.079-.369-.23-.516s-.339-.222-.561-.222h-5.756c-.188 0-.35.053-.489.158-.143.105-.233.241-.282.407l-3.527 14.475c-.056.279.019.508.23.685.151.128.331.192.542.192.094 0 .166-.008.211-.019l7.126-1.773-3.46 14.178c-.045.188-.019.365.079.527.102.166.248.275.448.335.117.023.2.034.245.034.343 0 .587-.147.738-.437l9.476-20.303c.128-.282.087-.538-.124-.772-.175-.177-.374-.263-.596-.263" fill="#fff"/><path d="m1.367 1.235h97.579v97.579h-97.579z" fill="none"/><path d="m46.116 31.844h34.758v-5.149h-34.758zm25.748 20.598h9.011v-5.149h-9.011zm-14.16-10.301c-.698 0-1.301.258-1.81.766-.512.508-.766 1.112-.766 1.81v10.297c0 .698.254 1.301.766 1.81.508.512 1.112.766 1.81.766h10.297c.698 0 1.301-.254 1.81-.766.508-.508.766-1.112.766-1.81v-10.297c0-.698-.258-1.301-.766-1.81-.508-.508-1.112-.766-1.81-.766zm-25.747-20.595c-.698 0-1.301.254-1.81.763-.508.512-.766 1.115-.766 1.81v10.301c0 .694.258 1.298.766 1.81.508.508 1.112.763 1.81.763h10.297c.698 0 1.301-.254 1.81-.763.512-.512.766-1.115.766-1.81v-10.301c0-.694-.254-1.298-.766-1.81-.508-.508-1.112-.763-1.81-.763zm19.308 51.491h29.61v-5.149h-29.61zm-32.182-41.193h9.011v-5.149h-9.011zm0 20.598h34.758v-5.149h-34.758zm18.022 10.297c-.698 0-1.301.254-1.81.763-.508.512-.763 1.115-.763 1.81v10.301c0 .694.254 1.298.763 1.81.508.508 1.112.763 1.81.763h10.297c.698 0 1.301-.254 1.814-.763.508-.512.763-1.115.763-1.81v-10.301c0-.694-.254-1.298-.763-1.81-.512-.508-1.115-.763-1.814-.763zm-18.022 10.298h14.16v-5.149h-14.16z" fill="#44515d"/><path d="m.807.694h98.344v98.344h-98.344z" fill="none"/></svg>