<svg enable-background="new 0 0 100 100" height="100" viewBox="0 0 100 100" width="100" xmlns="http://www.w3.org/2000/svg"><path d="m50.187 99.369c-27.182 0-49.296-22.113-49.296-49.295s22.114-49.297 49.296-49.297 49.296 22.114 49.296 49.296-22.115 49.296-49.296 49.296zm0-94.061c-24.684 0-44.766 20.082-44.766 44.766s20.081 44.766 44.766 44.766 44.767-20.082 44.767-44.766-20.083-44.766-44.767-44.766z" fill="#eecf1e"/><path d="m1.367 1.235h97.579v97.579h-97.579z" fill="none"/><path d="m72.175 36.066h-12.786v-12.786c0-1.616-1.31-2.927-2.926-2.927h-28.68c-1.616 0-2.926 1.31-2.926 2.927v37.459c0 1.616 1.31 2.926 2.926 2.926h12.786v12.786c0 1.616 1.31 2.926 2.926 2.926h28.68c1.616 0 2.926-1.31 2.926-2.926v-37.459c0-1.616-1.31-2.926-2.926-2.926zm-31.606 2.926v21.161h-12.2v-36.288h16.495l11.013 11.013v1.187h-12.382c-1.616.001-2.926 1.311-2.926 2.927zm31.02 36.874h-27.508v-36.288h16.495l11.013 11.013z" fill="#44515d"/></svg>