<svg height="42" viewBox="0 0 65 42" width="65" xmlns="http://www.w3.org/2000/svg"><path d="m78.8405071 61.6529286c0 .5738571-.416 1.0390714-.9220714 1.0390714h-23.0220714c-.5097857 0-.9257857-.4652143-.9257857-1.0390714v-8.6654286c0-.5738571.416-1.0437143.9257857-1.0437143h23.0220714c.5060714 0 .9220714.4698572.9220714 1.0437143zm0 10.8317857c0 .5738571-.2182142 1.0390714-.4837857 1.0390714h-24.3267143c-.2646428 0-.4828571-.4652143-.4828571-1.0390714v-2.8590714c0-.5738572.2182143-1.0437143.4828571-1.0437143h24.3267143c.2655715 0 .4837857.4698571.4837857 1.0437143zm0 7.7210714c0 .5738572-.2182142 1.0390714-.4837857 1.0390714h-24.3267143c-.2646428 0-.4828571-.4652142-.4828571-1.0390714v-2.8581428c0-.5738572.2182143-1.0446429.4828571-1.0446429h24.3267143c.2655715 0 .4837857.4707857.4837857 1.0446429zm-31.8992142-.5803571c-1.0678572.3630714-2.171.6314285-3.2806429.8524285-2.1431429.4252858-4.3531429.7521429-6.5529286.767-2.1997857-.0139285-4.4097857-.3417142-6.5529285-.767-1.1105715-.221-2.2127858-.4893571-3.2806429-.8524285-.8524286-.2897143-1.3557143-.4234286-1.3213571-1.3826429.0455-1.2377857.1996428-2.4811428.429-3.7003571.2785714-1.4764286.6323571-3.6409286 2.0029285-4.6029286.7920715-.5562143 1.8190715-.7391429 2.7253572-1.0743571.442-.1625.8375714-.325 1.209-.5097858 1.2526428 1.2925715 2.886 1.9685715 4.7886428 1.9685715 1.9026429 0 3.536-.676 4.7886429-1.9685715.3714286.1847858.767.3472858 1.209.5097858.9072143.3352142 1.9332857.5181428 2.7253571 1.0743571 1.3705715.962 1.7243572 3.1265 2.0029286 4.6029286.2293571 1.2192143.3835 2.4625714.429 3.7003571.0343571.9592143-.468 1.0938572-1.3213571 1.3826429zm-9.8335715-26.4438572c4.4989286 0 6.474 2.9575 5.9957857 6.8881429-.3881428 3.1905714-1.872 7.0738571-5.9957857 7.0738571-4.1237857.0009286-5.6067143-3.8842143-5.9957857-7.0738571-.4782143-3.9306429 1.4977857-6.8881429 5.9957857-6.8881429zm46.5335-7.1815714h-62.2774285c-.7521429 0-1.3640715.4122857-1.3640715.9137143v39.7874286c0 .5042142.6119286.9127857 1.3640715.9127857h62.2774285c.7521429 0 1.3585-.4085715 1.3585-.9127857v-39.7874286c0-.5051429-.6063571-.9137143-1.3585-.9137143z" fill="#0093c9" fill-rule="evenodd" transform="translate(-20 -46)"/></svg>