<svg height="65" viewBox="0 0 121 65" width="121" xmlns="http://www.w3.org/2000/svg"><g fill="#0093c9" fill-rule="evenodd"><path d="m8.3001 3.5611c1.302 0 2.364 1.052 2.364 2.375 0 1.302-1.062 2.364-2.364 2.364-1.313 0-2.375-1.062-2.375-2.364 0-1.313 1.062-2.375 2.375-2.375zm7.111 0c1.305 0 2.365 1.052 2.365 2.375 0 1.302-1.06 2.364-2.365 2.364-1.312 0-2.372-1.062-2.372-2.364 0-1.313 1.06-2.375 2.372-2.375zm38.3 43.341h-48.972v-34.998h56.891v1.01h4.75v-8.175c0-2.617-2.133-4.739-4.75-4.739h-56.891c-2.617 0-4.739 2.122-4.739 4.739v42.163c0 2.617 2.122 4.75 4.739 4.75h48.972z"/><path d="m58.45 59.8167h56.891v-34.998h-56.891zm3.561-43.341c1.302 0 2.364 1.051 2.364 2.375 0 1.301-1.062 2.364-2.364 2.364-1.313 0-2.375-1.063-2.375-2.364 0-1.313 1.062-2.375 2.375-2.375zm7.111 0c1.305 0 2.365 1.051 2.365 2.375 0 1.301-1.06 2.364-2.365 2.364-1.312 0-2.372-1.063-2.372-2.364 0-1.313 1.06-2.375 2.372-2.375zm46.219-3.561h-56.891c-2.617 0-4.739 2.122-4.739 4.739v42.163c0 2.617 2.122 4.75 4.739 4.75h56.891c2.617 0 4.75-2.133 4.75-4.75v-42.163c0-2.617-2.133-4.739-4.75-4.739z"/><path d="m24.7506 28.1714c0-.435-.168-.833-.487-1.155l-9.755-9.752c-.32-.32-.719-.489-1.154-.489-.437 0-.836.169-1.154.489l-1.047 1.046c-.32.32-.489.718-.489 1.153 0 .437.169.837.489 1.155l7.553 7.553-7.555 7.555c-.318.32-.487.719-.487 1.154 0 .437.169.835.489 1.153l1.043 1.045c.318.32.719.491 1.158.491.437 0 .836-.17 1.154-.489l9.755-9.755c.319-.319.487-.717.487-1.154"/><path d="m41.6994 36.5985h-20.095c-.449 0-.847.16-1.156.468-.305.305-.467.705-.467 1.153v1.34c0 .45.164.85.467 1.153.305.307.705.469 1.156.469h20.095c.45 0 .85-.162 1.153-.467.306-.305.468-.705.468-1.157v-1.338c0-.45-.16-.848-.468-1.157-.305-.304-.705-.464-1.153-.464"/><path d="m79.9995 44.2237c-2.217.19-4.174-1.463-4.359-3.68-.19-2.217 1.463-4.174 3.68-4.359 2.217-.19 4.174 1.463 4.359 3.68.19 2.217-1.463 4.174-3.68 4.359m7.735-11.864-1.573-1.328c-.485-.41-1.198-.39-1.658.045l-.869.814c-.734-.355-1.513-.605-2.317-.749l-.244-1.199c-.125-.619-.7-1.048-1.329-.998l-2.052.174c-.629.055-1.123.569-1.143 1.204l-.04 1.218c-.789.285-1.533.674-2.212 1.163l-1.039-.689c-.529-.349-1.233-.249-1.642.235l-1.329 1.583c-.409.484-.389 1.198.045 1.658l.909.968c-.315.709-.539 1.453-.669 2.217l-1.298.265c-.62.125-1.049.699-.999 1.328l.175 2.053c.055.629.569 1.123 1.203 1.143l1.403.045c.255.669.589 1.303.994 1.897l-.784 1.184c-.35.529-.25 1.233.234 1.642l1.574 1.329c.484.409 1.198.389 1.657-.045l1.029-.964c.674.315 1.383.549 2.112.689l.285 1.408c.124.619.699 1.049 1.328.999l2.052-.175c.629-.055 1.123-.569 1.143-1.203l.046-1.379c.749-.264 1.458-.624 2.112-1.068l1.133.749c.529.349 1.233.25 1.643-.235l1.328-1.573c.409-.484.39-1.198-.045-1.657l-.914-.969c.335-.709.58-1.458.719-2.227l1.249-.255c.619-.124 1.048-.699.998-1.328l-.175-2.052c-.054-.629-.569-1.123-1.203-1.144l-1.253-.039c-.26-.729-.609-1.419-1.044-2.058l.684-1.028c.36-.529.26-1.239-.224-1.648"/><path d="m98.4703 48.3955c-1.421.122-2.675-.938-2.794-2.359-.121-1.42.938-2.675 2.359-2.793 1.421-.122 2.675.937 2.794 2.358.121 1.421-.938 2.676-2.359 2.794m4.957-7.604-1.008-.851c-.31-.262-.768-.25-1.062.029l-.557.521c-.471-.227-.97-.387-1.485-.48l-.157-.768c-.08-.396-.448-.672-.851-.64l-1.315.112c-.404.036-.72.365-.733.772l-.026.78c-.505.183-.982.432-1.418.746l-.665-.442c-.339-.224-.791-.16-1.053.151l-.851 1.014c-.263.311-.25.768.028 1.063l.583.621c-.202.454-.346.931-.429 1.42l-.832.17c-.397.08-.672.448-.64.851l.112 1.316c.035.403.365.72.771.733l.9.028c.163.429.377.836.636 1.216l-.502.759c-.224.339-.16.79.15 1.053l1.008.851c.311.262.768.25 1.063-.029l.659-.617c.432.201.887.352 1.354.441l.182.903c.08.396.448.672.851.64l1.316-.112c.403-.036.72-.365.733-.772l.028-.883c.481-.17.935-.4 1.354-.685l.727.48c.339.224.79.16 1.052-.15l.852-1.008c.262-.311.249-.768-.029-1.063l-.586-.62c.215-.455.371-.935.461-1.428l.8-.163c.397-.08.672-.448.64-.851l-.112-1.315c-.035-.404-.365-.721-.771-.733l-.803-.026c-.167-.467-.391-.909-.669-1.318l.438-.66c.231-.339.167-.793-.144-1.056"/><path d="m94.483 34.4251c-.847.072-1.595-.559-1.666-1.406-.072-.847.559-1.595 1.407-1.666.847-.072 1.595.559 1.665 1.406.073.847-.559 1.595-1.406 1.666m2.955-4.533-.601-.508c-.185-.156-.457-.149-.633.017l-.332.311c-.28-.135-.578-.23-.885-.286l-.094-.458c-.047-.236-.267-.4-.507-.381l-.784.067c-.241.021-.43.217-.437.459l-.016.466c-.301.109-.585.257-.845.444l-.397-.263c-.202-.133-.471-.095-.627.09l-.508.605c-.156.185-.149.458.017.633l.348.37c-.121.271-.206.555-.256.847l-.496.101c-.237.048-.401.267-.382.508l.067.784c.021.24.218.429.46.437l.536.017c.097.256.225.498.38.725l-.3.452c-.133.203-.095.472.09.628l.601.508c.185.156.458.148.633-.018l.393-.368c.258.12.529.21.807.263l.109.538c.048.237.267.401.508.382l.784-.067c.24-.021.429-.217.437-.46l.017-.526c.286-.101.557-.239.807-.408l.433.286c.202.133.471.095.628-.09l.507-.601c.157-.185.149-.458-.017-.633l-.349-.37c.128-.271.221-.558.275-.851l.476-.098c.237-.047.401-.267.382-.507l-.067-.784c-.021-.241-.217-.43-.459-.437l-.479-.016c-.1-.278-.233-.541-.399-.786l.261-.393c.138-.202.1-.473-.086-.629"/></g></svg>