<svg height="67" viewBox="0 0 83 67" width="83" xmlns="http://www.w3.org/2000/svg"><g fill="none" fill-rule="evenodd"><circle cx="24.5" cy="24.5" fill="#fff" fill-rule="evenodd" r="24.5"/><circle cx="24.5" cy="24.5" r="23" stroke="#44525e" stroke-width="3"/><path d="m24.5 10c-6.8627528 0-12.5 1.8433819-12.5 4.1783126 0 .6144606 1.470548 9.3397231 2.0833008 12.7806634.2451401 1.5975584 4.2892693 3.8095775 10.4166992 3.8095775 6.1275276 0 10.0490866-2.2120191 10.4166992-3.8095775.6127528-3.4409403 2.0833008-12.1662028 2.0833008-12.7806634-.1224724-2.3349307-5.6372472-4.1783126-12.5-4.1783126zm0 17.9420738c-2.2058709 0-3.9215591-1.7204702-3.9215591-3.9324892 0-2.2120191 1.7156882-3.9324892 3.9215591-3.9324892s3.9215591 1.7204701 3.9215591 3.9324892c0 2.0891073-1.7156882 3.9324892-3.9215591 3.9324892zm0-12.5348399c-4.4117417 0-7.9656882-.7374703-7.9656882-1.7204702 0-.9831957 3.5539465-1.7204701 7.9656882-1.7204701s7.9656882.7372744 7.9656882 1.7204701c0 .9830978-3.5539465 1.7204702-7.9656882 1.7204702zm9.0445979 14.8697706c.2451402 0 .3677103.2457255.2451402.491549v.1229117c-.4901827 2.5806562-.8578929 4.4240381-.8578929 4.6698615-.3676126 1.8433819-4.0441292 3.3181265-8.4558709 3.3181265s-8.0882583-1.4747446-8.4558709-3.3181265c0-.2458234-.3676125-2.0892053-.8578929-4.6698615v-.1228138c0-.3687351.2450425-.4916469.4901827-.4916469.1225701 0 .3677102.1229118.3677102.1229118s3.0636662 2.4578424 8.578441 2.4578424c5.5146772 0 8.5784409-2.4578424 8.5784409-2.4578424s.1224725-.1229118.3676126-.1229118zm-9.0445979-4.4240381c-1.0829356 0-1.9608284-.8803396-1.9608284-1.9662935 0-1.085954.8778928-1.9662936 1.9608284-1.9662936s1.9608284.8803396 1.9608284 1.9662936c0 1.0859539-.8778928 1.9662935-1.9608284 1.9662935z" fill="#44525e" fill-rule="nonzero"/><circle cx="58.5" cy="42.5" fill="#fff" fill-rule="evenodd" r="24.5"/><circle cx="58.5" cy="42.5" r="23" stroke="#44525e" stroke-width="3"/><path d="m44 42.3800802c0 6.7949931 4.2975536 12.5589826 10.2581417 14.5926654.7504835.1416214 1.0239725-.3332823 1.0239725-.7411518 0-.364439-.0128917-1.332185-.0202584-2.6152745-4.1723196.9290361-5.0526413-2.0620071-5.0526413-2.0620071-.6823414-1.776876-1.665797-2.2498914-1.665797-2.2498914-1.3619202-.9535839.103134-.934701.103134-.934701 1.505571.1085764 2.2974922 1.5852151 2.2974922 1.5852151 1.3379785 2.3499705 3.5111575 1.6711321 4.3656957 1.2774247.1362841-.9932378.5239572-1.6711321.9521471-2.055398-3.3306731-.3880426-6.8326223-1.7079537-6.8326223-7.6012907 0-1.6786853.5847325-3.0524125 1.5442463-4.1268466-.1547008-.3889867-.6694496-1.9534307.1473342-4.070198 0 0 1.2587864-.4135344 4.124436 1.5767178 1.1961693-.3417795 2.4798183-.5117252 3.7551797-.5183342 1.2744406.006609 2.5571687.1765547 3.7551797.5183342 2.863808-1.9902522 4.1207527-1.5767178 4.1207527-1.5767178.8186255 2.1167673.3038767 3.6812113.1500967 4.070198.9613554 1.0744341 1.5414837 2.4481613 1.5414837 4.1268466 0 5.9084433-3.5074741 7.2085274-6.8482765 7.5890168.5377698.4749037 1.0175267 1.4133812 1.0175267 2.8484777 0 2.0553981-.0184168 3.7142564-.0184168 4.2184284 0 .4116461.2707265.8903263 1.0313392.7402077 5.9559839-2.0384035 10.2498542-7.7986165 10.2498542-14.5917213 0-8.4944494-6.7165966-15.3800802-15.0013813-15.3800802-8.2820221 0-14.9986187 6.8856308-14.9986187 15.3800802z" fill="#44525e"/></g></svg>