<svg height="66" viewBox="0 0 83 66" width="83" xmlns="http://www.w3.org/2000/svg"><g fill="none" fill-rule="evenodd"><circle cx="41" cy="35" fill="#44525e" r="25"/><g transform="translate(33.613636 16.818182)"><path d="m5.10263813 7.80581702h-4.32823776l1.43081687 3.29118508h8.77320186l-9.27639587-11.0970021zm8.07953327 20.16133698-1.4324892-3.2929628h-2.01026761l-.04214187-.0984253-2.7790223-6.3769539h-1.61777962l2.82166586 6.4753792h-5.14599074l9.27790088 11.0992647-3.40161827-7.8063019z" fill="#eacc2f"/><path d="m10.2772556 17.5506748-2.54948432-5.8447965h-6.35200942c-.4850281 0-.7526012 0-.9721251.6791029-.26102344.8102435-.3771359 2.5006957-.3771359 5.4787265 0 2.9780414.11611246 4.6681838.3771359 5.4782565.2195239.6787612.487097.6787612.9721251.6787612h5.75981932l-2.82356276-6.4733401h2.3248158l-1.41007759-3.2317144h.70416477l1.40799764 3.2350039zm4.1865758 3.8610696h-5.43830017l1.13764757 2.608981h4.3006526c.107173 0 .3544887-.126655.3544887-1.3031608 0-1.1784817-.2473157-1.3058202-.3544887-1.3058202zm0-7.0960735c.107173 0 .3544887-.128321.3544887-1.3048269 0-1.177969-.2473157-1.3049657-.3544887-1.3049657h-6.03186215l1.13764757 2.6097926zm.5035596 3.8610696h-7.35365221l1.13869861 2.6096217h6.2149536c.1068522 0 .3548317-.1273278.3548317-1.3044851 0-1.177467-.2479795-1.3051366-.3548317-1.3051366zm0-3.2350359h-5.12432632l1.13834462 2.6089702h3.9859817c.1068522 0 .3548317-.1279686.3548317-1.3051259 0-1.1765165-.2479795-1.3038443-.3548317-1.3038443z" fill="#fff"/></g><g transform="translate(50 34)"><ellipse cx="16.176471" cy="16" fill="#44525e" fill-rule="evenodd" rx="16.176471" ry="16"/><ellipse cx="16.176471" cy="16" rx="15.676471" ry="15.5" stroke="#fff"/><path d="m7.48828125 16.5c0-1.3007812.28125-2.5429687.78515625-3.6679687l4.3007812 11.7773437c-3.0117187-1.4648438-5.08593745-4.546875-5.08593745-8.109375zm15.09375005-.4570312c0 .7734374-.3164063 1.6640624-.6914063 2.9179687l-.890625 3-3.2578125-9.6796875s.5390625-.0351562 1.03125-.09375c.4804688-.0585938.421875-.7734375-.0585937-.7382812-1.4648438.1054687-2.4023438.1171874-2.4023438.1171874s-.8789062-.0117187-2.3671875-.1171874c-.4921875-.0351563-.5507812.703125-.0585937.7382812.4570312.046875.9375.09375.9375.09375l1.40625 3.84375-1.96875 5.90625-3.28125-9.75s.5390625-.0351562 1.03125-.09375c.4804687-.0585938.421875-.7734375-.0585938-.7382812-1.453125.1054687-2.40234375.1171874-2.40234375.1171874-.1640625 0-.36328125-.0117187-.57421875-.0117187 1.6054688-2.44921875 4.3710938-4.06640625 7.5234375-4.06640625 2.34375 0 4.4765625.90234375 6.0820313 2.3671875h-.1171875c-.8789063 0-1.5117188.76171875-1.5117188 1.59375005 0 .7382812.4335938 1.359375.890625 2.109375.3515625.5976562.7382813 1.3710937.7382813 2.484375zm-5.9296875 1.2421875 2.7773437 7.5820312c.0117188.046875.0351563.09375.0585938.1289063-.9375.328125-1.9335938.515625-2.9882813.515625-.8789062 0-1.734375-.1289063-2.5429688-.375zm7.7460937-5.109375c.703125 1.2890625 1.1132813 2.7539062 1.1132813 4.3242187 0 3.328125-1.8046875 6.2226562-4.4882813 7.78125l2.7539063-7.9453125c.4570312-1.3125.6914062-2.3203125.6914062-3.234375 0-.328125-.0234375-.6328125-.0703125-.9257812zm-7.8984375-6.1757813c5.7890625 0 10.5 4.7109375 10.5 10.5s-4.7109375 10.5-10.5 10.5-10.5-4.7109375-10.5-10.5 4.7109375-10.5 10.5-10.5zm0 20.5195312c5.5195312 0 10.0195312-4.5 10.0195312-10.0195312 0-5.5195313-4.5-10.01953125-10.0195312-10.01953125-5.5195313 0-10.01953125 4.49999995-10.01953125 10.01953125 0 5.5195312 4.49999995 10.0195312 10.01953125 10.0195312z" fill="#fff"/></g><ellipse cx="16.176471" cy="16" fill="#44525e" fill-rule="evenodd" rx="16.176471" ry="16"/><ellipse cx="16.176471" cy="16" rx="15.676471" ry="15.5" stroke="#fff"/><path d="m20.8675424 23.383846c-.023514-.0814014-.0940563-.1976892-.2821689-.0581439-.3997392.2907195-1.2932741.6512116-2.5630341.6512116-1.2697601 0-1.869369-.2674619-2.2691083-.5698101-.0587852-.0465151-.0352711-.0465151-.1528415-.0465151-.1293274 0-.1998696.0581439-.3056829.1395453-.0940563.0814015-.1410845.2790907 0 .4186361.8700207.7907569 2.3278934.7209842 3.3977838.627954 1.0816475-.104659 1.9986964-.7326131 2.0927527-.8256433.1410844-.1395453.1058133-.2558331.0822992-.3372346zm-.4585244-1.3373096c-.0822993-.1976892-.2233837-.5465526-.4585245-.7093555-.2351407-.1511741-.5760948-.1744317-.8935348-.1744317s-.4937956-.0232575-.8347497.1162878c-.3409541.1395454-.6936652.4535224-.9170489.6512117-.2233837.1976892-.2586549.3488633-.1410845.5116662.1175704.1511742.2468978.0581439.5760949-.2209468.3409541-.2674619.5643378-.5116662 1.258003-.5116662s.8112356.2558331.95232.5116662c.1410845.2558332.1528415.2907195.293926.2209468.1645985-.0814014.2468977-.1976892.1645985-.3953785zm4.1737483-3.2676868c0-.6046965-.2704119-1.6280291-1.26976-1.6280291-.940563 0-2.8452031 1.9303773-3.8445513 1.9420061-1.1639467.0232576-2.7746609-2.2792407-5.1025543-2.2559831-1.8340979.0116288-3.2802135 1.4535973-3.3037276 2.9885962-.011757.8605296.2704119 1.5001125.8700208 1.9071197.3997393.2674619.7642075.4302648 1.9516683.4302648 1.9751823 0 4.4794313-2.418786 5.6316209-2.3838996.917049.0348863 2.3396505 2.2559831 3.0568298 2.3024982.5643378.0465151.8582637-.209318 1.3403023-.895416.4702815-.6977267.6701511-1.790832.6701511-2.4071572zm.623123-1.8606047c0 5.209693-4.1619913 8.6518116-8.9471056 8.6518116-4.7968713 0-9.11170405-3.7328381-9.11170405-8.8146145 0-5.0701476 3.99739275-7.41916093 4.73808615-7.80291064.8817778-.46515116 1.5166578-.70935551 2.516006-1.50011248.4937956-.38374971.9052919-.9419311 1.0346193-2.30249823.7171793.84890086 1.575443 1.83734707 2.186809 2.24435433.9993482.65121162 1.9986964.90704476 3.0450727 1.55825638.63488.38374971 4.5382165 2.74439184 4.5382165 7.96571354z" fill="#fff"/></g></svg>