<svg height="87" viewBox="0 0 74 87" width="74" xmlns="http://www.w3.org/2000/svg"><g fill="none" fill-rule="evenodd"><rect fill="#fff" fill-rule="evenodd" height="55.273684" rx="5" width="56.851728"/><rect height="51.273684" rx="5" stroke="#44525e" stroke-width="4" width="52.851728" x="2" y="2"/><path d="m0 5.7426191c0-2.76461429 2.23446755-5.00577699 5.00841312-5.00577699h46.98317378c2.7660702 0 5.0084131 2.23870396 5.0084131 5.00577699v6.2573809h-57z" fill="#44525e"/><circle cx="6" cy="6" fill="#fff" r="2"/><circle cx="13" cy="6" fill="#fff" r="2"/><g transform="translate(22 15)"><path d="m4.65662976 7.19621988h-3.94991772l1.30575288 3.03415922h8.00635898l-8.46557011-10.2303791zm7.37332214 18.58683262-1.307279-3.0357982h-1.83455529l-.03845836-.0907387-2.53611516-5.8789442h-1.4763737l2.57503136 5.9696829h-4.69619303l8.46694358 10.2324651-3.10429159-7.1966669z" fill="#eacc2f"/><path d="m9.37894729 16.1800507-2.32664046-5.3883458h-5.79679675c-.44263305 0-.68681828 0-.88715416.6260683-.23820806.7469673-.34417143 2.3054032-.34417143 5.050864 0 2.7454705.10596337 4.3036209.34417143 5.0504307.20033588.6257532.44452111.6257532.88715416.6257532h5.25636845l-2.57676246-5.967803h2.12160968l-1.28682636-2.9793329h.64261555l1.28492821 2.9823655zm3.82063811 3.5595384h-4.96295245l1.03820874 2.405232h3.92474371c.0978053 0 .3235037-.1167638.3235037-1.2013902 0-1.0864478-.2256984-1.2038418-.3235037-1.2038418zm0-6.5419039c.0978053 0 .3235037-.1182998.3235037-1.2029261 0-1.0859753-.2256984-1.2030542-.3235037-1.2030542h-5.50463273l1.03820875 2.4059803zm.4595447 3.5595384h-6.71088848l1.03916792 2.4058227h5.67172056c.0975126 0 .3238168-.1173841.3238168-1.202611 0-1.0855125-.2263042-1.2032117-.3238168-1.2032117zm0-2.982395h-4.67642218l1.03884478 2.4052221h3.6375774c.0975126 0 .3238168-.1179749.3238168-1.2032018 0-1.0846362-.2263042-1.2020203-.3238168-1.2020203z" fill="#44525e"/></g><g transform="translate(8 15)"><rect fill="#fff" fill-rule="evenodd" height="55.273684" rx="5" width="56.851728"/><rect height="51.273684" rx="5" stroke="#44525e" stroke-width="4" width="52.851728" x="2" y="2"/><path d="m0 5.7426191c0-2.76461429 2.23446755-5.00577699 5.00841312-5.00577699h46.98317378c2.7660702 0 5.0084131 2.23870396 5.0084131 5.00577699v6.2573809h-57z" fill="#44525e"/><circle cx="6" cy="6" fill="#fff" r="2"/><circle cx="13" cy="6" fill="#fff" r="2"/><g transform="translate(22 15)"><path d="m4.65662976 7.19621988h-3.94991772l1.30575288 3.03415922h8.00635898l-8.46557011-10.2303791zm7.37332214 18.58683262-1.307279-3.0357982h-1.83455529l-.03845836-.0907387-2.53611516-5.8789442h-1.4763737l2.57503136 5.9696829h-4.69619303l8.46694358 10.2324651-3.10429159-7.1966669z" fill="#eacc2f"/><path d="m9.37894729 16.1800507-2.32664046-5.3883458h-5.79679675c-.44263305 0-.68681828 0-.88715416.6260683-.23820806.7469673-.34417143 2.3054032-.34417143 5.050864 0 2.7454705.10596337 4.3036209.34417143 5.0504307.20033588.6257532.44452111.6257532.88715416.6257532h5.25636845l-2.57676246-5.967803h2.12160968l-1.28682636-2.9793329h.64261555l1.28492821 2.9823655zm3.82063811 3.5595384h-4.96295245l1.03820874 2.405232h3.92474371c.0978053 0 .3235037-.1167638.3235037-1.2013902 0-1.0864478-.2256984-1.2038418-.3235037-1.2038418zm0-6.5419039c.0978053 0 .3235037-.1182998.3235037-1.2029261 0-1.0859753-.2256984-1.2030542-.3235037-1.2030542h-5.50463273l1.03820875 2.4059803zm.4595447 3.5595384h-6.71088848l1.03916792 2.4058227h5.67172056c.0975126 0 .3238168-.1173841.3238168-1.202611 0-1.0855125-.2263042-1.2032117-.3238168-1.2032117zm0-2.982395h-4.67642218l1.03884478 2.4052221h3.6375774c.0975126 0 .3238168-.1179749.3238168-1.2032018 0-1.0846362-.2263042-1.2020203-.3238168-1.2020203z" fill="#44525e"/></g></g><g transform="translate(17 31)"><rect fill="#fff" fill-rule="evenodd" height="55.273684" rx="5" width="56.851728"/><rect height="51.273684" rx="5" stroke="#44525e" stroke-width="4" width="52.851728" x="2" y="2"/><path d="m0 5.7426191c0-2.76461429 2.23446755-5.00577699 5.00841312-5.00577699h46.98317378c2.7660702 0 5.0084131 2.23870396 5.0084131 5.00577699v6.2573809h-57z" fill="#44525e"/><circle cx="6" cy="6" fill="#fff" r="2"/><circle cx="13" cy="6" fill="#fff" r="2"/><g transform="translate(22 15)"><path d="m4.65662976 7.19621988h-3.94991772l1.30575288 3.03415922h8.00635898l-8.46557011-10.2303791zm7.37332214 18.58683262-1.307279-3.0357982h-1.83455529l-.03845836-.0907387-2.53611516-5.8789442h-1.4763737l2.57503136 5.9696829h-4.69619303l8.46694358 10.2324651-3.10429159-7.1966669z" fill="#eacc2f"/><path d="m9.37894729 16.1800507-2.32664046-5.3883458h-5.79679675c-.44263305 0-.68681828 0-.88715416.6260683-.23820806.7469673-.34417143 2.3054032-.34417143 5.050864 0 2.7454705.10596337 4.3036209.34417143 5.0504307.20033588.6257532.44452111.6257532.88715416.6257532h5.25636845l-2.57676246-5.967803h2.12160968l-1.28682636-2.9793329h.64261555l1.28492821 2.9823655zm3.82063811 3.5595384h-4.96295245l1.03820874 2.405232h3.92474371c.0978053 0 .3235037-.1167638.3235037-1.2013902 0-1.0864478-.2256984-1.2038418-.3235037-1.2038418zm0-6.5419039c.0978053 0 .3235037-.1182998.3235037-1.2029261 0-1.0859753-.2256984-1.2030542-.3235037-1.2030542h-5.50463273l1.03820875 2.4059803zm.4595447 3.5595384h-6.71088848l1.03916792 2.4058227h5.67172056c.0975126 0 .3238168-.1173841.3238168-1.202611 0-1.0855125-.2263042-1.2032117-.3238168-1.2032117zm0-2.982395h-4.67642218l1.03884478 2.4052221h3.6375774c.0975126 0 .3238168-.1179749.3238168-1.2032018 0-1.0846362-.2263042-1.2020203-.3238168-1.2020203z" fill="#44525e"/></g></g></g></svg>