<svg height="33" viewBox="0 0 33 33" width="33" xmlns="http://www.w3.org/2000/svg"><g fill="none" fill-rule="evenodd"><circle cx="16.5" cy="16.5" fill="#373a3c" r="16.5"/><g transform="translate(9.153846 1.269231)"><path d="m2.39418928 0 2.82413724 6.71277454h-3.59450799l1.18826251 2.83032302h7.28595466zm9.53401512 24.0509353-1.1896513-2.8318519h-1.66948386l-.03499791-.0846428-2.30791801-5.4839941h-1.34353104l2.34333257 5.5686369h-4.27363419l7.70509634 9.5450434-2.82497052-6.7131915z" fill="#eacc2f"/><path d="m9.51104579 6.02141948-2.11729163-5.02635422h-5.27520667c-.40280536 0-.62501904 0-.80732889.58400868-.21677434.69678575-.31320322 2.15052523-.31320322 4.71154464 0 2.56102861.09642888 4.01450172.31320322 4.71114052.18230985.5837148.40452353.5837148.80732889.5837148h4.78340558l-2.3449079-5.56688326h1.93070932l-1.17103899-2.77918h.58479364l1.16931162 2.78200884zm3.47686081 3.32040705h-4.51639083l.94479175 2.24364737h3.57159908c.0890049 0 .2943952-.1089196.2943952-1.1206802 0-1.01345981-.2053903-1.12296717-.2943952-1.12296717zm0-6.10241589c.0890049 0 .2943952-.11035234.2943952-1.12211299 0-1.01301893-.2053903-1.12223239-.2943952-1.12223239h-5.00933124l.94479174 2.24434538zm.4181954 3.32040705h-6.10704936l.9456646 2.24419843h5.16138476c.0887385 0 .29468-.10949818.29468-1.12181908 0-1.01258726-.2059415-1.12237935-.29468-1.12237935zm0-2.78203639h-4.25564235l.94537055 2.24363818h3.3102718c.0887385 0 .29468-.11004926.29468-1.12237016 0-1.01176983-.2059415-1.12126802-.29468-1.12126802z" fill="#fff" transform="translate(0 9.077068)"/></g></g></svg>