<svg height="80" viewBox="0 0 38 80" width="38" xmlns="http://www.w3.org/2000/svg" xmlns:xlink="http://www.w3.org/1999/xlink"><mask id="a" fill="#fff"><path d="m0 .53623188h37.9484058v79.46376812h-37.9484058z" fill="#fff" fill-rule="evenodd"/></mask><g fill="none" fill-rule="evenodd"><path d="m3.27078261.536 7.30260869 17.1217391h-9.29391304l3.07362319 7.5362319h18.83478265z" fill="#efd01b"/><path d="m10.5970435 40.846087 6.1513043 14.4927536h-10.95130432l20.24811592 24.6608695-7.3014493-17.1240579h9.2927537l-3.1089855-7.5368116h-4.3113044l-6.1565217-14.4927536z" fill="#efd01b"/><g fill="#fff"><path d="m30.5441739 32.7343188c.2284058 0 .76-.2840579.76-2.9026087 0-2.6156521-.5315942-2.8985507-.76-2.8985507h-12.973913l2.462029 5.8011594z"/><path d="m22.9853913 39.6908406 8.7165217-.0011594c.2313044 0 .7617392-.284058.7617392-2.9014493 0-2.6168116-.5304348-2.8997102-.7617392-2.8997102l-11.1791304.0011595z"/><path d="m30.5441739 47.8028406h-11.7223188l2.4614492 5.8h9.2608696c.2284058 0 .76-.2817392.76-2.8985507 0-2.6173913-.5315942-2.9014493-.76-2.9014493"/><path d="m31.7022029 40.8463188h-15.8336232l2.4626087 5.8011595h13.3710145c.2307246 0 .7617391-.284058.7617391-2.8997102 0-2.6173913-.5310145-2.9014493-.7617391-2.9014493"/><path d="m30.5441739 47.8028406h-11.7223188l2.4614492 5.8h9.2608696c.2284058 0 .76-.2817392.76-2.8985507 0-2.6173913-.5315942-2.9014493-.76-2.9014493"/><path d="m31.7022029 40.8463188h-15.8336232l2.4626087 5.8011595h13.3710145c.2307246 0 .7617391-.284058.7617391-2.8997102 0-2.6173913-.5310145-2.9014493-.7617391-2.9014493"/><path d="m13.968 39.6884638-2.9536232-6.9582609h1.4092754l2.9536232 6.9588406 6.2701449.0017391-5.4156522-12.7576812h-13.5211594c-1.04173913 0-1.61391305 0-2.08289855 1.5095653-.56289856 1.8017391-.62782609 5.2034782-.62782609 11.8237681 0 6.6202898.06492753 10.022029.62782609 11.8237681.4689855 1.5095652 1.04115942 1.5095652 2.08289855 1.5095652l11.862029.0017391-5.87710147-13.9147826z" mask="url(#a)"/><path d="m35.1146667 51.7068406h.369855c.0776812 0 .1553624-.0028986.2330435-.0098551.0776812-.0057971.1478261-.0226087.2110145-.0486956.0626087-.026087.1136232-.0643479.1524638-.1165218s.057971-.1234782.057971-.213913-.0191304-.1617392-.057971-.2139131-.0898551-.0904348-.1524638-.1165217c-.0631884-.026087-.1333333-.0411594-.2110145-.0452174-.0776811-.0046377-.1553623-.0069565-.2330435-.0069565h-.369855zm-.506087-1.1994203h1.0637681c.3327536 0 .577971.0713043.7356522.213913.1582609.1426087.2371014.3478261.2371014.6156522 0 .2423188-.0620289.4243478-.1860869.5455073-.1246377.1211594-.2805797.1924637-.4689855.213913l.7136232 1.1675362h-.5321739l-.6869566-1.1292753h-.369855v1.1292753h-.506087zm-1.0568116 1.3942029c0 .2724638.0521739.5298551.1553623.7715942.1037682.2423188.2457971.4527536.4249276.6324638.1797101.1791304.3901449.3211594.6324637.4243478.2417392.1043478.4991305.155942.7715942.155942.2724638 0 .5298551-.0515942.7715942-.155942.2423189-.1031884.4527537-.2452174.6324638-.4243478.1791304-.1797102.3211594-.390145.4243478-.6324638.1043479-.2417391.1559421-.4991304.1559421-.7715942s-.0515942-.5292754-.1559421-.7715942c-.1031884-.2423189-.2452174-.4527536-.4243478-.6324638-.1797101-.1797101-.3901449-.3211594-.6324638-.4243478-.2417391-.1043478-.4991304-.155942-.7715942-.155942-.2724637 0-.529855.0515942-.7715942.155942-.2423188.1031884-.4527536.2446377-.6324637.4243478-.1791305.1797102-.3211594.3901449-.4249276.6324638-.1031884.2423188-.1553623.4991304-.1553623.7715942zm-.4284058 0c0-.3327536.0643478-.6452174.1918841-.9368116.1275362-.2921739.3002898-.5472464.5188406-.7657971.217971-.217971.4730434-.3907246.7646376-.5182609.292174-.1275362.6046377-.1913043.9373913-.1913043.3327537 0 .6452174.0637681.9368116.1913043.2921739.1275363.5472464.3002899.7657971.5182609.2179711.2185507.3907247.4736232.5182609.7657971.1275362.2915942.1913044.604058.1913044.9368116s-.0637682.6452174-.1913044.9368116c-.1275362.2921739-.3002898.5472464-.5182609.7652174-.2185507.2185507-.4736232.3913043-.7657971.5188406-.2915942.1275362-.6040579.1913043-.9368116.1913043-.3327536 0-.6452173-.0637681-.9373913-.1913043-.2915942-.1275363-.5466666-.3002899-.7646376-.5188406-.2185508-.217971-.3913044-.4730435-.5188406-.7652174-.1275363-.2915942-.1918841-.604058-.1918841-.9368116z"/></g></g></svg>