<svg height="242" viewBox="0 0 413 242" width="413" xmlns="http://www.w3.org/2000/svg"><g fill="none" fill-rule="evenodd" transform="translate(0 2)"><path d="m206 74.9823205v38.0176795" stroke="#44525e" stroke-linecap="round" stroke-width="2"/><path d="m206 119-5-10h10z" fill="#44525e"/><path d="m206 74.9823205-63 38.0176795" stroke="#44525e" stroke-linecap="round" stroke-width="2"/><path d="m141.032332 120.032332-5-10h10z" fill="#44525e" transform="matrix(.62932039 .77714596 -.77714596 .62932039 141.674722 -66.962567)"/><path d="m269 74.9823205-63 38.0176795" stroke="#44525e" stroke-linecap="round" stroke-width="2" transform="matrix(-1 0 0 1 475 0)"/><path d="m271.032332 120.032332-5-10h10z" fill="#44525e" transform="matrix(-.62932039 .77714596 .77714596 .62932039 352.201593 -167.991542)"/><path d="m132 .98232054-132 40.01767946" stroke="#44525e" stroke-linecap="round" stroke-width="2" transform="matrix(-1 0 0 1 338 74)"/><path d="m134.355434 47.3554337-5-10h10z" fill="#44525e" transform="matrix(-.43837115 .89879405 .89879405 .43837115 361.184168 -22.96983)"/><path d="m132 .98232054-132 40.01767946" stroke="#44525e" stroke-linecap="round" stroke-width="2" transform="translate(74 74)"/><path d="m134.355434 47.3554337-5-10h10z" fill="#44525e" transform="matrix(.43837115 .89879405 -.89879405 .43837115 50.815832 -22.96983)"/><path d="m206.030726 74.1847307c-20.451706 0-37.030726-16.6080193-37.030726-37.0923654s16.57902-37.0923653 37.030726-37.0923653c20.450305 0 37.029324 16.6080192 37.029324 37.0923653s-16.579019 37.0923654-37.029324 37.0923654z" fill="#fff" stroke="#eacc2f" stroke-width="3"/><g transform="translate(107 122)"><rect fill="#fff" fill-rule="evenodd" height="55.273684" rx="5" width="56.851728"/><rect height="51.273684" rx="5" stroke="#44525e" stroke-width="4" width="52.851728" x="2" y="2"/><path d="m0 5.7426191c0-2.76461429 2.23446755-5.00577699 5.00841312-5.00577699h46.98317378c2.7660702 0 5.0084131 2.23870396 5.0084131 5.00577699v6.2573809h-57z" fill="#44525e"/><circle cx="6" cy="6" fill="#fff" r="2"/><circle cx="13" cy="6" fill="#fff" r="2"/><g transform="translate(22 15)"><path d="m4.65662976 7.19621988h-3.94991772l1.30575288 3.03415922h8.00635898l-8.46557011-10.2303791zm7.37332214 18.58683262-1.307279-3.0357982h-1.83455529l-.03845836-.0907387-2.53611516-5.8789442h-1.4763737l2.57503136 5.9696829h-4.69619303l8.46694358 10.2324651-3.10429159-7.1966669z" fill="#eacc2f"/><path d="m9.37894729 16.1800507-2.32664046-5.3883458h-5.79679675c-.44263305 0-.68681828 0-.88715416.6260683-.23820806.7469673-.34417143 2.3054032-.34417143 5.050864 0 2.7454705.10596337 4.3036209.34417143 5.0504307.20033588.6257532.44452111.6257532.88715416.6257532h5.25636845l-2.57676246-5.967803h2.12160968l-1.28682636-2.9793329h.64261555l1.28492821 2.9823655zm3.82063811 3.5595384h-4.96295245l1.03820874 2.405232h3.92474371c.0978053 0 .3235037-.1167638.3235037-1.2013902 0-1.0864478-.2256984-1.2038418-.3235037-1.2038418zm0-6.5419039c.0978053 0 .3235037-.1182998.3235037-1.2029261 0-1.0859753-.2256984-1.2030542-.3235037-1.2030542h-5.50463273l1.03820875 2.4059803zm.4595447 3.5595384h-6.71088848l1.03916792 2.4058227h5.67172056c.0975126 0 .3238168-.1173841.3238168-1.202611 0-1.0855125-.2263042-1.2032117-.3238168-1.2032117zm0-2.982395h-4.67642218l1.03884478 2.4052221h3.6375774c.0975126 0 .3238168-.1179749.3238168-1.2032018 0-1.0846362-.2263042-1.2020203-.3238168-1.2020203z" fill="#44525e"/></g></g><g transform="translate(36 122)"><rect fill="#fff" fill-rule="evenodd" height="55.273684" rx="5" width="56.851728"/><rect height="51.273684" rx="5" stroke="#44525e" stroke-width="4" width="52.851728" x="2" y="2"/><path d="m0 5.7426191c0-2.76461429 2.23446755-5.00577699 5.00841312-5.00577699h46.98317378c2.7660702 0 5.0084131 2.23870396 5.0084131 5.00577699v6.2573809h-57z" fill="#44525e"/><circle cx="6" cy="6" fill="#fff" r="2"/><circle cx="13" cy="6" fill="#fff" r="2"/><g transform="translate(22 15)"><path d="m4.65662976 7.19621988h-3.94991772l1.30575288 3.03415922h8.00635898l-8.46557011-10.2303791zm7.37332214 18.58683262-1.307279-3.0357982h-1.83455529l-.03845836-.0907387-2.53611516-5.8789442h-1.4763737l2.57503136 5.9696829h-4.69619303l8.46694358 10.2324651-3.10429159-7.1966669z" fill="#eacc2f"/><path d="m9.37894729 16.1800507-2.32664046-5.3883458h-5.79679675c-.44263305 0-.68681828 0-.88715416.6260683-.23820806.7469673-.34417143 2.3054032-.34417143 5.050864 0 2.7454705.10596337 4.3036209.34417143 5.0504307.20033588.6257532.44452111.6257532.88715416.6257532h5.25636845l-2.57676246-5.967803h2.12160968l-1.28682636-2.9793329h.64261555l1.28492821 2.9823655zm3.82063811 3.5595384h-4.96295245l1.03820874 2.405232h3.92474371c.0978053 0 .3235037-.1167638.3235037-1.2013902 0-1.0864478-.2256984-1.2038418-.3235037-1.2038418zm0-6.5419039c.0978053 0 .3235037-.1182998.3235037-1.2029261 0-1.0859753-.2256984-1.2030542-.3235037-1.2030542h-5.50463273l1.03820875 2.4059803zm.4595447 3.5595384h-6.71088848l1.03916792 2.4058227h5.67172056c.0975126 0 .3238168-.1173841.3238168-1.202611 0-1.0855125-.2263042-1.2032117-.3238168-1.2032117zm0-2.982395h-4.67642218l1.03884478 2.4052221h3.6375774c.0975126 0 .3238168-.1179749.3238168-1.2032018 0-1.0846362-.2263042-1.2020203-.3238168-1.2020203z" fill="#44525e"/></g></g><g transform="translate(178 122)"><rect fill="#fff" fill-rule="evenodd" height="55.273684" rx="5" width="56.851728"/><rect height="51.273684" rx="5" stroke="#44525e" stroke-width="4" width="52.851728" x="2" y="2"/><path d="m0 5.7426191c0-2.76461429 2.23446755-5.00577699 5.00841312-5.00577699h46.98317378c2.7660702 0 5.0084131 2.23870396 5.0084131 5.00577699v6.2573809h-57z" fill="#44525e"/><circle cx="6" cy="6" fill="#fff" r="2"/><circle cx="13" cy="6" fill="#fff" r="2"/><g transform="translate(22 15)"><path d="m4.65662976 7.19621988h-3.94991772l1.30575288 3.03415922h8.00635898l-8.46557011-10.2303791zm7.37332214 18.58683262-1.307279-3.0357982h-1.83455529l-.03845836-.0907387-2.53611516-5.8789442h-1.4763737l2.57503136 5.9696829h-4.69619303l8.46694358 10.2324651-3.10429159-7.1966669z" fill="#eacc2f"/><path d="m9.37894729 16.1800507-2.32664046-5.3883458h-5.79679675c-.44263305 0-.68681828 0-.88715416.6260683-.23820806.7469673-.34417143 2.3054032-.34417143 5.050864 0 2.7454705.10596337 4.3036209.34417143 5.0504307.20033588.6257532.44452111.6257532.88715416.6257532h5.25636845l-2.57676246-5.967803h2.12160968l-1.28682636-2.9793329h.64261555l1.28492821 2.9823655zm3.82063811 3.5595384h-4.96295245l1.03820874 2.405232h3.92474371c.0978053 0 .3235037-.1167638.3235037-1.2013902 0-1.0864478-.2256984-1.2038418-.3235037-1.2038418zm0-6.5419039c.0978053 0 .3235037-.1182998.3235037-1.2029261 0-1.0859753-.2256984-1.2030542-.3235037-1.2030542h-5.50463273l1.03820875 2.4059803zm.4595447 3.5595384h-6.71088848l1.03916792 2.4058227h5.67172056c.0975126 0 .3238168-.1173841.3238168-1.202611 0-1.0855125-.2263042-1.2032117-.3238168-1.2032117zm0-2.982395h-4.67642218l1.03884478 2.4052221h3.6375774c.0975126 0 .3238168-.1179749.3238168-1.2032018 0-1.0846362-.2263042-1.2020203-.3238168-1.2020203z" fill="#44525e"/></g></g><g transform="translate(250 122)"><rect fill="#fff" fill-rule="evenodd" height="55.273684" rx="5" width="56.851728"/><rect height="51.273684" rx="5" stroke="#44525e" stroke-width="4" width="52.851728" x="2" y="2"/><path d="m0 5.7426191c0-2.76461429 2.23446755-5.00577699 5.00841312-5.00577699h46.98317378c2.7660702 0 5.0084131 2.23870396 5.0084131 5.00577699v6.2573809h-57z" fill="#44525e"/><circle cx="6" cy="6" fill="#fff" r="2"/><circle cx="13" cy="6" fill="#fff" r="2"/><g transform="translate(22 15)"><path d="m4.65662976 7.19621988h-3.94991772l1.30575288 3.03415922h8.00635898l-8.46557011-10.2303791zm7.37332214 18.58683262-1.307279-3.0357982h-1.83455529l-.03845836-.0907387-2.53611516-5.8789442h-1.4763737l2.57503136 5.9696829h-4.69619303l8.46694358 10.2324651-3.10429159-7.1966669z" fill="#eacc2f"/><path d="m9.37894729 16.1800507-2.32664046-5.3883458h-5.79679675c-.44263305 0-.68681828 0-.88715416.6260683-.23820806.7469673-.34417143 2.3054032-.34417143 5.050864 0 2.7454705.10596337 4.3036209.34417143 5.0504307.20033588.6257532.44452111.6257532.88715416.6257532h5.25636845l-2.57676246-5.967803h2.12160968l-1.28682636-2.9793329h.64261555l1.28492821 2.9823655zm3.82063811 3.5595384h-4.96295245l1.03820874 2.405232h3.92474371c.0978053 0 .3235037-.1167638.3235037-1.2013902 0-1.0864478-.2256984-1.2038418-.3235037-1.2038418zm0-6.5419039c.0978053 0 .3235037-.1182998.3235037-1.2029261 0-1.0859753-.2256984-1.2030542-.3235037-1.2030542h-5.50463273l1.03820875 2.4059803zm.4595447 3.5595384h-6.71088848l1.03916792 2.4058227h5.67172056c.0975126 0 .3238168-.1173841.3238168-1.202611 0-1.0855125-.2263042-1.2032117-.3238168-1.2032117zm0-2.982395h-4.67642218l1.03884478 2.4052221h3.6375774c.0975126 0 .3238168-.1179749.3238168-1.2032018 0-1.0846362-.2263042-1.2020203-.3238168-1.2020203z" fill="#44525e"/></g></g><g transform="translate(321 122)"><rect fill="#fff" fill-rule="evenodd" height="55.273684" rx="5" width="56.851728"/><rect height="51.273684" rx="5" stroke="#44525e" stroke-width="4" width="52.851728" x="2" y="2"/><path d="m0 5.7426191c0-2.76461429 2.23446755-5.00577699 5.00841312-5.00577699h46.98317378c2.7660702 0 5.0084131 2.23870396 5.0084131 5.00577699v6.2573809h-57z" fill="#44525e"/><circle cx="6" cy="6" fill="#fff" r="2"/><circle cx="13" cy="6" fill="#fff" r="2"/><g transform="translate(22 15)"><path d="m4.65662976 7.19621988h-3.94991772l1.30575288 3.03415922h8.00635898l-8.46557011-10.2303791zm7.37332214 18.58683262-1.307279-3.0357982h-1.83455529l-.03845836-.0907387-2.53611516-5.8789442h-1.4763737l2.57503136 5.9696829h-4.69619303l8.46694358 10.2324651-3.10429159-7.1966669z" fill="#eacc2f"/><path d="m9.37894729 16.1800507-2.32664046-5.3883458h-5.79679675c-.44263305 0-.68681828 0-.88715416.6260683-.23820806.7469673-.34417143 2.3054032-.34417143 5.050864 0 2.7454705.10596337 4.3036209.34417143 5.0504307.20033588.6257532.44452111.6257532.88715416.6257532h5.25636845l-2.57676246-5.967803h2.12160968l-1.28682636-2.9793329h.64261555l1.28492821 2.9823655zm3.82063811 3.5595384h-4.96295245l1.03820874 2.405232h3.92474371c.0978053 0 .3235037-.1167638.3235037-1.2013902 0-1.0864478-.2256984-1.2038418-.3235037-1.2038418zm0-6.5419039c.0978053 0 .3235037-.1182998.3235037-1.2029261 0-1.0859753-.2256984-1.2030542-.3235037-1.2030542h-5.50463273l1.03820875 2.4059803zm.4595447 3.5595384h-6.71088848l1.03916792 2.4058227h5.67172056c.0975126 0 .3238168-.1173841.3238168-1.202611 0-1.0855125-.2263042-1.2032117-.3238168-1.2032117zm0-2.982395h-4.67642218l1.03884478 2.4052221h3.6375774c.0975126 0 .3238168-.1179749.3238168-1.2032018 0-1.0846362-.2263042-1.2020203-.3238168-1.2020203z" fill="#44525e"/></g></g><g transform="translate(142 184)"><rect fill="#fff" fill-rule="evenodd" height="55.273684" rx="5" width="56.851728"/><rect height="51.273684" rx="5" stroke="#44525e" stroke-width="4" width="52.851728" x="2" y="2"/><path d="m0 5.7426191c0-2.76461429 2.23446755-5.00577699 5.00841312-5.00577699h46.98317378c2.7660702 0 5.0084131 2.23870396 5.0084131 5.00577699v6.2573809h-57z" fill="#44525e"/><circle cx="6" cy="6" fill="#fff" r="2"/><circle cx="13" cy="6" fill="#fff" r="2"/><g transform="translate(22 15)"><path d="m4.65662976 7.19621988h-3.94991772l1.30575288 3.03415922h8.00635898l-8.46557011-10.2303791zm7.37332214 18.58683262-1.307279-3.0357982h-1.83455529l-.03845836-.0907387-2.53611516-5.8789442h-1.4763737l2.57503136 5.9696829h-4.69619303l8.46694358 10.2324651-3.10429159-7.1966669z" fill="#eacc2f"/><path d="m9.37894729 16.1800507-2.32664046-5.3883458h-5.79679675c-.44263305 0-.68681828 0-.88715416.6260683-.23820806.7469673-.34417143 2.3054032-.34417143 5.050864 0 2.7454705.10596337 4.3036209.34417143 5.0504307.20033588.6257532.44452111.6257532.88715416.6257532h5.25636845l-2.57676246-5.967803h2.12160968l-1.28682636-2.9793329h.64261555l1.28492821 2.9823655zm3.82063811 3.5595384h-4.96295245l1.03820874 2.405232h3.92474371c.0978053 0 .3235037-.1167638.3235037-1.2013902 0-1.0864478-.2256984-1.2038418-.3235037-1.2038418zm0-6.5419039c.0978053 0 .3235037-.1182998.3235037-1.2029261 0-1.0859753-.2256984-1.2030542-.3235037-1.2030542h-5.50463273l1.03820875 2.4059803zm.4595447 3.5595384h-6.71088848l1.03916792 2.4058227h5.67172056c.0975126 0 .3238168-.1173841.3238168-1.202611 0-1.0855125-.2263042-1.2032117-.3238168-1.2032117zm0-2.982395h-4.67642218l1.03884478 2.4052221h3.6375774c.0975126 0 .3238168-.1179749.3238168-1.2032018 0-1.0846362-.2263042-1.2020203-.3238168-1.2020203z" fill="#44525e"/></g></g><g transform="translate(71 184)"><rect fill="#fff" fill-rule="evenodd" height="55.273684" rx="5" width="56.851728"/><rect height="51.273684" rx="5" stroke="#44525e" stroke-width="4" width="52.851728" x="2" y="2"/><path d="m0 5.7426191c0-2.76461429 2.23446755-5.00577699 5.00841312-5.00577699h46.98317378c2.7660702 0 5.0084131 2.23870396 5.0084131 5.00577699v6.2573809h-57z" fill="#44525e"/><circle cx="6" cy="6" fill="#fff" r="2"/><circle cx="13" cy="6" fill="#fff" r="2"/><g transform="translate(22 15)"><path d="m4.65662976 7.19621988h-3.94991772l1.30575288 3.03415922h8.00635898l-8.46557011-10.2303791zm7.37332214 18.58683262-1.307279-3.0357982h-1.83455529l-.03845836-.0907387-2.53611516-5.8789442h-1.4763737l2.57503136 5.9696829h-4.69619303l8.46694358 10.2324651-3.10429159-7.1966669z" fill="#eacc2f"/><path d="m9.37894729 16.1800507-2.32664046-5.3883458h-5.79679675c-.44263305 0-.68681828 0-.88715416.6260683-.23820806.7469673-.34417143 2.3054032-.34417143 5.050864 0 2.7454705.10596337 4.3036209.34417143 5.0504307.20033588.6257532.44452111.6257532.88715416.6257532h5.25636845l-2.57676246-5.967803h2.12160968l-1.28682636-2.9793329h.64261555l1.28492821 2.9823655zm3.82063811 3.5595384h-4.96295245l1.03820874 2.405232h3.92474371c.0978053 0 .3235037-.1167638.3235037-1.2013902 0-1.0864478-.2256984-1.2038418-.3235037-1.2038418zm0-6.5419039c.0978053 0 .3235037-.1182998.3235037-1.2029261 0-1.0859753-.2256984-1.2030542-.3235037-1.2030542h-5.50463273l1.03820875 2.4059803zm.4595447 3.5595384h-6.71088848l1.03916792 2.4058227h5.67172056c.0975126 0 .3238168-.1173841.3238168-1.202611 0-1.0855125-.2263042-1.2032117-.3238168-1.2032117zm0-2.982395h-4.67642218l1.03884478 2.4052221h3.6375774c.0975126 0 .3238168-.1179749.3238168-1.2032018 0-1.0846362-.2263042-1.2020203-.3238168-1.2020203z" fill="#44525e"/></g></g><g transform="translate(0 184)"><rect fill="#fff" fill-rule="evenodd" height="55.273684" rx="5" width="56.851728"/><rect height="51.273684" rx="5" stroke="#44525e" stroke-width="4" width="52.851728" x="2" y="2"/><path d="m0 5.7426191c0-2.76461429 2.23446755-5.00577699 5.00841312-5.00577699h46.98317378c2.7660702 0 5.0084131 2.23870396 5.0084131 5.00577699v6.2573809h-57z" fill="#44525e"/><circle cx="6" cy="6" fill="#fff" r="2"/><circle cx="13" cy="6" fill="#fff" r="2"/><g transform="translate(22 15)"><path d="m4.65662976 7.19621988h-3.94991772l1.30575288 3.03415922h8.00635898l-8.46557011-10.2303791zm7.37332214 18.58683262-1.307279-3.0357982h-1.83455529l-.03845836-.0907387-2.53611516-5.8789442h-1.4763737l2.57503136 5.9696829h-4.69619303l8.46694358 10.2324651-3.10429159-7.1966669z" fill="#eacc2f"/><path d="m9.37894729 16.1800507-2.32664046-5.3883458h-5.79679675c-.44263305 0-.68681828 0-.88715416.6260683-.23820806.7469673-.34417143 2.3054032-.34417143 5.050864 0 2.7454705.10596337 4.3036209.34417143 5.0504307.20033588.6257532.44452111.6257532.88715416.6257532h5.25636845l-2.57676246-5.967803h2.12160968l-1.28682636-2.9793329h.64261555l1.28492821 2.9823655zm3.82063811 3.5595384h-4.96295245l1.03820874 2.405232h3.92474371c.0978053 0 .3235037-.1167638.3235037-1.2013902 0-1.0864478-.2256984-1.2038418-.3235037-1.2038418zm0-6.5419039c.0978053 0 .3235037-.1182998.3235037-1.2029261 0-1.0859753-.2256984-1.2030542-.3235037-1.2030542h-5.50463273l1.03820875 2.4059803zm.4595447 3.5595384h-6.71088848l1.03916792 2.4058227h5.67172056c.0975126 0 .3238168-.1173841.3238168-1.202611 0-1.0855125-.2263042-1.2032117-.3238168-1.2032117zm0-2.982395h-4.67642218l1.03884478 2.4052221h3.6375774c.0975126 0 .3238168-.1179749.3238168-1.2032018 0-1.0846362-.2263042-1.2020203-.3238168-1.2020203z" fill="#44525e"/></g></g><g transform="translate(213 184)"><rect fill="#fff" fill-rule="evenodd" height="55.273684" rx="5" width="56.851728"/><rect height="51.273684" rx="5" stroke="#44525e" stroke-width="4" width="52.851728" x="2" y="2"/><path d="m0 5.7426191c0-2.76461429 2.23446755-5.00577699 5.00841312-5.00577699h46.98317378c2.7660702 0 5.0084131 2.23870396 5.0084131 5.00577699v6.2573809h-57z" fill="#44525e"/><circle cx="6" cy="6" fill="#fff" r="2"/><circle cx="13" cy="6" fill="#fff" r="2"/><g transform="translate(22 15)"><path d="m4.65662976 7.19621988h-3.94991772l1.30575288 3.03415922h8.00635898l-8.46557011-10.2303791zm7.37332214 18.58683262-1.307279-3.0357982h-1.83455529l-.03845836-.0907387-2.53611516-5.8789442h-1.4763737l2.57503136 5.9696829h-4.69619303l8.46694358 10.2324651-3.10429159-7.1966669z" fill="#eacc2f"/><path d="m9.37894729 16.1800507-2.32664046-5.3883458h-5.79679675c-.44263305 0-.68681828 0-.88715416.6260683-.23820806.7469673-.34417143 2.3054032-.34417143 5.050864 0 2.7454705.10596337 4.3036209.34417143 5.0504307.20033588.6257532.44452111.6257532.88715416.6257532h5.25636845l-2.57676246-5.967803h2.12160968l-1.28682636-2.9793329h.64261555l1.28492821 2.9823655zm3.82063811 3.5595384h-4.96295245l1.03820874 2.405232h3.92474371c.0978053 0 .3235037-.1167638.3235037-1.2013902 0-1.0864478-.2256984-1.2038418-.3235037-1.2038418zm0-6.5419039c.0978053 0 .3235037-.1182998.3235037-1.2029261 0-1.0859753-.2256984-1.2030542-.3235037-1.2030542h-5.50463273l1.03820875 2.4059803zm.4595447 3.5595384h-6.71088848l1.03916792 2.4058227h5.67172056c.0975126 0 .3238168-.1173841.3238168-1.202611 0-1.0855125-.2263042-1.2032117-.3238168-1.2032117zm0-2.982395h-4.67642218l1.03884478 2.4052221h3.6375774c.0975126 0 .3238168-.1179749.3238168-1.2032018 0-1.0846362-.2263042-1.2020203-.3238168-1.2020203z" fill="#44525e"/></g></g><g transform="translate(285 184)"><rect fill="#fff" fill-rule="evenodd" height="55.273684" rx="5" width="56.851728"/><rect height="51.273684" rx="5" stroke="#44525e" stroke-width="4" width="52.851728" x="2" y="2"/><path d="m0 5.7426191c0-2.76461429 2.23446755-5.00577699 5.00841312-5.00577699h46.98317378c2.7660702 0 5.0084131 2.23870396 5.0084131 5.00577699v6.2573809h-57z" fill="#44525e"/><circle cx="6" cy="6" fill="#fff" r="2"/><circle cx="13" cy="6" fill="#fff" r="2"/><g transform="translate(22 15)"><path d="m4.65662976 7.19621988h-3.94991772l1.30575288 3.03415922h8.00635898l-8.46557011-10.2303791zm7.37332214 18.58683262-1.307279-3.0357982h-1.83455529l-.03845836-.0907387-2.53611516-5.8789442h-1.4763737l2.57503136 5.9696829h-4.69619303l8.46694358 10.2324651-3.10429159-7.1966669z" fill="#eacc2f"/><path d="m9.37894729 16.1800507-2.32664046-5.3883458h-5.79679675c-.44263305 0-.68681828 0-.88715416.6260683-.23820806.7469673-.34417143 2.3054032-.34417143 5.050864 0 2.7454705.10596337 4.3036209.34417143 5.0504307.20033588.6257532.44452111.6257532.88715416.6257532h5.25636845l-2.57676246-5.967803h2.12160968l-1.28682636-2.9793329h.64261555l1.28492821 2.9823655zm3.82063811 3.5595384h-4.96295245l1.03820874 2.405232h3.92474371c.0978053 0 .3235037-.1167638.3235037-1.2013902 0-1.0864478-.2256984-1.2038418-.3235037-1.2038418zm0-6.5419039c.0978053 0 .3235037-.1182998.3235037-1.2029261 0-1.0859753-.2256984-1.2030542-.3235037-1.2030542h-5.50463273l1.03820875 2.4059803zm.4595447 3.5595384h-6.71088848l1.03916792 2.4058227h5.67172056c.0975126 0 .3238168-.1173841.3238168-1.202611 0-1.0855125-.2263042-1.2032117-.3238168-1.2032117zm0-2.982395h-4.67642218l1.03884478 2.4052221h3.6375774c.0975126 0 .3238168-.1179749.3238168-1.2032018 0-1.0846362-.2263042-1.2020203-.3238168-1.2020203z" fill="#44525e"/></g></g><g transform="translate(356 184)"><rect fill="#fff" fill-rule="evenodd" height="55.273684" rx="5" width="56.851728"/><rect height="51.273684" rx="5" stroke="#44525e" stroke-width="4" width="52.851728" x="2" y="2"/><path d="m0 5.7426191c0-2.76461429 2.23446755-5.00577699 5.00841312-5.00577699h46.98317378c2.7660702 0 5.0084131 2.23870396 5.0084131 5.00577699v6.2573809h-57z" fill="#44525e"/><circle cx="6" cy="6" fill="#fff" r="2"/><circle cx="13" cy="6" fill="#fff" r="2"/><g transform="translate(22 15)"><path d="m4.65662976 7.19621988h-3.94991772l1.30575288 3.03415922h8.00635898l-8.46557011-10.2303791zm7.37332214 18.58683262-1.307279-3.0357982h-1.83455529l-.03845836-.0907387-2.53611516-5.8789442h-1.4763737l2.57503136 5.9696829h-4.69619303l8.46694358 10.2324651-3.10429159-7.1966669z" fill="#eacc2f"/><path d="m9.37894729 16.1800507-2.32664046-5.3883458h-5.79679675c-.44263305 0-.68681828 0-.88715416.6260683-.23820806.7469673-.34417143 2.3054032-.34417143 5.050864 0 2.7454705.10596337 4.3036209.34417143 5.0504307.20033588.6257532.44452111.6257532.88715416.6257532h5.25636845l-2.57676246-5.967803h2.12160968l-1.28682636-2.9793329h.64261555l1.28492821 2.9823655zm3.82063811 3.5595384h-4.96295245l1.03820874 2.405232h3.92474371c.0978053 0 .3235037-.1167638.3235037-1.2013902 0-1.0864478-.2256984-1.2038418-.3235037-1.2038418zm0-6.5419039c.0978053 0 .3235037-.1182998.3235037-1.2029261 0-1.0859753-.2256984-1.2030542-.3235037-1.2030542h-5.50463273l1.03820875 2.4059803zm.4595447 3.5595384h-6.71088848l1.03916792 2.4058227h5.67172056c.0975126 0 .3238168-.1173841.3238168-1.202611 0-1.0855125-.2263042-1.2032117-.3238168-1.2032117zm0-2.982395h-4.67642218l1.03884478 2.4052221h3.6375774c.0975126 0 .3238168-.1179749.3238168-1.2032018 0-1.0846362-.2263042-1.2020203-.3238168-1.2020203z" fill="#44525e"/></g></g><rect height="40.416353" rx="5" stroke="#44525e" stroke-width="4" width="41.880342" x="185" y="17"/><path d="m183 20.5253759c0-2.4992961 2.035917-4.5253759 4.515468-4.5253759h36.969064c2.493824 0 4.515468 2.0311654 4.515468 4.5253759v4.525376h-46z" fill="#44525e"/><path d="m218.969999 40.8415332-8.361847 4.4974611v-1.8836367l5.995064-3.1435199-5.995064-2.9759126v-1.8793936l8.361847 4.3270251zm-17.421151 8.1313526 7.156221-16.9728858h1.890158l-7.134936 16.9728858zm-8.548848-8.1313526 8.361847 4.4974611v-1.8836367l-5.995064-3.1435199 5.995064-2.9759126v-1.8793936l-8.361847 4.3270251z" fill="#44525e"/><g transform="translate(212 11)"><circle cx="11.5" cy="11.5" fill="#fff" r="11.5"/><path d="m17.2549396 12.5945144c0 .2333539-.1916076.4252841-.4259478.4252841h-3.8293947v3.8896924c0 .2347347-.1916075.4266648-.4259478.4266648h-2.5529298c-.23434016 0-.42594774-.1919301-.42594774-.4266648v-3.8896924h-3.82801623c-.23434021 0-.42594779-.1919302-.42594779-.4252841v-2.5586085c0-.23335388.19160758-.42528404.42594779-.42528404h3.82801623v-3.8344607c0-.23611551.19160758-.42804566.42594774-.42804566h2.5529298c.2343403 0 .4259478.19193015.4259478.42804566v3.8344607h3.8293947c.2343402 0 .4259478.19193016.4259478.42528404zm-5.9563767-11.5945144c-5.68757468 0-10.2985629 4.61737003-10.2985629 10.3159006 0 5.6971497 4.61098822 10.3145197 10.2985629 10.3145197 5.6861962 0 10.2971845-4.61737 10.2971845-10.3145197 0-5.69853057-4.6109883-10.3159006-10.2971845-10.3159006z" fill="#44525e"/></g></g></svg>