<svg height="399" viewBox="0 0 426 399" width="426" xmlns="http://www.w3.org/2000/svg"><g fill="none" fill-rule="evenodd"><text fill="#000" font-family="Avenir-Black, Avenir" font-size="12" font-weight="700"><tspan x="240.840134" y="199.504645">Custom Upstream</tspan></text><text fill="#000" font-family="Avenir-Black, Avenir" font-size="12" font-weight="700"><tspan x="369.192062" y="327.484006">Sites</tspan></text><text fill="#000" font-family="Avenir-Black, Avenir" font-size="12" font-weight="700"><tspan x="240.840134" y="53.667699">Core Updates</tspan></text><g fill="#44515d" fill-rule="nonzero"><path d="m160.944822 19.3457174 8.460026 15.6725345h-10.767634l3.561547 6.8968275h21.820335z"/><path d="m169.966471 55.0608879 7.126702 13.2647748h-12.687333l23.456771 22.5736387-8.458222-15.6753856h10.76583l-3.603044-6.8982531h-4.994104l-7.132114-13.2647748z"/><path d="m192.414469 46.9778855c.265222 0 .880464-.2594507.880464-2.6572316 0-2.3935042-.615242-2.6529549-.880464-2.6529549h-15.02922l2.852484 5.3101865z"/><path d="m183.122046 54.4199716 10.098266-.0014255c.267025 0 .882267-.2594508.882267-2.6558061 0-2.3949298-.615242-2.6543805-.882267-2.6543805l-12.95075.0014255z"/><path d="m192.407831 61.0134163h-13.580426l2.852485 5.3087611h10.727941c.265221 0 .880463-.2580252.880463-2.652955 0-2.3963553-.615242-2.6558061-.880463-2.6558061"/><path d="m194.284876 55.0608879h-18.341784l2.852485 5.3101866h15.489299c.267026 0 .882268-.2608763.882268-2.6543805 0-2.3963554-.615242-2.6558061-.882268-2.6558061"/><path d="m173.37718 53.3429816-3.420816-6.3693727h1.631022l3.422621 6.3693727 7.263823.0028511-6.275106-11.6781337h-15.662505c-1.207029 0-1.86918 0-2.412253 1.3827868-.653131 1.6479398-.728908 4.7613485-.728908 10.8213762 0 6.0600276.075777 9.1734364.728908 10.8228017.543073 1.3813613 1.205224 1.3813613 2.412253 1.3813613l13.741002.0014255-6.807353-12.7358944z"/></g><path d="m217.873731 55.2447879c0 21.4698798-18.749542 38.8753348-41.877372 38.8753348s-41.875805-17.405455-41.875805-38.8753348c0-21.4698797 18.747975-38.8753347 41.875805-38.8753347s41.877372 17.405455 41.877372 38.8753347z" stroke="#0093c9" stroke-width="3.549"/><path d="m216.431574 201.081734c0 21.46988-18.749541 38.875335-41.877372 38.875335-23.12783 0-41.875805-17.405455-41.875805-38.875335 0-21.469879 18.747975-38.875334 41.875805-38.875334 23.127831 0 41.877372 17.405455 41.877372 38.875334z" stroke="#0093c9" stroke-width="3.549"/><path d="m217.873731 333.525492c0 21.469879-18.749542 38.875335-41.877372 38.875335s-41.875805-17.405456-41.875805-38.875335c0-21.46988 18.747975-38.875335 41.875805-38.875335s41.877372 17.405455 41.877372 38.875335z" stroke="#0093c9" stroke-width="3.549"/><path d="m61.1534999 325.219734h-9.5706116v-7.922167c0-1.001269-.9805648-1.813561-2.1901775-1.813561h-21.4676319c-1.2096127 0-2.1901775.811673-2.1901775 1.813561v23.209484c0 1.001269.9805648 1.812941 2.1901775 1.812941h9.5706116v7.922168c0 1.001268.9805648 1.81294 2.1901775 1.81294h21.4676319c1.2096127 0 2.1901775-.811672 2.1901775-1.81294v-23.209485c0-1.001269-.9805648-1.812941-2.1901775-1.812941zm-23.6578094 1.812941v13.111293h-9.1319773v-22.483937h12.3468824l8.2434808 6.823622v.735462h-9.2682084c-1.2096127.000619-2.1901775.812291-2.1901775 1.81356zm23.2191751 22.84702h-20.5903633v-22.483936h12.3468824l8.2434809 6.823622z" fill="#44515d" fill-rule="nonzero"/><g stroke="#0093c9"><path d="m349.331584 333.525492c0 21.469879-18.749542 38.875335-41.877372 38.875335s-41.875805-17.405456-41.875805-38.875335c0-21.46988 18.747975-38.875335 41.875805-38.875335s41.877372 17.405455 41.877372 38.875335z" stroke-width="3.549"/><path d="m86.4158779 333.525492c0 21.469879-18.7495418 38.875335-41.877372 38.875335s-41.87580508-17.405456-41.87580508-38.875335c0-21.46988 18.74797488-38.875335 41.87580508-38.875335s41.877372 17.405455 41.877372 38.875335z" stroke-width="3.549"/><path d="m68.5024334 296.882355 86.5293896-59.525284" stroke-linecap="square" stroke-width="3.808"/><path d="m173.904 293.906091v-50.596492" stroke-linecap="square" stroke-width="3.808"/><path d="m172.904 161.462333v-66.9659443" stroke-linecap="square" stroke-width="3.808"/><path d="m192.59033 238.828486 95.11989 59.542001" stroke-linecap="square" stroke-width="3.808"/></g><path d="m323.849897 323.731602h-9.570612v-7.922167c0-1.001269-.980564-1.813561-2.190177-1.813561h-21.467632c-1.209613 0-2.190178.811672-2.190178 1.813561v23.209484c0 1.001269.980565 1.812941 2.190178 1.812941h9.570612v7.922168c0 1.001268.980564 1.81294 2.190177 1.81294h21.467632c1.209613 0 2.190177-.811672 2.190177-1.81294v-23.209485c0-1.001269-.980564-1.812941-2.190177-1.812941zm-23.657809 1.812941v13.111292h-9.131978v-22.483936h12.346883l8.243481 6.823622v.735462h-9.268209c-1.209613.000619-2.190177.812291-2.190177 1.81356zm23.219175 22.84702h-20.590364v-22.483936h12.346883l8.243481 6.823622z" fill="#44515d" fill-rule="nonzero"/><path d="m192.613656 325.219734h-9.570611v-7.922167c0-1.001269-.980565-1.813561-2.190178-1.813561h-21.467632c-1.209613 0-2.190177.811673-2.190177 1.813561v23.209484c0 1.001269.980564 1.812941 2.190177 1.812941h9.570612v7.922168c0 1.001268.980565 1.81294 2.190177 1.81294h21.467632c1.209613 0 2.190178-.811672 2.190178-1.81294v-23.209485c0-1.001269-.980565-1.812941-2.190178-1.812941zm-23.657809 1.812941v13.111293h-9.131978v-22.483937h12.346883l8.243481 6.823622v.735462h-9.268209c-1.209612.000619-2.190177.812291-2.190177 1.81356zm23.219175 22.84702h-20.590363v-22.483936h12.346882l8.243481 6.823622z" fill="#44515d" fill-rule="nonzero"/><path d="m189.022624 186.247674c-.602705 0-1.090347-.427174-1.090347-.951762 0-.526563.487642-.951762 1.090347-.951762.599574 0 1.087217.424541 1.087217.951762 0 .524588-.48686.951762-1.087217.951762zm.724029 15.319024h-2.60572v-9.651893c0-.462059-.428155-.839868-.960414-.839868h-20.072416v-2.951384h23.63855zm-5.504182-7.284336c-.596443 0-1.087217-.424541-1.087217-.951762 0-.526563.490774-.951762 1.087217-.951762.602705 0 1.093479.424541 1.093479.951762s-.490774.951762-1.093479.951762zm-4.239284-.951104c0-.526562.487643-.951762 1.087217-.951762.602704 0 1.090347.424541 1.090347.951762 0 .526563-.487643.951762-1.090347.951762-.600357-.000658-1.087217-.425199-1.087217-.951762zm-3.214686 0c0-.526562.490774-.951762 1.087216-.951762.602705 0 1.090348.424541 1.090348.951762 0 .526563-.487643.951762-1.090348.951762-.596442-.000658-1.087216-.425199-1.087216-.951762zm8.18113 16.270129h-2.60572v-9.651894c0-.462059-.431286-.839868-.960414-.839868h-20.075547v-2.951383h23.641681zm-5.501834-7.284337c-.599574 0-1.087217-.427174-1.087217-.951762 0-.526562.487643-.951762 1.087217-.951762.602705 0 1.090348.424541 1.090348.951762 0 .524588-.487643.951762-1.090348.951762zm-4.242415-.951104c0-.526562.487643-.951762 1.090348-.951762.596443 0 1.087216.424542 1.087216.951762 0 .52393-.490773.951762-1.087216.951762-.602705-.000658-1.090348-.427832-1.090348-.951762zm-3.211555 0c0-.526562.487643-.951762 1.087216-.951762.599574 0 1.090348.424542 1.090348.951762 0 .52393-.490774.951762-1.090348.951762-.599573-.000658-1.087216-.427832-1.087216-.951762zm8.177999 16.270129h-23.63855v-13.443145h23.63855zm2.464044-33.291267c.599574 0 1.087217.424541 1.087217.951762 0 .52393-.487643.951762-1.087217.951762-.602704 0-1.090347-.427174-1.090347-.951762 0-.526563.487643-.951762 1.090347-.951762zm3.211556 0c.602705 0 1.090347.424541 1.090347.951762 0 .52393-.487642.951762-1.090347.951762-.599574 0-1.087217-.427174-1.087217-.951762 0-.526563.487643-.951762 1.087217-.951762zm-21.04144-1.304559c-.289612 0-.546348.114527-.720898.290926-.147936.146779-.242647.337658-.242647.548941v7.192188h-3.81426c-.289612 0-.544.116502-.717767.290926-.151067.14678-.242647.340291-.242647.551575v7.192188h-3.816608c-.286481 0-.544.116502-.720898.290925-.144806.14678-.239516.337659-.239516.551575v18.821983c0 .462058.428155.839867.960414.839867h26.132338c.529128 0 .963545-.377809.963545-.839867v-7.194821h3.817391c.529128 0 .957283-.375176.957283-.8425v-7.192188h3.817391c.531476 0 .960414-.377809.960414-.839868v-8.821131-10.000852c-.001566-.464691-.432852-.839867-.961197-.839867z" fill="#44515d" fill-rule="nonzero"/></g></svg>