<svg height="40" viewBox="0 0 40 40" width="40" xmlns="http://www.w3.org/2000/svg"><g fill="#1794c7" fill-rule="evenodd" transform="translate(5 .379647)"><path d="m23.8811429 3.16h-5.8617143v2.37828571h4.7542857c.6548571 0 1.1862857.53142858 1.1862857 1.18514286v27.38285713c0 .6571429-.5314286 1.1862857-1.1862857 1.1862857h-19.07314287c-.66171429 0-1.19085714-.5291428-1.19085714-1.1862857v-27.38285713c0-.65371428.52914285-1.18514286 1.19085714-1.18514286h4.81942857v-2.37828571h-6.01028571c-1.312 0-2.37714286 1.06171429-2.37714286 2.37828571v29.75999999c0 1.3097143 1.06514286 2.3702857 2.37714286 2.3702857h21.37142861c1.312 0 2.456-1.0605714 2.456-2.3702857v-29.75999999c0-1.31657142-1.144-2.37828571-2.456-2.37828571"/><path d="m6.76342857 7.52342857v1.256h12.93714283v-1.256c0-.34742857-.4171428-.63314286-.9188571-.63314286h-2.7634286v-5.14628571c-2.8297143-2.01371429-5.5862857-.04228571-5.5862857-.04228571l.0114286 5.18857142h-2.75771431c-.50742858 0-.92228572.28571429-.92228572.63314286z"/><path d="m22.0594286 17.648-9.5622857 9.5554286c-.2377143.2377143-.624.2377143-.8617143 0l-.1965715-.1908572-1.1085714-1.1074285-.0114286-.0251429-4.1348571-4.1577143c-.24-.2445714-.24-.632 0-.8697143l1.30514286-1.3028571c.23771428-.24.624-.24.86971428 0l3.71657146 3.7474286 7.8091428-7.816c.2365715-.2468572.632-.2468572.8697143 0l1.3051429 1.3028571c.2377143.2331429.2377143.6262857 0 .864"/></g></svg>