<svg enable-background="new 0 0 100 100" height="100" viewBox="0 0 100 100" width="100" xmlns="http://www.w3.org/2000/svg"><path d="m50.187 99.369c-27.182 0-49.296-22.113-49.296-49.295s22.114-49.297 49.296-49.297 49.296 22.114 49.296 49.296-22.115 49.296-49.296 49.296zm0-94.061c-24.684 0-44.766 20.082-44.766 44.766s20.081 44.766 44.766 44.766 44.767-20.082 44.767-44.766-20.083-44.766-44.767-44.766z" fill="#eecf1e"/><path d="m70.51 27.165c-.77 0-1.393-.649-1.393-1.446 0-.8.623-1.446 1.393-1.446.766 0 1.389.645 1.389 1.446 0 .797-.622 1.446-1.389 1.446m.925 23.274h-3.329v-14.664c0-.702-.547-1.276-1.227-1.276h-25.644v-4.484h30.2zm-7.032-11.067c-.762 0-1.389-.645-1.389-1.446 0-.8.627-1.446 1.389-1.446.77 0 1.397.645 1.397 1.446s-.627 1.446-1.397 1.446m-5.416-1.445c0-.8.623-1.446 1.389-1.446.77 0 1.393.645 1.393 1.446 0 .8-.623 1.446-1.393 1.446-.767-.001-1.389-.646-1.389-1.446m-4.107 0c0-.8.627-1.446 1.389-1.446.77 0 1.393.645 1.393 1.446 0 .8-.623 1.446-1.393 1.446-.762-.001-1.389-.646-1.389-1.446m10.452 24.719h-3.329v-14.664c0-.702-.551-1.276-1.227-1.276h-25.648v-4.484h30.204zm-7.029-11.067c-.766 0-1.389-.649-1.389-1.446 0-.8.623-1.446 1.389-1.446.77 0 1.393.645 1.393 1.446 0 .797-.623 1.446-1.393 1.446m-5.42-1.445c0-.8.623-1.446 1.393-1.446.762 0 1.389.645 1.389 1.446 0 .796-.627 1.446-1.389 1.446-.77-.001-1.393-.65-1.393-1.446m-4.103 0c0-.8.623-1.446 1.389-1.446s1.393.645 1.393 1.446c0 .796-.627 1.446-1.393 1.446-.766-.001-1.389-.65-1.389-1.446m10.448 24.719h-30.2v-20.424h30.2zm3.148-50.579c.766 0 1.389.645 1.389 1.446 0 .796-.623 1.446-1.389 1.446-.77 0-1.393-.649-1.393-1.446 0-.8.623-1.446 1.393-1.446m4.103 0c.77 0 1.393.645 1.393 1.446 0 .796-.623 1.446-1.393 1.446-.766 0-1.389-.649-1.389-1.446 0-.8.623-1.446 1.389-1.446m6.504-1.982h-33.386c-.37 0-.698.174-.921.442-.189.223-.31.513-.31.834v10.927h-4.873c-.37 0-.695.177-.917.442v.004c-.193.219-.31.513-.31.834v10.927h-4.876c-.366 0-.695.177-.921.442-.185.223-.306.513-.306.838v28.596c0 .702.547 1.276 1.227 1.276h33.386c.676 0 1.231-.574 1.231-1.276v-10.931h4.877c.676 0 1.223-.57 1.223-1.28v-10.927h4.877c.679 0 1.227-.574 1.227-1.276v-28.596c-.002-.706-.553-1.276-1.228-1.276" fill="#44515d"/></svg>