<svg height="87" viewBox="0 0 119 87" width="119" xmlns="http://www.w3.org/2000/svg"><g fill="none" fill-rule="evenodd" transform="translate(0 1)"><path d="m116.1097 27.9629c0-5.622-4.557-10.177-10.179-10.177-.724 0-1.429.075-2.109.219 0-.042.003-.073.003-.113 0-9.362-7.592-16.953-16.953-16.953-6.032 0-11.32 3.156-14.324 7.9 7.879 5.379 13.054 14.429 13.054 24.694 0 .066-.007.128-.007.198 1.201-.254 2.443-.39 3.719-.39 4.711 0 8.985 1.83 12.186 4.801h4.431c5.622 0 10.179-4.554 10.179-10.179z" stroke="#0093c9" stroke-width="3.878"/><g fill="#0093c9"><path d="m101.2413 35.3026c-3.201-2.971-7.475-4.801-12.186-4.801-1.276 0-2.519.136-3.72.39 0-.069.007-.132.007-.198 0-10.265-5.174-19.314-13.054-24.693-4.792-3.272-10.584-5.187-16.824-5.187-13.935 0-25.642 9.545-28.944 22.448-1.516-.331-3.089-.512-4.704-.512-12.048 0-21.816 9.765-21.816 21.816 0 12.048 9.768 21.813 21.816 21.813h8.888v-41.475h45.585v41.475h12.766c9.905 0 17.938-8.028 17.938-17.938 0-5.198-2.222-9.863-5.752-13.138"/><path d="m45.5179 30.3471 3.974 9.318h-5.058l1.673 4.101h10.25z"/><path d="m49.5048 52.2843 3.348 7.887h-5.96l11.019 13.421-3.974-9.32h5.058l-1.692-4.101h-2.347l-3.35-7.887z"/><path d="m60.3602 47.8697c.124 0 .414-.155.414-1.58 0-1.423-.29-1.577-.414-1.577h-7.061l1.341 3.157z"/><path d="m56.2467 51.6555 4.744-.001c.125 0 .414-.154.414-1.579 0-1.424-.289-1.578-.414-1.578l-6.084.001z"/></g><path d="m60.3602 56.0701h-6.379l1.339 3.156h5.04c.124 0 .414-.153.414-1.577s-.29-1.579-.414-1.579" fill="#fefefe"/><path d="m60.9904 52.2843h-8.617l1.34 3.157h7.277c.126 0 .414-.155.414-1.578 0-1.424-.288-1.579-.414-1.579" fill="#fefefe"/><g fill="#0093c9"><path d="m60.3602 56.0701h-6.379l1.339 3.156h5.04c.124 0 .414-.153.414-1.577s-.29-1.579-.414-1.579"/><path d="m60.9904 52.2843h-8.617l1.34 3.157h7.277c.126 0 .414-.155.414-1.578 0-1.424-.288-1.579-.414-1.579"/><path d="m51.3394 51.6542-1.607-3.787h.767l1.607 3.787 3.412.001-2.947-6.942h-7.358c-.567 0-.879 0-1.134.821-.306.981-.342 2.832-.342 6.435 0 3.602.036 5.454.342 6.434.255.822.567.822 1.134.822l6.455.001-3.198-7.573z"/><path d="m78.3784 74.1941h-11.662v11.662z"/></g><path d="m30.7043 24.9039v58.863h32.351v-13.234h13.234v-45.629z" stroke="#0093c9" stroke-width="3.878"/></g></svg>