<svg height="64" viewBox="0 0 118 64" width="118" xmlns="http://www.w3.org/2000/svg"><g fill="#0093c9" fill-rule="evenodd" transform="translate(0 -1)"><path d="m76.814 55.7352h15.753v-16.505h-15.753z"/><path d="m95.637 42.0392h13.345v-2.809h-13.345z"/><path d="m95.637 46.6042h13.345v-2.809h-13.345z"/><path d="m95.637 51.1702h13.345v-2.809h-13.345z"/><path d="m95.637 55.7352h13.345v-2.809h-13.345z"/><g transform="translate(0 .1752)"><path d="m6.2272 3.4965c.977 0 1.774.789 1.774 1.782 0 .977-.797 1.774-1.774 1.774-.985 0-1.782-.797-1.782-1.774 0-.985.797-1.782 1.782-1.782zm5.335 0c.979 0 1.774.789 1.774 1.782 0 .977-.795 1.774-1.774 1.774-.984 0-1.779-.797-1.779-1.774 0-.985.795-1.782 1.779-1.782zm21.549 32.518h-29.556v-26.258h42.683v3.255h3.564v-8.631c0-1.964-1.6-3.556-3.564-3.556h-42.683c-1.963 0-3.555 1.592-3.555 3.556v31.634c0 1.963 1.592 3.563 3.555 3.563h29.556z"/><path d="m39.3386 15.6834c.977 0 1.774.789 1.774 1.782 0 .977-.797 1.774-1.774 1.774-.985 0-1.782-.797-1.782-1.774 0-.985.797-1.782 1.782-1.782zm5.335 0c.979 0 1.774.789 1.774 1.782 0 .977-.795 1.774-1.774 1.774-.984 0-1.779-.797-1.779-1.774 0-.985.795-1.782 1.779-1.782zm23.323 32.518h-31.33v-26.258h42.683v3.304h3.564v-8.68c0-1.964-1.6-3.556-3.564-3.556h-42.683c-1.963 0-3.555 1.592-3.555 3.556v31.634c0 1.963 1.592 3.563 3.555 3.563h31.33z"/><path d="m71.552 60.436h42.683v-26.258h-42.683zm2.672-32.517c.977 0 1.774.789 1.774 1.782 0 .976-.797 1.773-1.774 1.773-.985 0-1.782-.797-1.782-1.773 0-.985.797-1.782 1.782-1.782zm5.335 0c.979 0 1.774.789 1.774 1.782 0 .976-.795 1.773-1.774 1.773-.984 0-1.78-.797-1.78-1.773 0-.985.796-1.782 1.78-1.782zm34.676-2.672h-42.683c-1.963 0-3.555 1.592-3.555 3.556v31.633c0 1.964 1.592 3.564 3.555 3.564h42.683c1.964 0 3.564-1.6 3.564-3.564v-31.633c0-1.964-1.6-3.556-3.564-3.556z"/><path d="m61.1437 38.9774c-.43 0-.782-.349-.782-.782v-11.038h-16.251c-.43 0-.782-.35-.782-.779 0-.434.352-.783.782-.783h17.033c.434 0 .782.349.782.783v11.82c0 .43-.348.779-.782.779zm-9.862-5.083c0-.934.759-1.696 1.693-1.696.935 0 1.694.762 1.694 1.696s-.759 1.693-1.694 1.693c-.934 0-1.693-.759-1.693-1.693zm6.256-3.911v9.404l-2.386-2.897c-.087-.104-.241-.123-.354-.042l-2.774 2.025-4.765-4.636c-.056-.053-.132-.076-.208-.073-.076.009-.143.048-.189.11l-3.662 5.243v-9.134zm1.044-2.087h-16.426c-.577 0-1.043.467-1.043 1.044v12.776c0 .574.466 1.045 1.043 1.045h16.426c.577 0 1.043-.471 1.043-1.045v-12.776c-.003-.577-.466-1.044-1.043-1.044z"/><path d="m7.197 15.842h16.196v-2.989h-16.196z"/><path d="m7.312 32.673h16.195v-2.989h-16.195z"/><path d="m14.862 21.492h9.382v-2.989h-9.382z"/><path d="m7.387 21.492h4.691v-2.989h-4.691z"/><path d="m7.387 26.719h9.382v-2.989h-9.382z"/><path d="m19.321 26.719h9.382v-2.989h-9.382z"/></g></g></svg>