<svg height="60" viewBox="0 0 135 60" width="135" xmlns="http://www.w3.org/2000/svg"><g fill="none" fill-rule="evenodd"><g fill="#0093c9"><path d="m5.231 2.2442c.82 0 1.49.663 1.49 1.497 0 .82-.67 1.49-1.49 1.49-.827 0-1.497-.67-1.497-1.49 0-.827.67-1.497 1.497-1.497zm4.482 0c.822 0 1.49.663 1.49 1.497 0 .82-.668 1.49-1.49 1.49-.827 0-1.495-.67-1.495-1.49 0-.827.668-1.497 1.495-1.497zm-3.31 27.315h-3.416v-22.057h35.854v2.447h2.994v-6.963c0-1.649-1.344-2.986-2.994-2.986h-35.854c-1.65 0-2.987 1.337-2.987 2.986v26.573c0 1.65 1.337 2.994 2.987 2.994h3.416z"/><path d="m11.6336 12.1931c.82 0 1.49.663 1.49 1.497 0 .82-.67 1.49-1.49 1.49-.827 0-1.497-.67-1.497-1.49 0-.827.67-1.497 1.497-1.497zm4.482 0c.822 0 1.49.663 1.49 1.497 0 .82-.668 1.49-1.49 1.49-.827 0-1.495-.67-1.495-1.49 0-.827.668-1.497 1.495-1.497zm-3.31 27.315h-3.416v-22.057h35.854v2.447h2.994v-6.963c0-1.649-1.344-2.986-2.994-2.986h-35.854c-1.65 0-2.987 1.337-2.987 2.986v26.573c0 1.65 1.337 2.994 2.987 2.994h3.416z"/><path d="m15.792 49.4571h35.854v-22.057h-35.854zm2.244-27.315c.821 0 1.49.663 1.49 1.497 0 .82-.669 1.49-1.49 1.49-.827 0-1.496-.67-1.496-1.49 0-.827.669-1.497 1.496-1.497zm4.482 0c.822 0 1.49.663 1.49 1.497 0 .82-.668 1.49-1.49 1.49-.827 0-1.495-.67-1.495-1.49 0-.827.668-1.497 1.495-1.497zm29.128-2.244h-35.854c-1.649 0-2.987 1.337-2.987 2.986v26.573c0 1.65 1.338 2.994 2.987 2.994h35.854c1.65 0 2.994-1.344 2.994-2.994v-26.573c0-1.649-1.344-2.986-2.994-2.986z"/><path d="m97.9072 5.6157 4.689 10.993h-5.968l1.974 4.839h12.094z"/><path d="m102.6111 31.4979 3.95 9.305h-7.032l13.001 15.835-4.688-10.996h5.967l-1.997-4.839h-2.768l-3.953-9.305z"/><path d="m115.4187 26.2894c.147 0 .488-.182.488-1.864 0-1.679-.341-1.861-.488-1.861h-8.33l1.581 3.725z"/><path d="m110.5654 30.756 5.597-.001c.148 0 .489-.182.489-1.863 0-1.68-.341-1.862-.489-1.862l-7.178.001z"/></g><path d="m115.4187 35.9644h-7.527l1.581 3.724h5.946c.147 0 .488-.181.488-1.861 0-1.681-.341-1.863-.488-1.863" fill="#fefefe"/><path d="m116.1622 31.4978h-10.166l1.581 3.725h8.585c.148 0 .489-.183.489-1.862 0-1.681-.341-1.863-.489-1.863" fill="#fefefe"/><g fill="#0093c9"><path d="m115.4187 35.9644h-7.527l1.581 3.724h5.946c.147 0 .488-.181.488-1.861 0-1.681-.341-1.863-.488-1.863"/><path d="m116.1622 31.4978h-10.166l1.581 3.725h8.585c.148 0 .489-.183.489-1.862 0-1.681-.341-1.863-.489-1.863"/><path d="m104.7756 30.7544-1.896-4.468h.904l1.897 4.468 4.026.002-3.478-8.192h-8.681c-.669 0-1.036 0-1.337.97-.362 1.156-.404 3.34-.404 7.591s.042 6.435.404 7.592c.301.969.668.969 1.337.969l7.616.001-3.773-8.934z"/></g><path d="m132.4042 30.7548c0 14.759-11.965 26.724-26.724 26.724s-26.723-11.965-26.723-26.724 11.964-26.724 26.723-26.724 26.724 11.965 26.724 26.724z" stroke="#0093c9" stroke-width="3.549"/><path d="m38.5869 37.9965c0 2.941-2.384 5.325-5.325 5.325s-5.326-2.384-5.326-5.325 2.385-5.325 5.326-5.325 5.325 2.384 5.325 5.325" fill="#0093c9"/><path d="m33.2615 37.9965h45.695" stroke="#0093c9" stroke-width="3"/></g></svg>