<svg height="70" viewBox="0 0 124 70" width="124" xmlns="http://www.w3.org/2000/svg"><g fill="none" fill-rule="evenodd"><path d="m105.9368 29.758c-1.277 0-2.523.138-3.727.392 0-.071.006-.132.006-.199 0-16.545-13.409-29.951-29.948-29.951-13.969 0-25.703 9.566-29.013 22.501-1.519-.331-3.096-.512-4.713-.512-7.581 0-14.258 3.859-18.182 9.717h33.223c1.268 0 2.306 1.038 2.306 2.306v31.708h50.048c9.93 0 17.981-8.047 17.981-17.981s-8.051-17.981-17.981-17.981" fill="#0093c9"/><path d="m42.9774 39.998c.825 0 1.495.669 1.495 1.495 0 .825-.67 1.494-1.495 1.494s-1.495-.669-1.495-1.494c0-.826.67-1.495 1.495-1.495" fill="#0093c9"/><path d="m42.9774 39.998c.825 0 1.495.669 1.495 1.495 0 .825-.67 1.494-1.495 1.494s-1.495-.669-1.495-1.494c0-.826.67-1.495 1.495-1.495z" stroke="#0093c9" stroke-width="1.128"/><path d="m45.9667 44.482c.825 0 1.495.669 1.495 1.495 0 .825-.67 1.494-1.495 1.494s-1.495-.669-1.495-1.494c0-.826.67-1.495 1.495-1.495" fill="#0093c9"/><path d="m45.9667 44.482c.825 0 1.495.669 1.495 1.495 0 .825-.67 1.494-1.495 1.494s-1.495-.669-1.495-1.494c0-.826.67-1.495 1.495-1.495z" stroke="#0093c9" stroke-width="1.128"/><path d="m36.9988 39.998c.825 0 1.495.669 1.495 1.495 0 .825-.67 1.494-1.495 1.494s-1.495-.669-1.495-1.494c0-.826.67-1.495 1.495-1.495" fill="#0093c9"/><path d="m36.9988 39.998c.825 0 1.495.669 1.495 1.495 0 .825-.67 1.494-1.495 1.494s-1.495-.669-1.495-1.494c0-.826.67-1.495 1.495-1.495z" stroke="#0093c9" stroke-width="1.128"/><path d="m39.9881 44.482c.825 0 1.495.669 1.495 1.495 0 .825-.67 1.494-1.495 1.494s-1.495-.669-1.495-1.494c0-.826.67-1.495 1.495-1.495" fill="#0093c9"/><path d="m39.9881 44.482c.825 0 1.495.669 1.495 1.495 0 .825-.67 1.494-1.495 1.494s-1.495-.669-1.495-1.494c0-.826.67-1.495 1.495-1.495z" stroke="#0093c9" stroke-width="1.128"/><path d="m31.0202 39.998c.825 0 1.495.669 1.495 1.495 0 .825-.67 1.494-1.495 1.494s-1.495-.669-1.495-1.494c0-.826.67-1.495 1.495-1.495" fill="#0093c9"/><path d="m31.0202 39.998c.825 0 1.495.669 1.495 1.495 0 .825-.67 1.494-1.495 1.494s-1.495-.669-1.495-1.494c0-.826.67-1.495 1.495-1.495z" stroke="#0093c9" stroke-width="1.128"/><path d="m34.0095 44.482c.825 0 1.495.669 1.495 1.495 0 .825-.67 1.494-1.495 1.494s-1.495-.669-1.495-1.494c0-.826.67-1.495 1.495-1.495" fill="#0093c9"/><path d="m34.0095 44.482c.825 0 1.495.669 1.495 1.495 0 .825-.67 1.494-1.495 1.494s-1.495-.669-1.495-1.494c0-.826.67-1.495 1.495-1.495z" stroke="#0093c9" stroke-width="1.128"/><path d="m25.0416 39.998c.825 0 1.495.669 1.495 1.495 0 .825-.67 1.494-1.495 1.494s-1.495-.669-1.495-1.494c0-.826.67-1.495 1.495-1.495" fill="#0093c9"/><path d="m25.0416 39.998c.825 0 1.495.669 1.495 1.495 0 .825-.67 1.494-1.495 1.494s-1.495-.669-1.495-1.494c0-.826.67-1.495 1.495-1.495z" stroke="#0093c9" stroke-width="1.128"/><path d="m28.0309 44.482c.825 0 1.495.669 1.495 1.495 0 .825-.67 1.494-1.495 1.494s-1.495-.669-1.495-1.494c0-.826.67-1.495 1.495-1.495" fill="#0093c9"/><path d="m28.0309 44.482c.825 0 1.495.669 1.495 1.495 0 .825-.67 1.494-1.495 1.494s-1.495-.669-1.495-1.494c0-.826.67-1.495 1.495-1.495z" stroke="#0093c9" stroke-width="1.128"/><g fill="#0093c9"><path d="m51.343 48.7026c0 1.274-1.036 2.31-2.309 2.31h-44.955c-1.273 0-2.309-1.036-2.309-2.309v-10.432c0-1.273 1.036-2.308 2.309-2.308h44.954c1.274 0 2.31 1.035 2.31 2.308zm0 16.819c0 1.274-1.036 2.31-2.309 2.31h-44.955c-1.273 0-2.309-1.036-2.309-2.309v-10.431c0-1.273 1.036-2.309 2.309-2.309h44.954c1.274 0 2.31 1.036 2.31 2.309zm-23.901 4.08h21.592c2.25 0 4.079-1.829 4.079-4.079v-10.431c0-1.301-.622-2.447-1.573-3.194.951-.747 1.573-1.895 1.573-3.194v-10.432c0-2.249-1.829-4.079-4.079-4.079h-44.955c-2.249 0-4.079 1.83-4.079 4.079v10.431c0 1.3.622 2.448 1.573 3.195-.951.747-1.573 1.894-1.573 3.194v10.43c0 2.251 1.83 4.08 4.079 4.08h21.592z"/><path d="m13.509 43.4878c0 2.529-2.05 4.579-4.579 4.579s-4.579-2.05-4.579-4.579 2.05-4.579 4.579-4.579 4.579 2.05 4.579 4.579"/><path d="m42.9774 56.8173c.825 0 1.495.669 1.495 1.495 0 .825-.67 1.494-1.495 1.494s-1.495-.669-1.495-1.494c0-.826.67-1.495 1.495-1.495"/></g><path d="m42.9774 56.8173c.825 0 1.495.669 1.495 1.495 0 .825-.67 1.494-1.495 1.494s-1.495-.669-1.495-1.494c0-.826.67-1.495 1.495-1.495z" stroke="#0093c9" stroke-width="1.128"/><path d="m45.9667 61.3013c.825 0 1.495.669 1.495 1.495 0 .825-.67 1.494-1.495 1.494s-1.495-.669-1.495-1.494c0-.826.67-1.495 1.495-1.495" fill="#0093c9"/><path d="m45.9667 61.3013c.825 0 1.495.669 1.495 1.495 0 .825-.67 1.494-1.495 1.494s-1.495-.669-1.495-1.494c0-.826.67-1.495 1.495-1.495z" stroke="#0093c9" stroke-width="1.128"/><path d="m36.9988 56.8173c.825 0 1.495.669 1.495 1.495 0 .825-.67 1.494-1.495 1.494s-1.495-.669-1.495-1.494c0-.826.67-1.495 1.495-1.495" fill="#0093c9"/><path d="m36.9988 56.8173c.825 0 1.495.669 1.495 1.495 0 .825-.67 1.494-1.495 1.494s-1.495-.669-1.495-1.494c0-.826.67-1.495 1.495-1.495z" stroke="#0093c9" stroke-width="1.128"/><path d="m39.9881 61.3013c.825 0 1.495.669 1.495 1.495 0 .825-.67 1.494-1.495 1.494s-1.495-.669-1.495-1.494c0-.826.67-1.495 1.495-1.495" fill="#0093c9"/><path d="m39.9881 61.3013c.825 0 1.495.669 1.495 1.495 0 .825-.67 1.494-1.495 1.494s-1.495-.669-1.495-1.494c0-.826.67-1.495 1.495-1.495z" stroke="#0093c9" stroke-width="1.128"/><path d="m31.0202 56.8173c.825 0 1.495.669 1.495 1.495 0 .825-.67 1.494-1.495 1.494s-1.495-.669-1.495-1.494c0-.826.67-1.495 1.495-1.495" fill="#0093c9"/><path d="m31.0202 56.8173c.825 0 1.495.669 1.495 1.495 0 .825-.67 1.494-1.495 1.494s-1.495-.669-1.495-1.494c0-.826.67-1.495 1.495-1.495z" stroke="#0093c9" stroke-width="1.128"/><path d="m34.0095 61.3013c.825 0 1.495.669 1.495 1.495 0 .825-.67 1.494-1.495 1.494s-1.495-.669-1.495-1.494c0-.826.67-1.495 1.495-1.495" fill="#0093c9"/><path d="m34.0095 61.3013c.825 0 1.495.669 1.495 1.495 0 .825-.67 1.494-1.495 1.494s-1.495-.669-1.495-1.494c0-.826.67-1.495 1.495-1.495z" stroke="#0093c9" stroke-width="1.128"/><path d="m25.0416 56.8173c.825 0 1.495.669 1.495 1.495 0 .825-.67 1.494-1.495 1.494s-1.495-.669-1.495-1.494c0-.826.67-1.495 1.495-1.495" fill="#0093c9"/><path d="m25.0416 56.8173c.825 0 1.495.669 1.495 1.495 0 .825-.67 1.494-1.495 1.494s-1.495-.669-1.495-1.494c0-.826.67-1.495 1.495-1.495z" stroke="#0093c9" stroke-width="1.128"/><path d="m28.0309 61.3013c.825 0 1.495.669 1.495 1.495 0 .825-.67 1.494-1.495 1.494s-1.495-.669-1.495-1.494c0-.826.67-1.495 1.495-1.495" fill="#0093c9"/><path d="m28.0309 61.3013c.825 0 1.495.669 1.495 1.495 0 .825-.67 1.494-1.495 1.494s-1.495-.669-1.495-1.494c0-.826.67-1.495 1.495-1.495z" stroke="#0093c9" stroke-width="1.128"/><path d="m13.509 60.307c0 2.529-2.05 4.579-4.579 4.579s-4.579-2.05-4.579-4.579 2.05-4.579 4.579-4.579 4.579 2.05 4.579 4.579" fill="#0093c9"/></g></svg>