<svg height="65" viewBox="0 0 120 65" width="120" xmlns="http://www.w3.org/2000/svg"><g fill="#0093c9" fill-rule="evenodd"><path d="m6.34185124 3.68687879c.99471074 0 1.80694215.79772727 1.80694215 1.80227273 0 .98780303-.81223141 1.79340909-1.80694215 1.79340909-1.00264463 0-1.81487603-.80560606-1.81487603-1.79340909 0-.99666667.8122314-1.80227273 1.81487603-1.80227273zm5.43371896 0c.9966943 0 1.8059505.79772727 1.8059505 1.80227273 0 .98780303-.8092562 1.79340909-1.8059505 1.79340909-1.0026446 0-1.81289251-.80560606-1.81289251-1.79340909 0-.99666667.81024791-1.80227273 1.81289251-1.80227273zm21.945124 32.88606061h-30.10016527v-26.5554546h43.46876037v3.2923485h3.629752v-8.72871209c0-1.98643939-1.6294215-3.59666666-3.629752-3.59666666h-43.46876037c-1.99933885 0-3.62082645 1.61022727-3.62082645 3.59666666v31.99181819c0 1.9854545 1.6214876 3.6035606 3.62082645 3.6035606h30.10016527z"/><path d="m40.0626446 16.0118636c.9947108 0 1.8069422.7977273 1.8069422 1.8022728 0 .987803-.8122314 1.7934091-1.8069422 1.7934091-1.0026446 0-1.814876-.8056061-1.814876-1.7934091 0-.9966667.8122314-1.8022728 1.814876-1.8022728zm5.433719 0c.9966943 0 1.8059504.7977273 1.8059504 1.8022728 0 .987803-.8092561 1.7934091-1.8059504 1.7934091-1.0026446 0-1.8128925-.8056061-1.8128925-1.7934091 0-.9966667.8102479-1.8022728 1.8128925-1.8022728zm23.7520662 32.8860606h-31.9071075v-26.5554545h43.4687603v3.3415909h3.6297521v-8.7779545c0-1.9864394-1.6294215-3.5966667-3.6297521-3.5966667h-43.4687603c-1.9993388 0-3.6208264 1.6102273-3.6208264 3.5966667v31.9918181c0 1.9854546 1.6214876 3.6035606 3.6208264 3.6035606h31.9071075z"/><path d="m72.8687603 61.272447h43.4687607v-26.5554546h-43.4687607zm2.7213223-32.8860606c.9947108 0 1.8059505.7977272 1.8059505 1.8012878 0 .9878031-.8112397 1.794394-1.8059505 1.794394-1.0026446 0-1.814876-.8065909-1.814876-1.794394 0-.9956818.8122314-1.8012878 1.814876-1.8012878zm5.4337191 0c.9966942 0 1.8059504.7977272 1.8059504 1.8012878 0 .9878031-.8092562 1.794394-1.8059504 1.794394-1.0026447 0-1.8128926-.8065909-1.8128926-1.794394 0-.9956818.8102479-1.8012878 1.8128926-1.8012878zm35.3137193-2.7024243h-43.4687607c-1.9993388 0-3.6208264 1.6102273-3.6208264 3.5956818v31.9928031c0 1.9854545 1.6214876 3.6035606 3.6208264 3.6035606h43.4687607c2.00033 0 3.629752-1.6181061 3.629752-3.6035606v-31.9928031c0-1.9854545-1.629422-3.5956818-3.629752-3.5956818z"/><path d="m55.0133554 37.3837652c-2.1480992 0-3.8895868-1.7234849-3.8895868-3.8487879 0-2.1253031 1.7414876-3.8487879 3.8895868-3.8487879 2.1480991 0 3.8895867 1.7234848 3.8895867 3.8487879 0 2.125303-1.7414876 3.8487879-3.8895867 3.8487879m8.928595 3.4262878-4.0899173-4.0477272c.6287603-.9218182.9957024-2.0317425.9957024-3.2273485 0-3.1889394-2.6122314-5.7731818-5.8343801-5.7731818-3.2221488 0-5.8343802 2.5842424-5.8343802 5.7731818s2.6122314 5.7731818 5.8343802 5.7731818c.9540496 0 1.8555372-.2265152 2.6509091-.6283333l4.2158677 4.1708333s.6872728.6805303 1.3745455 0l.6872727-.6795455c.6882645-.6815151 0-1.3610606 0-1.3610606"/><path d="m105.14638 42.1935682c.231075.2294697.347108.5081818.347108.8361363 0 .3279546-.116033.6066667-.347108.8361364l-8.9642974 8.9030303-1.6849586 1.6722727c-.2310744.2294697-.5117356.3437122-.8419835.3437122s-.6109091-.1142425-.8419835-.3437122l-1.6839669-1.6722727-4.4816529-4.4515151c-.2310744-.2294697-.3471074-.5081819-.3471074-.8361364s.116033-.6066667.3471074-.8361364l1.6839669-1.6722727c.2310744-.2294697.5117356-.344697.8419835-.344697s.6109091.1152273.8419835.344697l3.6396694 3.627197 8.1233055-8.0787121c.231075-.2294697.511736-.344697.841984-.344697s.610909.1152273.841983.344697z"/><path d="m19.4363306 20.6827045v1.3768182l-9.74776862 4.3047728v-2.1046213l6.51173552-2.8885606-6.51173552-2.8885606v-2.1046212z"/><path d="m20.9771901 29.5583561h9.6317355v-.9562879h-9.6317355z"/></g></svg>